<?xml version="1.0" standalone="no"?>
<!DOCTYPE svg PUBLIC "-//W3C//DTD SVG 1.1//EN" "http://www.w3.org/Graphics/SVG/1.1/DTD/svg11.dtd" >
<svg xmlns="http://www.w3.org/2000/svg">
<metadata></metadata>
<defs>
<font id="pf_agora_slab_proXThIt" horiz-adv-x="993" >
<font-face units-per-em="2048" ascent="1536" descent="-512" />
<missing-glyph horiz-adv-x="505" />
<glyph unicode="&#xfb01;" horiz-adv-x="964" d="M-264 -426l10 39q37 -6 68.5 -10t58.5 -4q59 0 106.5 18t82 64.5t58 123t38.5 193.5q51 412 76.5 640t33.5 310h-162l5 31l165 22l21 170q12 88 46 144.5t81 89.5t105.5 45t119.5 12q49 0 98.5 -7t100.5 -17l-10 -43q-53 10 -101.5 16t-85.5 6q-158 0 -225.5 -64.5 t-85.5 -209.5l-16 -148h217q47 0 127 3t161 20l11 -4q-12 -102 -28.5 -231.5t-34 -262.5t-32 -260t-24.5 -227q47 4 92 18.5t84 32.5l16 -27q-51 -41 -101 -58t-83 -17q-35 0 -46 13t-11 40q0 18 26.5 244.5t85.5 670.5h-467q-23 -205 -46 -416.5t-46 -402.5 q-12 -119 -30.5 -223.5t-55.5 -183t-99.5 -123.5t-162.5 -45q-27 0 -64.5 4t-76.5 14z" />
<glyph unicode="&#xfb02;" horiz-adv-x="966" d="M-264 -426l10 39q37 -6 68.5 -10t58.5 -4q59 0 106.5 18t82 64.5t58 123t38.5 193.5q51 412 76.5 640t33.5 310h-162l5 31l165 22l21 183q12 88 46 144t81 89t105.5 45.5t119.5 12.5q59 0 99 -7.5t92 -17.5l41 10l6 -4q-31 -254 -57.5 -480t-48 -410.5t-37 -322 t-21.5 -210.5q47 4 92 18.5t84 32.5l16 -27q-51 -41 -101 -58t-83 -17q-35 0 -46 13t-11 40q0 6 6 67.5t18.5 160.5t26.5 231.5t32.5 283t37 311t36.5 318.5q-53 10 -91 15t-89 5q-76 0 -130 -14t-91 -46t-59.5 -84t-30.5 -128l-16 -160h303l-6 -45h-304 q-23 -205 -46 -416.5t-46 -402.5q-12 -119 -30.5 -223.5t-55.5 -183t-99.5 -123.5t-162.5 -45q-27 0 -64.5 4t-76.5 14z" />
<glyph horiz-adv-x="0" />
<glyph horiz-adv-x="682" />
<glyph unicode=" "  horiz-adv-x="505" />
<glyph unicode="&#x09;" horiz-adv-x="505" />
<glyph unicode="&#xa0;" horiz-adv-x="505" />
<glyph unicode="!" horiz-adv-x="366" d="M76 41q0 29 22 48.5t47 19.5q23 0 37.5 -15.5t14.5 -38.5q0 -33 -21.5 -54t-44.5 -21t-39 16t-16 45zM170 324l39 436l80 653h51l-80 -653l-63 -436h-27z" />
<glyph unicode="&#x22;" horiz-adv-x="354" d="M172 1036l23 361h61l-59 -361h-25zM317 1036l31 361h60l-62 -361h-29z" />
<glyph unicode="#" horiz-adv-x="985" d="M82 428l16 41h138q33 100 68.5 204.5t68.5 207.5h-150l17 39h147q29 88 58.5 178t58.5 176h43l-115 -354h356q29 88 57.5 178t57.5 176h47l-114 -354h163l-16 -39h-162q-33 -102 -67.5 -207t-67.5 -205h170l-16 -41h-168q-35 -104 -71 -214t-66 -214h-46l136 428h-357 q-35 -104 -69.5 -214t-67.5 -214h-45l137 428h-141zM283 469h354q35 102 69.5 204.5t69.5 207.5h-356z" />
<glyph unicode="$" d="M70 109l24 206h45l-22 -182q63 -35 124.5 -51t116.5 -25l80 664q-104 41 -170.5 101.5t-66.5 174.5q0 80 24.5 143.5t66.5 107.5t100.5 72t125.5 38l17 129h40l-202 -1645h-41l20 170q-80 8 -158.5 37t-123.5 60zM250 1006q0 -51 15.5 -87t41 -63t61 -46t78.5 -38l66 535 q-55 -10 -102.5 -33t-83 -60.5t-56 -89t-20.5 -118.5zM444 -158l203 1645h43l-16 -131q51 -4 115.5 -20.5t113.5 -49.5l-26 -207h-50l23 178q-41 23 -87 34.5t-95 17.5l-74 -594q55 -27 106.5 -53.5t90 -63.5t62.5 -87t24 -122q0 -86 -29 -153.5t-78 -114.5t-116.5 -75 t-145.5 -34l-21 -170h-43zM514 61q135 10 221 87t92 223q0 115 -63.5 180t-175.5 113z" />
<glyph unicode="%" horiz-adv-x="1478" d="M131 817q0 31 3 84t15.5 113.5t36 123t63.5 112.5t99.5 82t143.5 32q76 0 124 -26.5t74.5 -68.5t35.5 -94.5t9 -105.5q0 -70 -13 -161t-51 -173t-106.5 -139t-177.5 -57q-78 0 -127 22.5t-77.5 60t-40 89t-11.5 106.5zM178 821q0 -51 10.5 -95t35 -76t66.5 -50t105 -18 q92 0 149.5 52t90.5 127t44 157.5t11 144.5q0 45 -8 91t-29.5 83t-62 60.5t-103.5 23.5q-76 0 -129 -32t-86.5 -82t-53 -109.5t-28 -114.5t-10.5 -99t-2 -63zM399 -47l734 1472h41l-730 -1472h-45zM844 270q0 31 3 84.5t15 113.5t36 122.5t63.5 113t99 82t143.5 31.5 q76 0 124 -26.5t75 -68.5t36 -94.5t9 -105.5q0 -70 -13.5 -161t-51 -173t-106.5 -139t-177 -57q-78 0 -127 22.5t-78 60.5t-40 89t-11 106zM891 274q0 -51 10 -95t35 -75.5t66.5 -50t105.5 -18.5q92 0 149.5 52t90 127t44 158t11.5 144q0 45 -8.5 91t-30 83t-61.5 60.5 t-103 23.5q-76 0 -129 -31.5t-87 -82t-53.5 -109.5t-27.5 -114.5t-10 -99.5t-2 -63z" />
<glyph unicode="&#x26;" horiz-adv-x="1622" d="M45 674q20 131 74.5 257t144.5 222t218 155.5t298 59.5q150 0 257.5 -44t176 -119t100.5 -176t32 -216q0 -55 -9.5 -116.5t-25.5 -125.5q33 -6 66.5 -12t49.5 -6q74 0 125.5 35t96.5 100l32 -16q-41 -72 -102 -115t-154 -43q-12 0 -42.5 3t-84.5 15 q-39 -104 -103.5 -202.5t-150.5 -174t-189 -120.5t-218 -45q-106 0 -180 33.5t-121 87t-68.5 122t-21.5 138.5q0 139 34.5 244.5t89 176t121 106.5t127.5 36q51 0 84 -16.5t51.5 -41t25.5 -52t7 -48.5q0 -39 -26.5 -92t-85.5 -100l4 -6q72 16 141.5 26t128.5 10q63 0 141 -8 t175 -28q16 59 25 118.5t9 112.5q0 100 -26.5 194.5t-89 165t-165 113.5t-251.5 43q-143 0 -260 -51t-203 -139t-140 -208t-75 -257zM289 381q0 -172 97 -261t255 -89q90 0 182 37.5t173 105.5t147.5 161t107.5 204q-180 35 -311 34q-156 0 -328 -53l-22 37 q66 49 108.5 105.5t42.5 109.5q0 51 -32 87t-91 36q-53 0 -111 -33t-106.5 -97.5t-80 -160.5t-31.5 -223z" />
<glyph unicode="'" horiz-adv-x="260" d="M195 1036l24 361h62l-60 -361h-26z" />
<glyph unicode="(" horiz-adv-x="501" d="M123 354q0 227 50 414.5t115.5 328t129 232.5t92.5 131l18 -14q-29 -41 -87 -135t-116.5 -236.5t-102.5 -332t-44 -418.5q0 -135 15.5 -245t37 -192t44 -139t34.5 -88l-22 -12q-10 25 -38 81t-55.5 145t-49 209t-21.5 271z" />
<glyph unicode=")" horiz-adv-x="501" d="M6 -340q27 39 86.5 133t119.5 240.5t106.5 341t46.5 436.5q0 127 -16.5 231.5t-39 185.5t-46 135t-38.5 83l23 14q12 -27 40.5 -85t58.5 -145t51.5 -202t21.5 -252q0 -242 -54.5 -438.5t-124 -340.5t-133 -233.5t-83.5 -115.5z" />
<glyph unicode="*" horiz-adv-x="636" d="M164 1171q2 18 9 39t22 35l211 -100l6 248q16 6 36.5 7t34.5 -7l-57 -248l236 96q16 -35 10 -72l-244 -45l137 -186q-10 -16 -29.5 -27.5t-35.5 -15.5l-92 217l-138 -219q-18 4 -33.5 15.5t-21.5 27.5l180 188z" />
<glyph unicode="+" d="M158 580l6 51h332l41 336h51l-41 -336h330l-7 -51h-329l-43 -349h-52l43 349h-331z" />
<glyph unicode="," horiz-adv-x="231" d="M-12 -162q35 43 50 83t19 75q-23 0 -35 14.5t-10 36.5q4 25 20.5 42t39.5 17q59 0 51 -75q-4 -47 -37 -107.5t-84 -101.5z" />
<glyph unicode="-" horiz-adv-x="634" d="M109 485l6 56h436l-6 -56h-436z" />
<glyph unicode="." horiz-adv-x="276" d="M39 47q0 25 18 44.5t43 19.5q18 0 32.5 -14.5t14.5 -35.5q0 -25 -19 -44t-42 -19t-35 14.5t-12 34.5z" />
<glyph unicode="/" horiz-adv-x="610" d="M-45 -51l698 1478h41l-694 -1478h-45z" />
<glyph unicode="0" d="M68 457q0 49 4 137t22.5 189.5t53 207t95 191.5t151.5 140t220 54q117 0 190 -43t113.5 -112.5t55 -157.5t14.5 -176q0 -82 -9 -181.5t-31.5 -199.5t-62.5 -194.5t-99.5 -166t-142.5 -115.5t-193 -44q-117 0 -192 38.5t-117 103.5t-57 149.5t-15 179.5zM119 453 q0 -92 14 -170t53 -133.5t103.5 -86t167.5 -30.5q102 0 178 43t129 112.5t87 159.5t53.5 185.5t26.5 186.5t7 165q0 80 -12.5 158.5t-47 142t-98.5 102.5t-164 39q-123 0 -208.5 -56.5t-141 -143.5t-85 -191.5t-44 -201.5t-16.5 -174t-2 -107z" />
<glyph unicode="1" d="M174 0l4 47h301l154 1239l-344 -53l-2 39l344 82h57l-162 -1307h277l-4 -47h-625z" />
<glyph unicode="2" d="M0 0l4 49l180 156q119 104 230.5 208.5t201 208t147.5 203t71 193.5q8 80 -9.5 136t-54.5 92t-91 52.5t-116 16.5q-86 0 -179 -32t-179 -85l-27 41q90 59 189.5 94t195.5 35q72 0 135.5 -19.5t109.5 -61.5t68.5 -106.5t12.5 -154.5q-12 -109 -79 -220.5t-160 -219 t-199.5 -205.5t-200.5 -182l-170 -152h684l31 252h51l-35 -299h-811z" />
<glyph unicode="3" d="M23 47q4 10 9 21.5t9 19.5q125 -43 205 -50t139 -7q90 0 172 26.5t144.5 75.5t99.5 117.5t37 152.5q0 80 -31 140.5t-85 99.5t-127 58.5t-155 19.5q-16 0 -33.5 -1t-33.5 -3l-11 49q145 27 238.5 69t148 90t75 99t20.5 100q0 45 -17.5 84t-53.5 69t-91 47t-133 17 q-68 0 -150 -20.5t-192 -67.5l-17 39q96 51 188.5 75t174.5 24q92 0 157.5 -21.5t108.5 -57.5t62.5 -83t19.5 -96q0 -51 -19.5 -104.5t-62.5 -102.5t-108.5 -90t-157.5 -68v-6q61 -6 122.5 -33t110 -72t78 -106.5t29.5 -138.5q0 -86 -37 -165t-102.5 -137.5t-159.5 -93 t-207 -34.5q-129 0 -220 19t-144 46z" />
<glyph unicode="4" d="M33 399l8 56q195 229 389.5 450t386.5 449h55l-112 -905h198l-6 -50h-198l-43 -352h186l-4 -47h-412l4 47h174l43 352h-669zM94 449h615l102 831z" />
<glyph unicode="5" d="M45 49l23 43q92 -39 180 -51t147 -12q98 0 180 29.5t142.5 85t94.5 136t34 185.5q0 156 -88 231.5t-236 75.5q-59 0 -132 -18.5t-132 -46.5l-41 26l109 621h632l-32 -252h-52l27 203h-539l-94 -543q37 12 105 34.5t172 22.5q63 0 126.5 -18.5t115 -58.5t83 -106.5 t31.5 -160.5q0 -123 -40 -215t-107.5 -154.5t-157.5 -93t-188 -30.5q-115 0 -200 16t-163 51z" />
<glyph unicode="6" d="M115 422q0 207 43 381t119.5 301t185 198.5t237.5 71.5q74 0 143.5 -18.5t117.5 -40.5l-21 -43q-76 33 -136.5 44t-109.5 11q-84 0 -152.5 -35t-121.5 -89t-93 -122.5t-67 -136t-43 -128t-22 -99.5l4 -6q31 18 73.5 38.5t94 37t107.5 26.5t116 10q76 0 137 -18.5 t105.5 -59t69 -107.5t24.5 -163q0 -113 -34 -203t-95.5 -153.5t-145.5 -98t-184 -34.5q-102 0 -170 32.5t-107.5 91t-57 138.5t-17.5 174zM164 410q0 -72 13 -140.5t47 -121t94.5 -84t156.5 -31.5q94 0 168 32.5t126 91t80 137.5t28 171q0 70 -13.5 126t-47.5 96t-90 62.5 t-140 22.5q-88 0 -161 -19.5t-125 -42t-82 -44t-34 -23.5l-8 -59q-12 -84 -12 -174z" />
<glyph unicode="7" d="M184 0l721 1305h-641l-28 -226h-50l35 275h746l-9 -54l-718 -1300h-56z" />
<glyph unicode="8" d="M61 307q0 147 84 269t258 204q-170 98 -170 252q0 61 29 123t82 111t126 79.5t163 30.5q61 0 120.5 -15t107.5 -48t78 -86t30 -127q0 -113 -66.5 -210t-208.5 -190q111 -59 159 -135t48 -186q0 -72 -29.5 -142.5t-87 -126t-142.5 -90t-196 -34.5q-106 0 -178.5 26.5 t-119 70.5t-67 102.5t-20.5 121.5zM111 319q0 -55 16 -106t56 -91t107 -64.5t167 -24.5q106 0 181 34.5t123 86t69.5 112t21.5 113.5q0 86 -28.5 142.5t-82 96t-129 71.5t-168.5 69q-92 -43 -155.5 -96.5t-103.5 -110.5t-57 -116.5t-17 -115.5zM279 1030q0 -61 32.5 -108.5 t85 -83t120 -63t138.5 -54.5q78 49 128.5 98t80 95.5t42 89.5t12.5 81q0 43 -13.5 87.5t-47.5 79t-90 56t-144 21.5q-100 0 -166 -36t-106 -85t-56 -99t-16 -79z" />
<glyph unicode="9" d="M90 45l21 43q76 -33 136 -44t109 -11q84 0 153 34.5t122 89t93 123t66.5 136t43 128t22.5 99.5l-4 6q-31 -18 -74 -38.5t-94 -37t-108.5 -26.5t-114.5 -10q-76 0 -137.5 18t-105.5 59t-68.5 107.5t-24.5 163.5q0 113 34 203t95 153.5t145 98t185 34.5q100 0 168.5 -32.5 t108.5 -91t57.5 -138.5t17.5 -174q0 -207 -43 -381t-120 -301t-185.5 -198.5t-237.5 -71.5q-74 0 -143.5 18.5t-116.5 40.5zM174 895q0 -70 13.5 -126t47 -96t90 -62.5t140.5 -22.5q88 0 160.5 19.5t125 42t82 43t33.5 24.5l8 59q12 82 13 174q0 72 -13.5 140.5t-47 121 t-95 84t-156.5 31.5q-94 0 -167.5 -32.5t-126 -91t-80 -137.5t-27.5 -171z" />
<glyph unicode=":" horiz-adv-x="276" d="M39 47q0 25 18 44.5t43 19.5q18 0 32.5 -14.5t14.5 -35.5q0 -25 -19 -44t-42 -19t-35 14.5t-12 34.5zM117 676q0 25 17 44t44 19q20 0 33.5 -15t13.5 -36q0 -25 -20.5 -43t-40.5 -18q-23 0 -35 14t-12 35z" />
<glyph unicode=";" horiz-adv-x="276" d="M12 -162q35 43 50.5 83t19.5 75q-23 0 -34 13.5t-11 33.5q0 27 17 45t42 18q23 0 38.5 -14t15.5 -45q0 -47 -34 -112.5t-89 -112.5zM117 676q0 25 17 44t44 19q20 0 33.5 -15t13.5 -36q0 -25 -20.5 -43t-40.5 -18q-23 0 -35 14t-12 35z" />
<glyph unicode="&#x3c;" d="M162 575l8 60l752 381l-7 -58l-708 -352l622 -354l-8 -59z" />
<glyph unicode="=" d="M141 449l6 49h713l-6 -49h-713zM176 731l6 51h713l-6 -51h-713z" />
<glyph unicode="&#x3e;" d="M115 193l8 59l708 354l-622 352l6 58l662 -381l-9 -60z" />
<glyph unicode="?" horiz-adv-x="800" d="M174 1122l31 256q90 31 176 44.5t154 13.5q160 0 236.5 -58.5t76.5 -163.5q0 -49 -18.5 -94t-50 -86t-72.5 -76.5t-84 -68.5q-98 -72 -162 -128t-99.5 -108.5t-49 -105.5t-13.5 -121v-36.5t2 -37.5l-47 -12q-2 27 -3 49.5t-1 44.5q0 61 13 115.5t48 110t95.5 113.5 t154.5 126q104 76 169 148.5t65 154.5q0 55 -20.5 91t-55.5 57.5t-82 30t-98 8.5q-61 0 -137 -11.5t-154 -34.5l-27 -221h-47zM221 43q0 27 21.5 46.5t46.5 19.5q23 0 37 -14.5t14 -37.5q0 -31 -20.5 -51t-43.5 -20t-39 15t-16 42z" />
<glyph unicode="@" horiz-adv-x="1683" d="M174 596q0 168 66.5 314.5t178 254t259 169t309.5 61.5q141 0 255 -38t194 -108.5t123 -171t43 -227.5q0 -129 -38 -226.5t-94.5 -162t-123 -96t-123.5 -31.5q-98 0 -137 49t-39 115q0 12 1 23t3 24l8 55l-4 2q-35 -76 -78 -130t-87 -88t-87 -49.5t-78 -15.5 q-82 0 -133 66t-51 203q0 111 23.5 209t69.5 171.5t116.5 116.5t167.5 43q47 0 101 -9t114 -32l18 41h31q-10 -63 -21.5 -138t-22 -151.5t-20.5 -150.5t-18 -137q-2 -10 -3 -22.5t-1 -24.5q0 -49 26.5 -89t104.5 -40q49 0 106.5 30.5t105.5 91t80.5 148.5t32.5 203 q0 123 -43 217t-118.5 157.5t-180 96.5t-227.5 33q-154 0 -293 -59.5t-243.5 -163t-166 -240.5t-61.5 -293q0 -129 40 -235.5t113.5 -184.5t176 -121t227.5 -43q57 0 111.5 7.5t120.5 27.5l12 -41q-47 -16 -111.5 -27.5t-126.5 -11.5q-139 0 -250.5 46t-191.5 129t-123 199 t-43 255zM588 598q0 -123 36.5 -179.5t106.5 -56.5q41 0 92 30t100.5 86.5t92.5 137t67 185.5q10 61 20.5 122.5t20.5 120.5q-66 27 -120 35t-89 8q-98 0 -161.5 -51t-100.5 -125.5t-51 -159.5t-14 -153z" />
<glyph unicode="A" horiz-adv-x="1224" d="M-2 0l4 49h109l585 1348h72l256 -1348h131l-4 -49h-320l5 49h135l-68 354h-586l-153 -354h166l-4 -49h-328zM340 453h555l-115 594l-51 292h-6l-127 -292z" />
<glyph unicode="B" horiz-adv-x="1128" d="M29 0l4 49h139l160 1299h-129l6 49h536q90 0 155 -22.5t106 -63.5t60 -96.5t19 -122.5q0 -41 -11 -92.5t-39.5 -102.5t-79 -95t-128.5 -71l2 -4q63 -23 105.5 -55.5t67 -74.5t35 -88t10.5 -91q0 -94 -32 -171t-85 -132.5t-126 -85t-155 -29.5h-620zM225 49h412 q86 0 152.5 31t111.5 82t67.5 116.5t22.5 135.5q0 57 -20.5 108t-57 91t-88 63.5t-112.5 23.5h-408zM313 752h375q74 0 136.5 25.5t108.5 71.5t71.5 110.5t25.5 140.5q0 111 -69.5 179.5t-225.5 68.5h-350z" />
<glyph unicode="C" horiz-adv-x="1060" d="M129 530q0 78 9 173.5t33 193.5t68 192.5t112.5 167t166.5 116.5t232 44q104 0 194 -15.5t139 -35.5l-30 -260h-47l26 223q-49 14 -130 26.5t-152 12.5q-150 0 -257.5 -63.5t-177 -177t-102.5 -271.5t-33 -348q0 -96 15.5 -181t58.5 -150.5t122 -103.5t206 -38 q27 0 67.5 3t87.5 8t96.5 13.5t90.5 20.5l10 -41q-35 -12 -80 -21.5t-94 -16.5t-98.5 -11t-90.5 -4q-127 0 -211 36.5t-136 107.5t-73.5 171t-21.5 229z" />
<glyph unicode="D" horiz-adv-x="1218" d="M29 0l4 49h137l160 1299h-129l6 49h512q129 0 215 -40t137 -110.5t72.5 -166t21.5 -206.5q0 -170 -31.5 -327.5t-106.5 -279.5t-197.5 -194.5t-303.5 -72.5h-497zM221 51h299q31 0 87.5 4t122 27.5t134 74t123.5 140.5t90 227.5t35 335.5q0 180 -46 279.5t-112.5 145.5 t-137.5 54.5t-120 8.5h-317z" />
<glyph unicode="E" horiz-adv-x="1026" d="M29 0l4 49h131l160 1299h-123l6 49h837l-28 -230h-47l22 181h-616l-72 -588q141 4 294 8t294 8l-8 -67l-586 8l-82 -668h670l22 180h49l-26 -229h-901z" />
<glyph unicode="F" horiz-adv-x="970" d="M29 0l4 49h133l160 1299h-125l6 49h833l-28 -230h-47l22 181h-610l-72 -588q141 4 294 8t294 8l-8 -67l-586 8l-82 -668h199l-4 -49h-383z" />
<glyph unicode="G" horiz-adv-x="1163" d="M125 526q0 80 11 176.5t40 195.5t76 192.5t119.5 166t172 116.5t232.5 44q104 0 194.5 -15.5t139.5 -35.5l-31 -260h-47l27 223q-49 14 -130 26.5t-153 12.5q-150 0 -261.5 -64.5t-186 -179t-112.5 -270.5t-38 -340q0 -92 14.5 -179t59.5 -153.5t126 -106.5t216 -40 q31 0 71 3t83 9t83.5 14.5t71.5 20.5l70 561h-217l6 49h375l-7 -49h-104l-74 -604q-94 -29 -189 -41t-188 -12q-242 0 -346 133t-104 407z" />
<glyph unicode="H" horiz-adv-x="1265" d="M29 0l4 49h123l159 1299h-122l6 49h301l-6 -49h-127l-72 -584h752l71 584h-125l6 49h306l-7 -49h-127l-159 -1299h127l-4 -49h-306l5 49h124l82 666h-751l-82 -666h127l-4 -49h-301z" />
<glyph unicode="I" horiz-adv-x="579" d="M88 0l4 49h123l160 1299h-123l6 49h301l-6 -49h-127l-160 -1299h127l-4 -49h-301z" />
<glyph unicode="J" horiz-adv-x="602" d="M-131 -328q184 70 275.5 199t117.5 336l139 1141h-165l6 49h376l-6 -49h-159l-140 -1137q-29 -236 -132 -373t-294 -209z" />
<glyph unicode="K" horiz-adv-x="1126" d="M29 0l4 49h123l159 1299h-122l6 49h301l-6 -49h-127l-80 -656l721 656h-156l6 49h328l-6 -49h-103l-555 -504l443 -791h127l-7 -53h-303l6 53h117l-420 756l-206 -186l-72 -574h129l-4 -49h-303z" />
<glyph unicode="L" horiz-adv-x="1011" d="M29 0l4 49h131l160 1299h-123l6 49h325l-6 -49h-149l-160 -1299h676l31 246h51l-35 -295h-911z" />
<glyph unicode="M" horiz-adv-x="1595" d="M29 0l4 49h121l159 1299h-120l6 49h178l319 -1008l68 -219h6l121 221l565 1006h178l-6 -49h-125l-160 -1299h125l-4 -49h-307l4 49h131l150 1213h-8l-105 -189l-541 -956h-61l-315 991l-50 162h-6l-151 -1221h131l-4 -49h-303z" />
<glyph unicode="N" horiz-adv-x="1355" d="M29 0l4 49h137l160 1299h-137l6 49h192l567 -1125l84 -170h9l151 1246h-145l6 49h330l-7 -49h-133l-163 -1348h-52l-549 1081l-108 219h-6l-154 -1251h144l-5 -49h-331z" />
<glyph unicode="O" horiz-adv-x="1247" d="M125 514q0 164 30.5 325.5t103.5 289.5t191.5 208t294.5 80q131 0 217.5 -44t137.5 -119.5t70.5 -176t19.5 -213.5q0 -182 -38 -340.5t-113.5 -277.5t-188.5 -188.5t-260 -71.5q-129 0 -218 35.5t-143.5 103.5t-79 166t-24.5 223zM176 518q0 -238 93 -361.5t306 -123.5 q147 0 254 69.5t175.5 184t100.5 262t32 305.5q0 96 -16.5 188.5t-59.5 165t-119 116.5t-197 44q-170 0 -279.5 -80t-174 -205t-90 -274.5t-25.5 -290.5z" />
<glyph unicode="P" horiz-adv-x="1026" d="M29 0l4 49h125l159 1299h-124l6 49h495q72 0 137.5 -19.5t114.5 -60.5t79 -102.5t30 -147.5q0 -84 -20.5 -165t-72 -146.5t-136.5 -105.5t-214 -40h-331l-70 -561h170l-4 -49h-348zM287 659h334q68 0 135 17.5t122.5 62.5t90.5 122t35 196q0 74 -25 128t-67 91t-97 54.5 t-117 17.5h-327z" />
<glyph unicode="Q" horiz-adv-x="1247" d="M125 514q0 164 30.5 325.5t103.5 289.5t191.5 208t294.5 80q131 0 217.5 -44t137.5 -119.5t70.5 -176t19.5 -213.5q0 -158 -28.5 -299t-86 -253.5t-142.5 -191.5t-196 -112l336 -90l-39 -72l-405 142q-10 0 -19.5 -1t-19.5 -1q-129 0 -218 35.5t-143.5 103.5t-79 166 t-24.5 223zM176 518q0 -238 93 -361.5t306 -123.5q147 0 254 69.5t175.5 184t100.5 262t32 305.5q0 96 -16.5 188.5t-59.5 165t-119 116.5t-197 44q-170 0 -279.5 -80t-174 -205t-90 -274.5t-25.5 -290.5z" />
<glyph unicode="R" horiz-adv-x="1116" d="M29 0l4 49h125l159 1299h-124l6 49h503q72 0 135.5 -17.5t111.5 -55.5t76 -98.5t28 -148.5q0 -66 -16.5 -133t-54.5 -125.5t-102.5 -102.5t-162.5 -59l194 -610l150 -8v-31q-37 -14 -81 -18t-62 -4q-45 0 -58 39l-196 626h-377l-76 -602h170l-4 -49h-348zM291 700h342 q57 0 121.5 14.5t119 54.5t90 112.5t35.5 187.5q0 74 -22.5 127t-61 87t-93 49.5t-115.5 15.5h-336z" />
<glyph unicode="S" d="M27 82l28 223h47l-24 -190q84 -41 167 -60.5t169 -19.5q94 0 178 19.5t146.5 62.5t98 109.5t35.5 160.5q0 72 -26.5 121t-72.5 85t-105.5 59.5t-122.5 45.5q-88 29 -159 57.5t-121 67.5t-76.5 91.5t-26.5 127.5q0 98 38 170t100 118t146 67.5t177 21.5q59 0 146 -10 t173 -43l-31 -260h-47l27 221q-74 23 -142.5 32t-140.5 9q-74 0 -143.5 -17.5t-124.5 -56.5t-89 -101.5t-34 -152.5q0 -63 24.5 -107t68.5 -76t105.5 -56.5t137.5 -48.5q55 -18 120.5 -42t122 -63t94.5 -99.5t38 -150.5q0 -115 -43 -192.5t-115 -126.5t-164 -70.5 t-190 -21.5q-104 0 -208 23.5t-181 72.5z" />
<glyph unicode="T" horiz-adv-x="995" d="M125 1145l31 252h919l-28 -252h-52l25 203h-383l-160 -1299h172l-4 -49h-389l4 49h166l160 1299h-387l-25 -203h-49z" />
<glyph unicode="U" horiz-adv-x="1325" d="M172 1348l6 49h330l-6 -49h-154l-104 -852q-6 -49 -6 -95q0 -366 397 -366h2q197 0 312.5 116.5t144.5 344.5l104 852h-149l6 49h329l-6 -49h-129l-104 -859q-14 -111 -51 -203.5t-99.5 -159.5t-152.5 -103.5t-211 -36.5q-223 0 -334 108.5t-111 300.5q0 45 7 94l104 859 h-125z" />
<glyph unicode="V" horiz-adv-x="1150" d="M123 1348l6 49h307l-6 -49h-137l182 -1033l43 -260h6l111 269l434 1024h-131l6 49h305l-6 -49h-121l-569 -1348h-72l-241 1348h-117z" />
<glyph unicode="W" horiz-adv-x="1710" d="M123 1348l6 49h307l-6 -49h-137l117 -1016l30 -275h6l107 275l377 921l-15 95h-124l6 49h305l-6 -49h-131l147 -955l53 -336h6l123 349l338 942h-137l6 49h307l-6 -49h-116l-490 -1348h-72l-133 870l-45 291h-8l-121 -301l-344 -860h-72l-161 1348h-117z" />
<glyph unicode="X" horiz-adv-x="1138" d="M-20 0l4 49h122l474 672l-291 627h-125l6 49h326l-7 -49h-145l268 -578l404 578h-168l6 49h344l-6 -49h-119l-438 -627l309 -672h135l-4 -49h-340l4 49h150l-289 625l-438 -625h180l-4 -49h-358z" />
<glyph unicode="Y" horiz-adv-x="1026" d="M117 1348l6 49h305l-6 -49h-141l174 -437l82 -209h6l131 199l295 447h-140l7 49h301l-7 -49h-100l-467 -699l-74 -600h168l-4 -49h-387l4 49h168l74 594l-287 705h-108z" />
<glyph unicode="Z" horiz-adv-x="940" d="M-12 0l6 55l932 1293h-678l-27 -203h-45l31 252h778l-6 -56l-926 -1290h752l26 219h50l-33 -270h-860z" />
<glyph unicode="[" horiz-adv-x="444" d="M33 -328l215 1753h244l-9 -59h-188l-201 -1636h189l-7 -58h-243z" />
<glyph unicode="\" horiz-adv-x="610" d="M143 1427h41l334 -1478h-45z" />
<glyph unicode="]" horiz-adv-x="444" d="M-8 -328l6 58h188l201 1636h-188l8 59h244l-215 -1753h-244z" />
<glyph unicode="^" horiz-adv-x="823" d="M109 827l397 572h59l246 -572h-57l-228 523l-356 -523h-61z" />
<glyph unicode="_" d="M-78 -231l4 43h992l-5 -43h-991z" />
<glyph unicode="`" horiz-adv-x="892" d="M375 1366l55 45l205 -276l-29 -23z" />
<glyph unicode="a" horiz-adv-x="991" d="M82 319q0 137 28.5 260t88 215.5t147.5 146.5t209 54q57 0 126 -11t146 -42l25 53h29q-18 -123 -39 -257t-39.5 -262t-31.5 -241.5t-19 -193.5q47 6 92 25.5t84 48.5l22 -25q-53 -53 -109.5 -79.5t-95.5 -26.5q-27 0 -36 11t-9 34q0 14 3.5 53t9.5 91t14 110.5t18 113.5 h-6q-47 -125 -102 -204.5t-112.5 -126t-113 -63.5t-100.5 -17q-100 0 -164.5 80.5t-64.5 252.5zM133 332q0 -158 48 -230.5t138 -72.5q53 0 114 28.5t120 95t114.5 173t100.5 260.5q12 78 24.5 157.5t26.5 153.5q-86 35 -153.5 46t-112.5 11q-125 0 -206 -64.5t-129 -159.5 t-66.5 -202.5t-18.5 -195.5z" />
<glyph unicode="b" horiz-adv-x="905" d="M20 1423v33q66 10 115 15.5t86 5.5q25 0 33 -11.5t8 -25.5q0 -10 -6 -67.5t-15.5 -140.5t-21.5 -179.5t-23.5 -187.5t-20.5 -164.5t-13 -108.5h8q90 211 196.5 310t223.5 99q100 0 166.5 -82.5t66.5 -254.5q0 -135 -29.5 -257t-89 -214.5t-148.5 -146.5t-208 -54 q-70 0 -142.5 13t-160.5 52v2q47 334 88 665t80 685zM94 88q82 -35 145.5 -44t108.5 -9q117 0 198 55t131 143.5t73.5 199t23.5 222.5q0 158 -51 230.5t-139 72.5q-47 0 -102.5 -27.5t-114 -92t-116.5 -171t-112 -266.5z" />
<glyph unicode="c" horiz-adv-x="829" d="M82 342q0 51 7 120.5t27.5 143.5t55.5 145.5t88 128t128 91.5t177 35q63 0 124 -9.5t93 -25.5q18 -9 24 -19q3 -6 3 -14q0 -6 -2 -12q-2 -14 -12.5 -71.5t-26.5 -115.5h-29l9 193q-53 18 -104.5 23.5t-90.5 5.5q-106 0 -186 -52.5t-132.5 -139.5t-79 -199.5t-26.5 -233.5 q0 -55 11.5 -109.5t41 -97.5t80.5 -70.5t129 -27.5q72 0 154 16t149 47l17 -35q-59 -33 -144.5 -52t-171.5 -19t-145.5 25.5t-96 72.5t-54 111.5t-17.5 144.5z" />
<glyph unicode="d" horiz-adv-x="991" d="M82 319q0 137 28.5 260t88 215.5t147.5 146.5t209 54q57 0 121.5 -12t138.5 -41l53 467l-192 14v33q66 10 115 15.5t86 5.5q25 0 33 -11.5t8 -25.5q0 -12 -8.5 -90t-20.5 -176q-10 -84 -23.5 -188.5t-27 -216.5t-26.5 -222.5t-25.5 -208.5t-22.5 -176t-14 -121 q47 6 92 25.5t84 48.5l22 -25q-53 -53 -108.5 -79.5t-94.5 -26.5q-27 0 -36 11t-9 34q0 14 4.5 51t10.5 86t14 109.5t16 121.5h-6q-47 -125 -102 -204.5t-112.5 -126t-113 -63.5t-100.5 -17q-100 0 -164.5 80.5t-64.5 252.5zM133 332q0 -158 48 -230.5t138 -72.5 q53 0 111.5 28.5t117 93t115 171t107.5 264.5q6 39 12 81t11.5 83t9.5 77.5t8 65.5q-86 35 -149.5 48t-108.5 13q-125 0 -206 -64.5t-129 -159.5t-66.5 -202.5t-18.5 -195.5z" />
<glyph unicode="e" horiz-adv-x="823" d="M82 360q0 92 22.5 205t77 210t145.5 164t228 67q68 0 115 -19.5t76.5 -50.5t43 -70t13.5 -78q0 -102 -56.5 -169.5t-149.5 -109.5t-214 -62.5t-248 -28.5q-4 -27 -4 -43.5v-30.5q0 -53 11.5 -108.5t41 -101.5t82.5 -75.5t137 -29.5q147 0 295 67l17 -37 q-132 -71 -318 -71q-94 0 -155.5 29.5t-96 81t-49 119t-14.5 142.5zM137 465q289 14 452 89t163 224q0 82 -50.5 132.5t-154.5 50.5q-90 0 -162 -42t-124 -112t-84 -159t-40 -183z" />
<glyph unicode="f" horiz-adv-x="548" d="M-264 -426l10 39q37 -6 68.5 -11t58.5 -5q59 0 106.5 19t82 65.5t58 123t38.5 193.5q51 412 76.5 640t33.5 310h-162l5 31l163 22l9 68q12 100 33.5 180t59.5 135.5t95 84t141 28.5q27 0 64 -2t74 -10l-9 -43q-41 6 -70.5 8t-56.5 2q-53 0 -99 -13.5t-82 -55.5 t-62.5 -121.5t-40.5 -210.5l-6 -56h286l-6 -47h-287q-23 -205 -46 -415.5t-46 -401.5q-12 -119 -30.5 -223.5t-55.5 -183t-99.5 -123.5t-162.5 -45q-27 0 -64.5 4t-76.5 14z" />
<glyph unicode="g" horiz-adv-x="942" d="M76 -397l20 45q53 -25 115.5 -37t122.5 -12q117 0 185.5 35.5t107.5 98t57 148.5t33 187l47 327l-6 2q-47 -125 -102.5 -204.5t-113 -126t-113.5 -63.5t-101 -17q-100 0 -165 80.5t-65 252.5q0 137 30 260t88 215.5t147.5 146.5t209.5 54q70 0 149 -16t165 -55 q-20 -125 -36.5 -238t-31 -221.5l-29 -217t-30.5 -222.5q-10 -80 -28.5 -164t-62.5 -152.5t-126 -114t-221 -45.5q-72 0 -137.5 17.5t-108.5 36.5zM150 332q0 -158 48 -230.5t138 -72.5q53 0 113.5 28.5t120 95t114.5 173t100 260.5q12 78 24.5 157.5t27.5 153.5 q-86 35 -154 46t-113 11q-125 0 -205.5 -64.5t-129 -159.5t-66.5 -202.5t-18 -195.5z" />
<glyph unicode="h" horiz-adv-x="931" d="M20 1395l3 35q57 10 100 14t90 4q23 0 33 -10.5t8 -26.5q-2 -14 -8 -69.5t-15.5 -134.5t-20.5 -170t-21.5 -177t-18.5 -156.5t-12 -105.5h4q45 104 100 181t113.5 127t117 76t111.5 26q96 0 132 -55.5t36 -133.5q0 -25 -2 -67.5t-9 -127.5t-22.5 -226.5t-40.5 -364.5 q47 4 92.5 18.5t83.5 32.5l17 -27q-51 -41 -101.5 -58t-82.5 -17q-47 0 -53 24q-4 15 -5 35q0 13 2 29q25 205 38 339t21.5 216t10.5 120.5t2 53.5q0 70 -23.5 117t-99.5 47q-49 0 -108.5 -29t-122 -94.5t-123 -170t-109.5 -257.5l-51 -412h-45q10 82 24.5 199.5t30 252 t31.5 274.5t30.5 266t27 228.5t20.5 161.5z" />
<glyph unicode="i" horiz-adv-x="460" d="M92 950l2 35q57 10 100.5 14.5t90.5 4.5q29 0 36 -10.5t7 -26.5q0 -14 -6.5 -68.5t-16.5 -133.5t-22.5 -176t-24.5 -195.5t-23.5 -193t-17.5 -167.5q47 4 92 18.5t84 32.5l17 -27q-51 -41 -101.5 -58t-83.5 -17q-35 0 -46 13t-11 40q0 8 6 59t15.5 129t21.5 173.5 t24.5 192.5t22.5 188t18 161zM272 1241q0 23 17 39t33 16q23 0 35 -12t12 -31q0 -23 -14.5 -40t-39.5 -17q-16 0 -29.5 13.5t-13.5 31.5z" />
<glyph unicode="j" horiz-adv-x="436" d="M-115 -399q78 27 128 61.5t80 78.5t44.5 97t22.5 115q20 174 34.5 289.5t24.5 195.5t16.5 134.5t12.5 106.5t12 110.5t16 148.5l-184 12l2 35q57 10 100.5 14.5t90.5 4.5q43 0 43 -33q0 -12 -5.5 -66.5t-19.5 -169t-36.5 -298t-57.5 -455.5q-10 -80 -26.5 -143.5 t-50.5 -116t-89 -91.5t-143 -69zM272 1241q0 23 17 39t33 16q23 0 35 -12t12 -31q0 -23 -14.5 -40t-39.5 -17q-16 0 -29.5 13.5t-13.5 31.5z" />
<glyph unicode="k" horiz-adv-x="841" d="M31 1423l2 35q57 10 100 14.5t90 4.5q25 0 34 -10.5t9 -26.5q0 -8 -6 -59.5t-16.5 -131.5t-22.5 -179t-25.5 -201.5t-25.5 -200t-20 -170.5h6q49 84 113.5 174t138 163.5t152.5 122t157 48.5q96 0 102 -76l-24 -17q-47 33 -103 33q-49 0 -98 -25.5t-97 -66.5t-93.5 -92 t-84.5 -100q37 -76 82 -169.5t93.5 -183.5t92.5 -163.5t77 -108.5q47 14 89 36.5t76 47.5l23 -25q-53 -57 -104.5 -86.5t-79.5 -29.5q-18 0 -29.5 8t-22.5 20q-25 27 -60.5 86.5t-78.5 139t-91 178t-97 206.5q-29 -41 -50.5 -72.5t-39 -61t-32.5 -61.5t-32 -69 q-8 -55 -14 -100t-11.5 -87t-10.5 -82t-11 -85h-47q6 55 21.5 175t34 267.5t38 308t36.5 299t29.5 236.5t14.5 125z" />
<glyph unicode="l" horiz-adv-x="411" d="M92 1423l2 35q57 10 100.5 14.5t90.5 4.5q25 0 34 -10.5t9 -26.5q0 -14 -10.5 -103.5t-26 -221.5t-33.5 -289.5t-35.5 -309t-33 -281t-21.5 -202.5q47 4 92 18.5t84 32.5l16 -27q-51 -41 -101 -58t-83 -17q-35 0 -46 13t-11 40q0 8 9 94t24.5 216t34 286.5t36 307.5 t31.5 276.5t22 195.5z" />
<glyph unicode="m" horiz-adv-x="1589" d="M70 950l2 35q57 10 100 14.5t90 4.5q23 0 33 -10.5t8 -26.5q-2 -20 -7 -60.5t-11 -91.5t-13.5 -107.5t-13.5 -109.5h4q92 209 205 309.5t217 100.5q96 0 132 -55.5t36 -133.5q0 -29 -2 -76t-12 -145h2q92 209 204.5 309.5t217.5 100.5q96 0 132 -55.5t36 -133.5 q0 -25 -2.5 -67.5t-9.5 -127.5t-22.5 -226.5t-39.5 -364.5q47 4 92 18.5t84 32.5l16 -27q-51 -41 -101 -58t-83 -17q-47 0 -53 24q-4 14 -4 34q0 14 2 30q25 205 38 339t21 216t10 120.5t2 53.5q0 70 -23.5 117t-99.5 47q-49 0 -104 -29t-113.5 -94.5t-115 -170 t-105.5 -257.5l-16 -144l-31 -268h-51q6 43 14 111.5t17.5 147.5t18.5 163t16.5 157.5t11.5 132t4 87.5q0 70 -23.5 117t-99.5 47q-49 0 -105.5 -29t-115 -94.5t-115.5 -170t-106 -257.5l-52 -412h-45q14 123 29.5 252t30 252t28 233.5t25.5 200.5z" />
<glyph unicode="n" horiz-adv-x="1032" d="M70 950l2 35q57 10 100 14.5t90 4.5q23 0 33 -10.5t8 -26.5q-2 -20 -7 -60.5t-11 -91.5t-13.5 -107.5t-13.5 -109.5h4q45 104 100.5 181t114 127t116.5 76t112 26q96 0 131.5 -55.5t35.5 -133.5q0 -25 -2 -67.5t-9 -127.5t-22.5 -226.5t-39.5 -364.5q47 4 92 18.5 t84 32.5l16 -27q-51 -41 -101 -58t-83 -17q-47 0 -53 24q-4 14 -4 34q0 14 2 30q25 205 38 339t21 216t10 120.5t2 53.5q0 70 -23.5 117t-99.5 47q-49 0 -108.5 -29t-121.5 -94.5t-122.5 -170t-109.5 -257.5l-52 -412h-45q14 123 29.5 252t30 252t28 233.5t25.5 200.5z" />
<glyph unicode="o" horiz-adv-x="913" d="M82 375q0 100 21.5 211.5t72.5 205t138 154t216 60.5q92 0 152.5 -33t95.5 -88.5t49.5 -128t14.5 -150.5q0 -63 -8.5 -134t-27 -140.5t-50 -132t-80.5 -109.5t-116.5 -75.5t-156.5 -28.5q-96 0 -158.5 30.5t-98 84t-50 124t-14.5 150.5zM129 358q0 -68 11.5 -128t43 -104 t87 -70.5t143.5 -26.5q82 0 141 28.5t102 75.5t70 107.5t42 125t20.5 128t5.5 114.5q0 66 -11.5 129.5t-40 113.5t-81 81t-134.5 31q-121 0 -198.5 -59.5t-121.5 -150.5t-61.5 -196.5t-17.5 -198.5z" />
<glyph unicode="p" horiz-adv-x="980" d="M-68 -436l7 45h149q18 147 38.5 314t42 340t43 345t40.5 330l-182 12l2 35q57 10 100 14.5t90 4.5q23 0 33 -10.5t8 -26.5q-2 -20 -7 -61.5t-12.5 -93.5t-14.5 -109.5t-13 -110.5h6q47 125 102.5 205t113 126t111.5 63.5t101 17.5q100 0 165 -81t65 -253q0 -137 -29 -260 t-88.5 -215.5t-148.5 -146.5t-208 -54q-57 0 -121.5 12t-138.5 41l-49 -438h174l-6 -45h-373zM190 96q86 -35 149.5 -48t109.5 -13q125 0 205.5 64.5t128.5 159.5t66.5 202.5t18.5 195.5q0 158 -48 231t-138 73q-53 0 -111.5 -29t-117 -93.5t-114.5 -172t-108 -263.5 q-6 -39 -12 -80.5t-11 -82.5t-9 -79t-9 -65z" />
<glyph unicode="q" horiz-adv-x="925" d="M82 336q0 135 29.5 257t89 214t148.5 146.5t208 54.5q70 0 140.5 -11.5t158.5 -50.5l4 -6q-47 -330 -88 -657.5t-80 -673.5h172l-6 -45h-387l6 45h168q4 41 12.5 107.5t17.5 145.5t19.5 163t19.5 158.5t17 134t12 90.5h-8q-90 -211 -196.5 -310.5t-223.5 -99.5 q-100 0 -166.5 83t-66.5 255zM131 344q0 -158 51.5 -230.5t139.5 -72.5q47 0 102 26.5t113.5 91t117 172t111.5 267.5l45 313q-82 35 -145.5 44.5t-108.5 9.5q-117 0 -197.5 -55.5t-131 -143.5t-74 -198.5t-23.5 -223.5z" />
<glyph unicode="r" horiz-adv-x="681" d="M82 950l2 35q53 12 104 16.5t78 4.5q29 0 39 -9.5t10 -29.5q0 -12 -4 -48t-10 -81t-12 -93.5t-10 -80.5h4q35 109 72.5 177t75.5 107t73 53.5t63 14.5q51 0 78 -24.5t29 -57.5l-21 -21q-29 16 -51 22.5t-45 6.5q-98 0 -171 -132t-134 -388l-53 -422h-45q29 227 56.5 467 t55.5 471z" />
<glyph unicode="s" horiz-adv-x="794" d="M63 76q2 14 12.5 72.5t26.5 115.5h29l-8 -194q59 -23 112.5 -32t92.5 -9q63 0 120.5 14t101.5 43t70.5 73t26.5 105q0 45 -18.5 79t-50 59.5t-72.5 44t-86 36.5q-66 25 -117 48.5t-86 51t-53.5 63.5t-18.5 85q0 76 29 128t76 85t106.5 47.5t120.5 14.5q63 0 119.5 -9.5 t89.5 -25.5q18 -9 24 -19q3 -6 3 -14q0 -6 -2 -12q-2 -14 -12.5 -71.5t-26.5 -115.5h-29l8 193q-53 18 -98 23.5t-84 5.5q-53 0 -102.5 -13.5t-87 -40t-60 -69.5t-22.5 -101q0 -41 15 -70.5t44 -52t67.5 -41t88.5 -36.5q49 -18 99 -39t91 -50.5t67.5 -70.5t26.5 -103 q0 -78 -31.5 -132t-84 -89t-117.5 -51t-131 -16q-78 0 -144.5 14t-99.5 31q-18 8 -24 18q-3 6 -3 14q0 6 2 13z" />
<glyph unicode="t" horiz-adv-x="604" d="M121 948l4 31l139 22l37 175l31 4l-23 -185h279l-6 -47h-279l-90 -741q-2 -12 -2 -23.5v-21.5q0 -55 28.5 -89t108.5 -34q76 0 191 35l8 -35q-49 -20 -102.5 -32.5t-106.5 -12.5q-35 0 -65.5 7t-55 24.5t-39 47t-14.5 77.5v20t2 20l92 758h-137z" />
<glyph unicode="u" horiz-adv-x="1032" d="M70 950l2 35q57 10 100 14.5t90 4.5q23 0 33 -10.5t8 -26.5q-2 -18 -9 -80t-15.5 -142.5t-18.5 -172t-18.5 -171t-13.5 -137t-5 -71.5q0 -78 24.5 -121t102.5 -43q49 0 108.5 28.5t122 94t123 170t109.5 258.5l51 411h45q-23 -170 -41 -343t-37 -329l-32 -286 q47 4 92 18.5t84 32.5l16 -27q-51 -41 -101 -58t-83 -17q-47 0 -53 24q-4 14 -4 34q0 14 2 30q10 92 21 175t20 148h-5q-47 -104 -102 -181t-113.5 -127t-117 -75.5t-109.5 -25.5q-96 0 -134 51t-38 137q0 20 4 72.5t11.5 123t15.5 152.5t16 160t16.5 146.5t14.5 111.5z" />
<glyph unicode="v" horiz-adv-x="874" d="M20 924q39 29 90.5 57.5t82.5 28.5q23 0 35 -12.5t16 -47.5l88 -887h6q78 88 153.5 199t136 228.5t97.5 235.5t37 220l-160 -47l-12 27q51 43 98 61.5t66 18.5q31 0 47 -14.5t16 -49.5q0 -119 -48 -254t-121 -265t-156.5 -242.5t-157.5 -186.5h-39q-14 117 -25.5 228.5 t-24 226t-25.5 236.5t-27 259l-160 -49z" />
<glyph unicode="w" horiz-adv-x="1284" d="M20 926q39 29 90.5 57.5t82.5 28.5q23 0 35 -11.5t16 -46.5l65 -888h6q43 49 94.5 120.5t99.5 152.5t90 166t71 161q-4 66 -8.5 130t-12.5 150l-160 -49l-12 29q39 29 90 57.5t82 28.5q20 0 33.5 -9.5t17.5 -44.5l64 -890h6q68 76 139.5 185t129 230t95 242t37.5 223 l-159 -47l-13 27q51 43 98.5 61.5t65.5 18.5q59 0 60 -66q0 -78 -22.5 -167t-58.5 -180t-84 -180t-98.5 -168t-101.5 -144.5t-94 -108.5h-39l-49 575q-37 -90 -84 -175t-96.5 -160.5t-98.5 -137t-90 -102.5h-39l-75 952l-160 -49z" />
<glyph unicode="x" horiz-adv-x="851" d="M41 8v6l360 490l-172 442l-174 -55l-12 29q37 31 90 58.5t84 27.5q23 0 36 -6.5t26 -38.5l159 -414l314 459l4 2l47 -31l2 -4l-352 -471l190 -461q43 16 88 40.5t78 51.5l22 -20q-49 -61 -101 -95t-81 -34q-31 0 -40 13t-15 30l-176 434l-324 -479l-8 -2z" />
<glyph unicode="y" horiz-adv-x="925" d="M-246 -385q0 8 4 25l25 8q33 -43 72 -53.5t55 -10.5q123 0 239.5 72t243.5 231l-192 1057l-160 -49l-12 29q39 29 87 57.5t79 28.5q23 0 37 -11.5t18 -40.5l180 -1026h6q66 92 130.5 218t114.5 264.5t82 276.5t32 255l-164 -47l-13 27q51 43 98.5 61.5t65.5 18.5 q31 0 46.5 -13.5t15.5 -48.5q0 -106 -33 -249.5t-88 -294t-128 -292t-153 -239.5q-61 -76 -128.5 -139.5t-140.5 -109.5t-145.5 -71.5t-142.5 -25.5q-61 0 -96 25.5t-35 66.5z" />
<glyph unicode="z" horiz-adv-x="862" d="M20 49l736 899h-535l-51 -207l-29 4l19 195q4 35 18.5 45t34.5 10h598l10 -39l-745 -911l604 2l51 207l29 -4l-19 -195q-4 -35 -18 -45t-35 -10h-657z" />
<glyph unicode="{" horiz-adv-x="444" d="M84 592l6 43q47 8 78 33.5t48 59.5t26.5 73t13.5 78l47 385q8 66 45 114.5t105 48.5h59l-6 -57h-43q-49 0 -73.5 -29.5t-33.5 -95.5l-45 -371q-4 -39 -13 -78.5t-26.5 -75.5t-42 -63.5t-59.5 -40.5q68 -39 78 -103t0 -157l-62 -506q-8 -51 0.5 -87.5t63.5 -36.5h53 l-6 -54h-72q-63 0 -84.5 43t-13.5 109l66 528q4 33 5 72t-8.5 72.5t-34 59.5t-71.5 36z" />
<glyph unicode="|" horiz-adv-x="401" d="M174 -274v1697h51v-1697h-51z" />
<glyph unicode="}" horiz-adv-x="444" d="M-29 -328l6 54h54q55 0 71.5 36.5t24.5 87.5l61 506q6 45 13.5 84t23 72t40 59.5t63.5 44.5q-31 12 -48.5 40t-25.5 64t-7 76t5 78l45 371q8 66 -8.5 95.5t-65.5 29.5h-43l6 57h60q68 0 92 -49t16 -114l-47 -385q-4 -39 -5 -78t9.5 -73t34 -59.5t70.5 -33.5l-6 -43 q-49 -10 -80 -36t-48.5 -59.5t-25.5 -72.5t-12 -72l-66 -528q-8 -66 -40 -109t-95 -43h-72z" />
<glyph unicode="~" d="M143 516q37 61 66 87t67 26q45 0 114 -11.5t141.5 -24.5t138 -24.5t102.5 -11.5l90 74l21 -15q-33 -61 -59.5 -83.5t-61.5 -22.5q-51 0 -119 11t-137.5 24.5t-134 25t-109.5 11.5l-94 -82z" />
<glyph unicode="&#xa1;" horiz-adv-x="366" d="M63 -424l80 653l68 437h27l-43 -437l-80 -653h-52zM186 936q0 31 23.5 52.5t48.5 21.5q23 0 36 -19.5t13 -48.5q0 -27 -21.5 -44t-45.5 -17q-23 0 -38.5 15t-15.5 40z" />
<glyph unicode="&#xa2;" d="M180 342q0 74 16.5 179.5t62.5 206.5t128 179t213 94l18 142h48l-19 -137q63 2 131 -8.5t103 -26.5q18 -8 23 -18.5t1 -26.5q-2 -14 -12 -71.5t-27 -115.5h-28l8 193q-53 18 -105.5 23.5t-97.5 5.5l-115 -930q66 4 135.5 19.5t129.5 43.5l16 -35q-55 -29 -132 -48 t-155 -23l-20 -172h-47l20 172q-160 6 -227.5 102t-67.5 252zM227 336q0 -53 11.5 -107.5t40 -97.5t78 -70.5t124.5 -29.5l115 925q-92 -14 -161.5 -70.5t-116 -140t-69 -190t-22.5 -219.5z" />
<glyph unicode="&#xa3;" d="M33 0l6 51q49 20 86 63.5t62.5 98.5t42 116.5t24.5 114.5l37 226h-144l5 47h147q10 61 21.5 131t21.5 131q12 82 34.5 152.5t64.5 122t106.5 80t163.5 28.5q76 0 156.5 -16.5t131.5 -38.5l-26 -224h-47l22 189q-51 16 -112.5 29.5t-128.5 13.5q-90 0 -146.5 -26.5 t-90.5 -73t-51.5 -109t-29.5 -133.5l-43 -256h414l-4 -47h-416l-37 -224q-8 -53 -23.5 -110t-38 -111.5t-54 -99.5t-70.5 -76h729l-4 -49h-809z" />
<glyph unicode="&#xa5;" d="M125 1305l6 49h307l-6 -49h-153l147 -398l96 -245h4l158 245l252 398h-152l7 49h301l-7 -49h-98l-436 -684h334l-6 -48h-727l6 48h329l-260 684h-102zM131 401l4 43h727l-4 -43h-342l-45 -352h174l-4 -49h-393l4 49h170l45 352h-336z" />
<glyph unicode="&#xa7;" horiz-adv-x="864" d="M88 -152l27 213h43l-23 -180q68 -23 119 -32t104 -9q59 0 119 14.5t107 45t76.5 81t29.5 123.5q0 72 -40 123.5t-100.5 90t-130 71.5t-130 70t-100 85t-39.5 115q0 78 49 155t153 147q-61 47 -87.5 98t-26.5 104q0 70 24.5 125t69.5 93t105 58.5t132 20.5q94 0 149.5 -12 t108.5 -29l-28 -221h-45l22 184q-41 14 -96 22.5t-117 8.5q-49 0 -99 -14.5t-90 -44t-64.5 -75.5t-24.5 -112q0 -43 17 -76.5t50 -63.5t79 -56.5t101 -57.5q72 -39 119 -73.5t75 -68.5t38 -66.5t10 -65.5q0 -139 -176 -293q45 -33 72.5 -66.5t43 -64.5t19.5 -58.5t4 -50.5 q0 -90 -35.5 -149t-91 -95t-122 -51.5t-128.5 -15.5q-76 0 -138 12.5t-134 40.5zM197 666q0 -57 34.5 -98.5t88 -74t117 -62.5t120.5 -62q96 78 132 146.5t36 121.5q0 33 -12.5 60.5t-39 56t-70.5 58.5t-105 65q-27 16 -57.5 31.5t-53.5 31.5q-90 -61 -140 -136t-50 -138z " />
<glyph unicode="&#xa8;" horiz-adv-x="892" d="M338 1186q0 23 16 40t39 17q18 0 30.5 -12t12.5 -31q0 -25 -16.5 -42t-38.5 -17q-18 0 -30.5 12t-12.5 33zM602 1186q0 23 16 40t39 17q18 0 30.5 -12t12.5 -31q0 -25 -16 -42t-39 -17q-18 0 -30.5 12t-12.5 33z" />
<glyph unicode="&#xa9;" horiz-adv-x="1677" d="M121 686q0 150 57.5 281t156.5 229t232 154.5t285 56.5q150 0 284 -56.5t234 -154.5t158.5 -229t58.5 -281q0 -152 -58.5 -284t-158.5 -230t-234 -154.5t-284 -56.5q-152 0 -285 56.5t-232 154.5t-156.5 230.5t-57.5 283.5zM164 686q0 -141 54 -265t147.5 -216 t219.5 -145.5t267 -53.5q143 0 268 53.5t218.5 145.5t146.5 216t53 265t-53 264t-146.5 215t-218.5 145.5t-268 53.5q-141 0 -267 -53.5t-219.5 -145.5t-147.5 -215t-54 -264zM451 670q0 76 18 169t64.5 174t127 135t207.5 54q82 0 143.5 -12t102.5 -27v-194h-49v159 q-39 10 -90 19.5t-105 9.5q-92 0 -161.5 -36t-115.5 -100.5t-68.5 -154.5t-22.5 -200q0 -90 14 -175t54 -150t113 -103.5t187 -38.5q43 0 113 7t131 27l12 -40q-47 -18 -120.5 -29.5t-141.5 -11.5q-219 0 -316 138t-97 380z" />
<glyph unicode="&#xaa;" horiz-adv-x="684" d="M86 758q0 90 20.5 170t61.5 140t102.5 96t145.5 36q41 0 86 -11t96 -30l16 41h33q-14 -80 -29.5 -169t-27.5 -172t-21.5 -156.5t-13.5 -122.5q29 6 60.5 23.5t60.5 33.5l16 -25q-41 -39 -81 -57t-66 -18q-23 0 -30 9t-7 25t8 71.5t16 115.5l-6 2q-31 -68 -67.5 -111 t-73.5 -68.5t-71.5 -34.5t-63.5 -9q-72 0 -118 54t-46 167zM133 766q0 -98 32 -143t91 -45q35 0 75 18t80 59t77.5 110t66.5 167l33 188q-117 41 -174 41q-84 0 -138.5 -41t-86 -101.5t-44 -129t-12.5 -123.5z" />
<glyph unicode="&#xab;" horiz-adv-x="724" d="M127 334l6 63l303 287l23 -22l-269 -297l197 -295l-29 -25zM324 334l6 63l303 287l22 -22l-268 -297l199 -295l-31 -25z" />
<glyph unicode="&#xac;" d="M158 580l6 51h713l-50 -400h-51l43 349h-661z" />
<glyph unicode="&#xad;" horiz-adv-x="634" d="M109 485l6 56h436l-6 -56h-436z" />
<glyph unicode="&#xae;" horiz-adv-x="1150" d="M188 973q0 96 37 182t100.5 149.5t149.5 100.5t182 37t182.5 -37t151 -100.5t102 -149.5t37.5 -182q0 -100 -37.5 -185.5t-102 -146.5t-151 -96t-182.5 -35t-182 34t-149.5 95t-100.5 146t-37 188zM229 973q0 -92 33 -169t90.5 -134.5t136 -89t168.5 -31.5q88 0 167 30.5 t138.5 87t93.5 134.5t34 172q0 88 -34 167t-93.5 138t-138.5 93t-167 34q-86 0 -163.5 -34t-136 -93t-93.5 -138t-35 -167zM455 680v39h51v514h-51v39h223q76 0 128 -36t52 -122q0 -47 -24.5 -94t-100.5 -68l111 -231l59 -6v-33q-29 -6 -57 -6q-16 0 -27.5 9t-15.5 20 l-121 245h-133v-231h74v-39h-168zM549 989h135q49 0 88 24.5t39 98.5q0 68 -38 94.5t-89 26.5h-135v-244z" />
<glyph unicode="&#xaf;" horiz-adv-x="892" d="M219 1165l8 54h568l-9 -54h-567z" />
<glyph unicode="&#xb0;" horiz-adv-x="651" d="M176 1102q0 51 18.5 98t52.5 82t80 56.5t99 21.5q47 0 86 -17.5t66.5 -47t43 -68.5t15.5 -84q0 -111 -69.5 -181.5t-180.5 -70.5q-51 0 -91 17.5t-66.5 47t-40 67.5t-13.5 79zM221 1100q0 -70 47 -117t115 -47q84 0 144.5 52t60.5 142q0 86 -47 134.5t-125 48.5 q-37 0 -72 -15.5t-62.5 -44t-44 -67.5t-16.5 -86z" />
<glyph unicode="&#xb1;" d="M82 41l6 53h733l-6 -53h-733zM158 580l6 51h332l41 336h51l-41 -336h330l-7 -51h-329l-43 -349h-52l43 349h-331z" />
<glyph unicode="&#xb4;" horiz-adv-x="892" d="M512 1120l233 293l48 -45l-256 -268z" />
<glyph unicode="&#xb6;" horiz-adv-x="933" d="M203 1077q0 72 28.5 134.5t75.5 109.5t110.5 73.5t131.5 26.5h430l-6 -47h-133l-211 -1710h-51l210 1710h-161l-211 -1710h-203l6 49h152l133 1078h-33q-63 0 -112.5 22.5t-84 61t-53 91t-18.5 111.5z" />
<glyph unicode="&#xb7;" horiz-adv-x="294" d="M109 565q0 25 22 47.5t51 22.5q20 0 37 -17.5t17 -39.5q0 -29 -24 -51.5t-46 -22.5q-25 0 -41 18.5t-16 42.5z" />
<glyph unicode="&#xb8;" horiz-adv-x="827" d="M195 -494l2 35q80 6 134 22.5t87 39t47 51.5t14 57q0 47 -45 69.5t-117 22.5q-10 0 -21 -1t-22 -1l-16 29l178 193l25 -23l-142 -158q96 0 161 -23.5t65 -94.5q0 -43 -21.5 -82t-64.5 -69t-108.5 -48.5t-155.5 -18.5z" />
<glyph unicode="&#xba;" horiz-adv-x="630" d="M74 795q0 66 15 138.5t51 132.5t96.5 100t150.5 40q63 0 106.5 -21.5t68 -57t34.5 -84t10 -101.5q0 -61 -13 -133t-47 -132.5t-94.5 -100t-152.5 -39.5q-68 0 -111 20.5t-68.5 56t-35.5 81.5t-10 100zM117 784q0 -43 8 -79.5t28.5 -65.5t57.5 -45t94 -16q82 0 132 38.5 t78 95t37 120t9 112.5q0 43 -7 83t-26.5 70.5t-53.5 50t-89 19.5q-80 0 -132 -37.5t-83 -95t-42 -125t-11 -125.5z" />
<glyph unicode="&#xbb;" horiz-adv-x="724" d="M78 70l268 295l-194 297l30 22l230 -287l-6 -63l-306 -289zM274 70l269 295l-195 297l31 22l229 -287l-6 -63l-305 -289z" />
<glyph unicode="&#xbf;" horiz-adv-x="800" d="M-20 -215q0 55 19 101t50 85t71 73t83 65q98 70 160.5 126t99.5 108t51 104.5t14 117.5v39t-4 41l49 12q2 -20 3.5 -38.5t1.5 -34.5q0 -66 -12.5 -122t-46.5 -113.5t-96.5 -118t-160.5 -132.5q-51 -37 -93 -71.5t-72.5 -70.5t-48 -76t-17.5 -87q0 -102 71.5 -143 t186.5 -41q61 0 137 11t154 34l26 221h47l-30 -256q-90 -31 -176.5 -44t-153.5 -13q-162 0 -237.5 59.5t-75.5 163.5zM485 942q0 29 21.5 49.5t44.5 20.5t39 -15.5t16 -38.5q0 -29 -20.5 -49t-46.5 -20q-23 0 -38.5 15.5t-15.5 37.5z" />
<glyph unicode="&#xc0;" horiz-adv-x="1224" d="M-2 0l4 49h109l585 1348h72l256 -1348h131l-4 -49h-320l5 49h135l-68 354h-586l-153 -354h166l-4 -49h-328zM340 453h555l-115 594l-51 292h-6l-127 -292zM489 1708l46 55l247 -247l-22 -29z" />
<glyph unicode="&#xc1;" horiz-adv-x="1224" d="M-2 0l4 49h109l585 1348h72l256 -1348h131l-4 -49h-320l5 49h135l-68 354h-586l-153 -354h166l-4 -49h-328zM340 453h555l-115 594l-51 292h-6l-127 -292zM696 1481l236 293l45 -45l-252 -269z" />
<glyph unicode="&#xc2;" horiz-adv-x="1224" d="M-2 0l4 49h109l585 1348h72l256 -1348h131l-4 -49h-320l5 49h135l-68 354h-586l-153 -354h166l-4 -49h-328zM340 453h555l-115 594l-51 292h-6l-127 -292zM457 1491l286 252h56l223 -250l-21 -25l-237 209l-289 -211z" />
<glyph unicode="&#xc3;" horiz-adv-x="1224" d="M-2 0l4 49h109l585 1348h72l256 -1348h131l-4 -49h-320l5 49h135l-68 354h-586l-153 -354h166l-4 -49h-328zM340 453h555l-115 594l-51 292h-6l-127 -292zM477 1536q23 53 64 85t84 32q31 0 67.5 -11.5t73.5 -25.5t72.5 -25.5t66.5 -11.5l101 80l20 -14 q-23 -45 -57.5 -81t-79.5 -36q-27 0 -64 12t-75.5 26.5t-75.5 27t-64 12.5l-108 -84z" />
<glyph unicode="&#xc4;" horiz-adv-x="1224" d="M-2 0l4 49h109l585 1348h72l256 -1348h131l-4 -49h-320l5 49h135l-68 354h-586l-153 -354h166l-4 -49h-328zM340 453h555l-115 594l-51 292h-6l-127 -292zM553 1563q0 23 16.5 39t36.5 16t31.5 -12.5t11.5 -30.5q0 -25 -15.5 -42t-39.5 -17q-18 0 -29.5 13t-11.5 34z M856 1563q0 23 17.5 39t35.5 16q20 0 32.5 -12.5t12.5 -30.5q0 -25 -16 -42t-41 -17q-16 0 -28.5 13t-12.5 34z" />
<glyph unicode="&#xc5;" horiz-adv-x="1224" d="M-2 0l4 49h109l585 1348h72l256 -1348h131l-4 -49h-320l5 49h135l-68 354h-586l-153 -354h166l-4 -49h-328zM340 453h555l-115 594l-51 292h-6l-127 -292zM590 1569q0 76 50 134t136 58q68 0 106 -41t38 -100q0 -78 -51.5 -135.5t-133.5 -57.5q-37 0 -64.5 13.5t-46 34 t-26.5 45t-8 49.5zM633 1569q0 -47 28.5 -74t79.5 -27q57 0 96.5 38t39.5 106q0 47 -28 78.5t-77 31.5q-61 0 -100 -44t-39 -109z" />
<glyph unicode="&#xc6;" horiz-adv-x="1777" d="M-10 0v49h116l904 1299h-127l4 49h856l-19 -230h-49l15 181h-572l-43 -588q141 4 274.5 8t274.5 8l-6 -67l-547 8l-47 -668h635l14 180h49l-16 -229h-866l2 49h131l26 354h-583l-248 -354h158l-2 -49h-334zM449 453h555l61 886h-6z" />
<glyph unicode="&#xc7;" horiz-adv-x="1060" d="M129 530q0 78 9 173.5t33 193.5t68 192.5t112.5 167t166.5 116.5t232 44q104 0 194 -15.5t139 -35.5l-30 -260h-47l26 223q-49 14 -130 26.5t-152 12.5q-150 0 -257.5 -63.5t-177 -177t-102.5 -271.5t-33 -348q0 -96 15.5 -181t58.5 -150.5t122 -103.5t206 -38 q27 0 67.5 3t87.5 8t96.5 13.5t90.5 20.5l10 -41q-31 -10 -72 -19.5t-85 -16.5t-90 -11t-87 -6l-129 -146q96 0 160.5 -23.5t64.5 -95.5q0 -43 -21.5 -81.5t-64.5 -68.5t-108.5 -48.5t-155.5 -18.5l2 35q80 6 134.5 22.5t87 39t47 51.5t14.5 57q0 47 -45 69.5t-117 22.5 q-10 0 -21.5 -1t-21.5 -1l-16 29l145 158q-121 2 -203 39.5t-131 107.5t-70.5 170t-21.5 227z" />
<glyph unicode="&#xc8;" horiz-adv-x="1026" d="M29 0l4 49h131l160 1299h-123l6 49h837l-28 -230h-47l22 181h-616l-72 -588q141 4 294 8t294 8l-8 -67l-586 8l-82 -668h670l22 180h49l-26 -229h-901zM485 1708l45 55l248 -247l-22 -29z" />
<glyph unicode="&#xc9;" horiz-adv-x="1026" d="M29 0l4 49h131l160 1299h-123l6 49h837l-28 -230h-47l22 181h-616l-72 -588q141 4 294 8t294 8l-8 -67l-586 8l-82 -668h670l22 180h49l-26 -229h-901zM618 1481l236 293l45 -45l-252 -269z" />
<glyph unicode="&#xca;" horiz-adv-x="1026" d="M29 0l4 49h131l160 1299h-123l6 49h837l-28 -230h-47l22 181h-616l-72 -588q141 4 294 8t294 8l-8 -67l-586 8l-82 -668h670l22 180h49l-26 -229h-901zM416 1491l286 252h56l223 -250l-20 -25l-238 209l-289 -211z" />
<glyph unicode="&#xcb;" horiz-adv-x="1026" d="M29 0l4 49h131l160 1299h-123l6 49h837l-28 -230h-47l22 181h-616l-72 -588q141 4 294 8t294 8l-8 -67l-586 8l-82 -668h670l22 180h49l-26 -229h-901zM500 1563q0 23 16.5 39t36.5 16t31.5 -12.5t11.5 -30.5q0 -25 -15.5 -42t-39.5 -17q-18 0 -29.5 13t-11.5 34z M803 1563q0 23 17.5 39t35.5 16q20 0 32.5 -12.5t12.5 -30.5q0 -25 -16.5 -42t-40.5 -17q-16 0 -28.5 13t-12.5 34z" />
<glyph unicode="&#xcc;" horiz-adv-x="579" d="M88 0l4 49h123l160 1299h-123l6 49h301l-6 -49h-127l-160 -1299h127l-4 -49h-301zM215 1708l45 55l248 -247l-23 -29z" />
<glyph unicode="&#xcd;" horiz-adv-x="579" d="M88 0l4 49h123l160 1299h-123l6 49h301l-6 -49h-127l-160 -1299h127l-4 -49h-301zM332 1481l235 293l45 -45l-252 -269z" />
<glyph unicode="&#xce;" horiz-adv-x="579" d="M88 0l4 49h123l160 1299h-123l6 49h301l-6 -49h-127l-160 -1299h127l-4 -49h-301zM150 1491l286 252h56l223 -250l-21 -25l-237 209l-289 -211z" />
<glyph unicode="&#xcf;" horiz-adv-x="579" d="M88 0l4 49h123l160 1299h-123l6 49h301l-6 -49h-127l-160 -1299h127l-4 -49h-301zM236 1563q0 23 16.5 39t36.5 16t31.5 -12.5t11.5 -30.5q0 -25 -15.5 -42t-40.5 -17q-18 0 -29 13t-11 34zM539 1563q0 23 17.5 39t35.5 16q20 0 32.5 -12.5t12.5 -30.5q0 -25 -16.5 -42 t-40.5 -17q-16 0 -28.5 13t-12.5 34z" />
<glyph unicode="&#xd0;" horiz-adv-x="1218" d="M29 0l4 49h137l80 645h-129l6 45h127l76 609h-129l6 49h512q129 0 215 -40t137 -110.5t72.5 -166t21.5 -206.5q0 -170 -31.5 -327.5t-106.5 -279.5t-197.5 -194.5t-303.5 -72.5h-497zM221 51h299q31 0 87.5 4t122 27.5t134 74t123.5 140.5t90 227.5t35 335.5 q0 180 -46 279.5t-112.5 145.5t-137.5 54.5t-120 8.5h-317l-74 -609h424l-6 -45h-424z" />
<glyph unicode="&#xd1;" horiz-adv-x="1355" d="M29 0l4 49h137l160 1299h-137l6 49h192l567 -1125l84 -170h9l151 1246h-145l6 49h330l-7 -49h-133l-163 -1348h-52l-549 1081l-108 219h-6l-154 -1251h144l-5 -49h-331zM516 1542q23 53 64 85t84 32q31 0 67.5 -11.5t73.5 -25.5t72.5 -25.5t66.5 -11.5l100 80l21 -14 q-23 -45 -57.5 -81t-79.5 -36q-27 0 -64 12.5t-75.5 26.5t-75.5 26.5t-64 12.5l-108 -84z" />
<glyph unicode="&#xd2;" horiz-adv-x="1247" d="M125 514q0 164 30.5 325.5t103.5 289.5t191.5 208t294.5 80q131 0 217.5 -44t137.5 -119.5t70.5 -176t19.5 -213.5q0 -182 -38 -340.5t-113.5 -277.5t-188.5 -188.5t-260 -71.5q-129 0 -218 35.5t-143.5 103.5t-79 166t-24.5 223zM176 518q0 -238 93 -361.5t306 -123.5 q147 0 254 69.5t175.5 184t100.5 262t32 305.5q0 96 -16.5 188.5t-59.5 165t-119 116.5t-197 44q-170 0 -279.5 -80t-174 -205t-90 -274.5t-25.5 -290.5zM563 1708l45 55l248 -247l-22 -29z" />
<glyph unicode="&#xd3;" horiz-adv-x="1247" d="M125 514q0 164 30.5 325.5t103.5 289.5t191.5 208t294.5 80q131 0 217.5 -44t137.5 -119.5t70.5 -176t19.5 -213.5q0 -182 -38 -340.5t-113.5 -277.5t-188.5 -188.5t-260 -71.5q-129 0 -218 35.5t-143.5 103.5t-79 166t-24.5 223zM176 518q0 -238 93 -361.5t306 -123.5 q147 0 254 69.5t175.5 184t100.5 262t32 305.5q0 96 -16.5 188.5t-59.5 165t-119 116.5t-197 44q-170 0 -279.5 -80t-174 -205t-90 -274.5t-25.5 -290.5zM705 1481l235 293l45 -45l-252 -269z" />
<glyph unicode="&#xd4;" horiz-adv-x="1247" d="M125 514q0 164 30.5 325.5t103.5 289.5t191.5 208t294.5 80q131 0 217.5 -44t137.5 -119.5t70.5 -176t19.5 -213.5q0 -182 -38 -340.5t-113.5 -277.5t-188.5 -188.5t-260 -71.5q-129 0 -218 35.5t-143.5 103.5t-79 166t-24.5 223zM176 518q0 -238 93 -361.5t306 -123.5 q147 0 254 69.5t175.5 184t100.5 262t32 305.5q0 96 -16.5 188.5t-59.5 165t-119 116.5t-197 44q-170 0 -279.5 -80t-174 -205t-90 -274.5t-25.5 -290.5zM485 1491l287 252h55l224 -250l-21 -25l-237 209l-289 -211z" />
<glyph unicode="&#xd5;" horiz-adv-x="1247" d="M125 514q0 164 30.5 325.5t103.5 289.5t191.5 208t294.5 80q131 0 217.5 -44t137.5 -119.5t70.5 -176t19.5 -213.5q0 -182 -38 -340.5t-113.5 -277.5t-188.5 -188.5t-260 -71.5q-129 0 -218 35.5t-143.5 103.5t-79 166t-24.5 223zM176 518q0 -238 93 -361.5t306 -123.5 q147 0 254 69.5t175.5 184t100.5 262t32 305.5q0 96 -16.5 188.5t-59.5 165t-119 116.5t-197 44q-170 0 -279.5 -80t-174 -205t-90 -274.5t-25.5 -290.5zM496 1546q23 53 63.5 85t83.5 32q31 0 68 -11.5t73.5 -25.5t72.5 -25.5t67 -11.5l100 80l20 -14q-23 -45 -57.5 -81 t-79.5 -36q-27 0 -63.5 12.5t-75.5 26.5t-76 26.5t-63 12.5l-109 -84z" />
<glyph unicode="&#xd6;" horiz-adv-x="1247" d="M125 514q0 164 30.5 325.5t103.5 289.5t191.5 208t294.5 80q131 0 217.5 -44t137.5 -119.5t70.5 -176t19.5 -213.5q0 -182 -38 -340.5t-113.5 -277.5t-188.5 -188.5t-260 -71.5q-129 0 -218 35.5t-143.5 103.5t-79 166t-24.5 223zM176 518q0 -238 93 -361.5t306 -123.5 q147 0 254 69.5t175.5 184t100.5 262t32 305.5q0 96 -16.5 188.5t-59.5 165t-119 116.5t-197 44q-170 0 -279.5 -80t-174 -205t-90 -274.5t-25.5 -290.5zM561 1563q0 23 16.5 39t36.5 16t31.5 -12.5t11.5 -30.5q0 -25 -15 -42t-40 -17q-18 0 -29.5 13t-11.5 34zM864 1563 q0 23 18 39t36 16q20 0 32.5 -12.5t12.5 -30.5q0 -25 -16.5 -42t-41.5 -17q-16 0 -28.5 13t-12.5 34z" />
<glyph unicode="&#xd8;" horiz-adv-x="1247" d="M49 -10l148 180q-39 66 -55.5 152t-16.5 192q0 164 30.5 325.5t103.5 289.5t191.5 208t294.5 80q129 0 212 -41t135 -112l125 153h61l-160 -194q41 -74 56.5 -165t15.5 -194q0 -182 -38 -340.5t-113.5 -277.5t-188.5 -188.5t-260 -71.5q-135 0 -224.5 37.5t-144.5 109.5 l-117 -143h-55zM176 518q0 -94 13.5 -169t41.5 -134l824 1004q-45 68 -119 108.5t-191 40.5q-170 0 -279.5 -80t-174 -205t-90 -274.5t-25.5 -290.5zM256 174q94 -141 319 -141q147 0 254 69.5t175.5 184t100.5 262t32 305.5q0 86 -12.5 168t-47.5 152z" />
<glyph unicode="&#xd9;" horiz-adv-x="1325" d="M172 1348l6 49h330l-6 -49h-154l-104 -852q-6 -49 -6 -95q0 -367 399 -366q197 0 312.5 116.5t144.5 344.5l104 852h-149l6 49h329l-6 -49h-129l-104 -859q-14 -111 -51 -203.5t-99.5 -159.5t-152.5 -103.5t-211 -36.5q-223 0 -334 108.5t-111 300.5q0 45 7 94l104 859 h-125zM606 1708l45 55l248 -247l-22 -29z" />
<glyph unicode="&#xda;" horiz-adv-x="1325" d="M172 1348l6 49h330l-6 -49h-154l-104 -852q-6 -49 -6 -95q0 -367 399 -366q197 0 312.5 116.5t144.5 344.5l104 852h-149l6 49h329l-6 -49h-129l-104 -859q-14 -111 -51 -203.5t-99.5 -159.5t-152.5 -103.5t-211 -36.5q-223 0 -334 108.5t-111 300.5q0 45 7 94l104 859 h-125zM762 1481l235 293l45 -45l-251 -269z" />
<glyph unicode="&#xdb;" horiz-adv-x="1325" d="M172 1348l6 49h330l-6 -49h-154l-104 -852q-6 -49 -6 -95q0 -367 399 -366q197 0 312.5 116.5t144.5 344.5l104 852h-149l6 49h329l-6 -49h-129l-104 -859q-14 -111 -51 -203.5t-99.5 -159.5t-152.5 -103.5t-211 -36.5q-223 0 -334 108.5t-111 300.5q0 45 7 94l104 859 h-125zM516 1491l297 248h57l232 -246l-21 -23l-247 205l-299 -207z" />
<glyph unicode="&#xdc;" horiz-adv-x="1325" d="M172 1348l6 49h330l-6 -49h-154l-104 -852q-6 -49 -6 -95q0 -367 399 -366q197 0 312.5 116.5t144.5 344.5l104 852h-149l6 49h329l-6 -49h-129l-104 -859q-14 -111 -51 -203.5t-99.5 -159.5t-152.5 -103.5t-211 -36.5q-223 0 -334 108.5t-111 300.5q0 45 7 94l104 859 h-125zM604 1563q0 23 16.5 39t36.5 16t31.5 -12.5t11.5 -30.5q0 -25 -15 -42t-40 -17q-18 0 -29.5 13t-11.5 34zM907 1563q0 23 18 39t36 16q20 0 32.5 -12.5t12.5 -30.5q0 -25 -16.5 -42t-41.5 -17q-16 0 -28.5 13t-12.5 34z" />
<glyph unicode="&#xdd;" horiz-adv-x="1026" d="M117 1348l6 49h305l-6 -49h-141l174 -437l82 -209h6l131 199l295 447h-140l7 49h301l-7 -49h-100l-467 -699l-74 -600h168l-4 -49h-387l4 49h168l74 594l-287 705h-108zM575 1479l236 293l45 -46l-252 -268z" />
<glyph unicode="&#xde;" horiz-adv-x="1026" d="M29 0l4 49h125l159 1299h-124l6 49h348l-6 -49h-170l-27 -222h322q74 0 137 -20.5t111.5 -61t76 -106.5t27.5 -154q0 -61 -18.5 -138t-65.5 -144.5t-131 -114.5t-215 -47h-340l-37 -291h170l-4 -49h-348zM254 389h338q76 0 144.5 24.5t118.5 74t80 122t30 168.5 q0 154 -80 226.5t-215 72.5h-332z" />
<glyph unicode="&#xdf;" horiz-adv-x="1056" d="M-258 -426l12 41q78 -16 125 -16q59 0 106.5 19.5t83 66.5t60.5 123.5t39 193.5q14 123 27.5 229.5t24.5 203.5t21.5 190.5t20.5 189.5h-149l6 47h149q0 8 1 17.5t4 34t9.5 71.5t16.5 131q6 45 25.5 104.5t60.5 112.5t107.5 90t164.5 37q74 0 124 -19.5t81 -49 t43.5 -66.5t12.5 -70q0 -82 -46.5 -142t-100.5 -110.5t-100 -99.5t-46 -106q0 -45 25.5 -84t63.5 -77t83 -78t83 -84t63.5 -97t25.5 -117q0 -37 -13.5 -86t-49.5 -93t-101.5 -76t-169.5 -32q-51 0 -111.5 12.5t-111.5 28.5l18 45q76 -25 132 -33t85 -8q74 0 125 21.5 t84 55.5t48.5 76t15.5 83q0 61 -26 110.5t-62.5 91.5t-81.5 80.5t-82 78.5t-62.5 83t-25.5 97q0 74 45 126t99 100t99 101.5t45 132.5q0 23 -8 50.5t-32.5 51t-69.5 40t-119 16.5q-63 0 -114.5 -23.5t-89.5 -64.5t-61.5 -95t-31.5 -116l-113 -983q-12 -119 -30.5 -223.5 t-55.5 -183t-98 -123.5t-162 -45q-27 0 -64.5 4t-76.5 14z" />
<glyph unicode="&#xe0;" horiz-adv-x="991" d="M82 319q0 137 28.5 260t88 215.5t147.5 146.5t209 54q57 0 126 -11t146 -42l25 53h29q-18 -123 -39 -257t-39.5 -262t-31.5 -241.5t-19 -193.5q47 6 92 25.5t84 48.5l22 -25q-53 -53 -109.5 -79.5t-95.5 -26.5q-27 0 -36 11t-9 34q0 14 3.5 53t9.5 91t14 110.5t18 113.5 h-6q-47 -125 -102 -204.5t-112.5 -126t-113 -63.5t-100.5 -17q-100 0 -164.5 80.5t-64.5 252.5zM133 332q0 -158 48 -230.5t138 -72.5q53 0 114 28.5t120 95t114.5 173t100.5 260.5q12 78 24.5 157.5t26.5 153.5q-86 35 -153.5 46t-112.5 11q-125 0 -206 -64.5t-129 -159.5 t-66.5 -202.5t-18.5 -195.5zM401 1366l56 45l205 -276l-29 -23z" />
<glyph unicode="&#xe1;" horiz-adv-x="991" d="M82 319q0 137 28.5 260t88 215.5t147.5 146.5t209 54q57 0 126 -11t146 -42l25 53h29q-18 -123 -39 -257t-39.5 -262t-31.5 -241.5t-19 -193.5q47 6 92 25.5t84 48.5l22 -25q-53 -53 -109.5 -79.5t-95.5 -26.5q-27 0 -36 11t-9 34q0 14 3.5 53t9.5 91t14 110.5t18 113.5 h-6q-47 -125 -102 -204.5t-112.5 -126t-113 -63.5t-100.5 -17q-100 0 -164.5 80.5t-64.5 252.5zM133 332q0 -158 48 -230.5t138 -72.5q53 0 114 28.5t120 95t114.5 173t100.5 260.5q12 78 24.5 157.5t26.5 153.5q-86 35 -153.5 46t-112.5 11q-125 0 -206 -64.5t-129 -159.5 t-66.5 -202.5t-18.5 -195.5zM498 1120l233 293l47 -45l-256 -268z" />
<glyph unicode="&#xe2;" horiz-adv-x="991" d="M82 319q0 137 28.5 260t88 215.5t147.5 146.5t209 54q57 0 126 -11t146 -42l25 53h29q-18 -123 -39 -257t-39.5 -262t-31.5 -241.5t-19 -193.5q47 6 92 25.5t84 48.5l22 -25q-53 -53 -109.5 -79.5t-95.5 -26.5q-27 0 -36 11t-9 34q0 14 3.5 53t9.5 91t14 110.5t18 113.5 h-6q-47 -125 -102 -204.5t-112.5 -126t-113 -63.5t-100.5 -17q-100 0 -164.5 80.5t-64.5 252.5zM133 332q0 -158 48 -230.5t138 -72.5q53 0 114 28.5t120 95t114.5 173t100.5 260.5q12 78 24.5 157.5t26.5 153.5q-86 35 -153.5 46t-112.5 11q-125 0 -206 -64.5t-129 -159.5 t-66.5 -202.5t-18.5 -195.5zM274 1128l287 252h55l224 -250l-21 -24l-237 209l-287 -211z" />
<glyph unicode="&#xe3;" horiz-adv-x="991" d="M82 319q0 137 28.5 260t88 215.5t147.5 146.5t209 54q57 0 126 -11t146 -42l25 53h29q-18 -123 -39 -257t-39.5 -262t-31.5 -241.5t-19 -193.5q47 6 92 25.5t84 48.5l22 -25q-53 -53 -109.5 -79.5t-95.5 -26.5q-27 0 -36 11t-9 34q0 14 3.5 53t9.5 91t14 110.5t18 113.5 h-6q-47 -125 -102 -204.5t-112.5 -126t-113 -63.5t-100.5 -17q-100 0 -164.5 80.5t-64.5 252.5zM133 332q0 -158 48 -230.5t138 -72.5q53 0 114 28.5t120 95t114.5 173t100.5 260.5q12 78 24.5 157.5t26.5 153.5q-86 35 -153.5 46t-112.5 11q-125 0 -206 -64.5t-129 -159.5 t-66.5 -202.5t-18.5 -195.5zM301 1151q23 53 64 85t84 32q31 0 67.5 -11.5t73.5 -25.5t72.5 -25.5t66.5 -11.5l100 80l21 -14q-23 -45 -57.5 -81t-79.5 -36q-27 0 -64 12t-75.5 26.5t-75.5 27t-64 12.5l-108 -84z" />
<glyph unicode="&#xe4;" horiz-adv-x="991" d="M82 319q0 137 28.5 260t88 215.5t147.5 146.5t209 54q57 0 126 -11t146 -42l25 53h29q-18 -123 -39 -257t-39.5 -262t-31.5 -241.5t-19 -193.5q47 6 92 25.5t84 48.5l22 -25q-53 -53 -109.5 -79.5t-95.5 -26.5q-27 0 -36 11t-9 34q0 14 3.5 53t9.5 91t14 110.5t18 113.5 h-6q-47 -125 -102 -204.5t-112.5 -126t-113 -63.5t-100.5 -17q-100 0 -164.5 80.5t-64.5 252.5zM133 332q0 -158 48 -230.5t138 -72.5q53 0 114 28.5t120 95t114.5 173t100.5 260.5q12 78 24.5 157.5t26.5 153.5q-86 35 -153.5 46t-112.5 11q-125 0 -206 -64.5t-129 -159.5 t-66.5 -202.5t-18.5 -195.5zM399 1186q0 23 16.5 40t39.5 17q18 0 30.5 -12t12.5 -31q0 -25 -16.5 -42t-39.5 -17q-18 0 -30.5 12t-12.5 33zM664 1186q0 23 16 40t39 17q18 0 30.5 -12t12.5 -31q0 -25 -16.5 -42t-38.5 -17q-18 0 -30.5 12t-12.5 33z" />
<glyph unicode="&#xe5;" horiz-adv-x="991" d="M82 319q0 137 28.5 260t88 215.5t147.5 146.5t209 54q57 0 126 -11t146 -42l25 53h29q-18 -123 -39 -257t-39.5 -262t-31.5 -241.5t-19 -193.5q47 6 92 25.5t84 48.5l22 -25q-53 -53 -109.5 -79.5t-95.5 -26.5q-27 0 -36 11t-9 34q0 14 3.5 53t9.5 91t14 110.5t18 113.5 h-6q-47 -125 -102 -204.5t-112.5 -126t-113 -63.5t-100.5 -17q-100 0 -164.5 80.5t-64.5 252.5zM133 332q0 -158 48 -230.5t138 -72.5q53 0 114 28.5t120 95t114.5 173t100.5 260.5q12 78 24.5 157.5t26.5 153.5q-86 35 -153.5 46t-112.5 11q-125 0 -206 -64.5t-129 -159.5 t-66.5 -202.5t-18.5 -195.5zM412 1237q0 76 50 134.5t136 58.5q68 0 105.5 -41t37.5 -101q0 -78 -51 -135t-133 -57q-37 0 -64.5 13t-46 33.5t-26.5 45t-8 49.5zM455 1237q0 -47 28.5 -73.5t79.5 -26.5q57 0 96 37.5t39 105.5q0 47 -27.5 79t-76.5 32q-61 0 -100 -44 t-39 -110z" />
<glyph unicode="&#xe6;" horiz-adv-x="1435" d="M51 188q0 86 36 149.5t114 105.5t200.5 63.5t298.5 21.5q2 18 4.5 37t6.5 41q4 31 8 60.5t4 52.5q0 139 -53.5 188t-171.5 49q-51 0 -128 -14t-175 -49l-15 35q84 37 174 55t156 18q31 0 75 -4t84 -27.5t68.5 -71.5t28.5 -136q63 113 166.5 179.5t245.5 66.5 q117 0 177 -61.5t60 -141.5q0 -98 -62.5 -159.5t-159.5 -97.5t-217 -49.5t-235 -13.5q-4 -63 -6 -142t19.5 -148.5t79 -116.5t172.5 -47q74 0 146.5 21.5t150.5 58.5l20 -37q-55 -35 -143.5 -60.5t-186.5 -25.5q-115 0 -185.5 49t-98.5 141q-70 -59 -131.5 -97t-116.5 -59.5 t-103.5 -29.5t-93.5 -8q-61 0 -102 19.5t-65.5 50t-35 66.5t-10.5 68zM100 201q0 -76 39 -125t137 -49q31 0 76 8t100.5 30.5t119 61.5t128.5 100q-8 37 -10 72t-2 66q0 23 1 48t5 72q-178 -4 -292.5 -26.5t-182 -59.5t-93.5 -88t-26 -110zM745 528q133 2 247 18.5t197 48.5 t129 81t46 119q0 80 -55.5 123t-141.5 43q-96 0 -169.5 -35t-126 -94.5t-84 -137.5t-42.5 -166z" />
<glyph unicode="&#xe7;" horiz-adv-x="829" d="M82 342q0 51 7 120.5t27.5 143.5t55.5 145.5t88 128t128 91.5t177 35q63 0 124 -9.5t93 -25.5q18 -8 23.5 -18.5t1.5 -26.5q-2 -14 -12.5 -71.5t-26.5 -115.5h-29l9 193q-53 18 -104.5 23.5t-90.5 5.5q-106 0 -186 -52.5t-132.5 -139.5t-79 -199.5t-26.5 -233.5 q0 -55 11.5 -109.5t41 -97.5t80.5 -70.5t129 -27.5q72 0 154 16t149 47l17 -35q-51 -29 -119 -46t-139 -23l-131 -148q96 0 160.5 -23.5t64.5 -94.5q0 -43 -21.5 -82t-64.5 -69t-108.5 -48.5t-155.5 -18.5l2 35q80 6 134 22.5t87 39t47 51.5t14 57q0 47 -45 69.5t-117 22.5 q-10 0 -21 -1t-22 -1l-16 29l146 158h-11q-86 0 -145.5 25.5t-96 72.5t-54 111.5t-17.5 144.5z" />
<glyph unicode="&#xe8;" horiz-adv-x="823" d="M82 360q0 92 22.5 205t77 210t145.5 164t228 67q68 0 115 -19.5t76.5 -50.5t43 -70t13.5 -78q0 -102 -56.5 -169.5t-149.5 -109.5t-214 -62.5t-248 -28.5q-4 -27 -4 -43.5v-30.5q0 -53 11.5 -108.5t41 -101.5t82.5 -75.5t137 -29.5q147 0 295 67l17 -37 q-132 -71 -318 -71q-94 0 -155.5 29.5t-96 81t-49 119t-14.5 142.5zM137 465q289 14 452 89t163 224q0 82 -50.5 132.5t-154.5 50.5q-90 0 -162 -42t-124 -112t-84 -159t-40 -183zM381 1366l55 45l205 -276l-29 -23z" />
<glyph unicode="&#xe9;" horiz-adv-x="823" d="M82 360q0 92 22.5 205t77 210t145.5 164t228 67q68 0 115 -19.5t76.5 -50.5t43 -70t13.5 -78q0 -102 -56.5 -169.5t-149.5 -109.5t-214 -62.5t-248 -28.5q-4 -27 -4 -43.5v-30.5q0 -53 11.5 -108.5t41 -101.5t82.5 -75.5t137 -29.5q147 0 295 67l17 -37 q-132 -71 -318 -71q-94 0 -155.5 29.5t-96 81t-49 119t-14.5 142.5zM137 465q289 14 452 89t163 224q0 82 -50.5 132.5t-154.5 50.5q-90 0 -162 -42t-124 -112t-84 -159t-40 -183zM506 1120l233 293l47 -45l-256 -268z" />
<glyph unicode="&#xea;" horiz-adv-x="823" d="M82 360q0 92 22.5 205t77 210t145.5 164t228 67q68 0 115 -19.5t76.5 -50.5t43 -70t13.5 -78q0 -102 -56.5 -169.5t-149.5 -109.5t-214 -62.5t-248 -28.5q-4 -27 -4 -43.5v-30.5q0 -53 11.5 -108.5t41 -101.5t82.5 -75.5t137 -29.5q147 0 295 67l17 -37 q-132 -71 -318 -71q-94 0 -155.5 29.5t-96 81t-49 119t-14.5 142.5zM137 465q289 14 452 89t163 224q0 82 -50.5 132.5t-154.5 50.5q-90 0 -162 -42t-124 -112t-84 -159t-40 -183zM268 1128l287 252h55l224 -250l-21 -24l-238 209l-286 -211z" />
<glyph unicode="&#xeb;" horiz-adv-x="823" d="M82 360q0 92 22.5 205t77 210t145.5 164t228 67q68 0 115 -19.5t76.5 -50.5t43 -70t13.5 -78q0 -102 -56.5 -169.5t-149.5 -109.5t-214 -62.5t-248 -28.5q-4 -27 -4 -43.5v-30.5q0 -53 11.5 -108.5t41 -101.5t82.5 -75.5t137 -29.5q147 0 295 67l17 -37 q-132 -71 -318 -71q-94 0 -155.5 29.5t-96 81t-49 119t-14.5 142.5zM137 465q289 14 452 89t163 224q0 82 -50.5 132.5t-154.5 50.5q-90 0 -162 -42t-124 -112t-84 -159t-40 -183zM373 1186q0 23 16 40t39 17q18 0 30.5 -12t12.5 -31q0 -25 -16.5 -42t-38.5 -17 q-18 0 -30.5 12t-12.5 33zM637 1186q0 23 16 40t39 17q18 0 30.5 -12t12.5 -31q0 -25 -16.5 -42t-38.5 -17q-18 0 -30.5 12t-12.5 33z" />
<glyph unicode="&#xec;" horiz-adv-x="460" d="M57 1366l56 45l204 -276l-28 -23zM92 950l2 35q57 10 100.5 14.5t90.5 4.5q27 0 35 -10.5t8 -26.5q0 -14 -6.5 -68.5t-16.5 -133.5t-22.5 -176t-24.5 -195.5t-23.5 -193t-17.5 -167.5q47 4 92 18.5t84 32.5l17 -27q-51 -41 -101.5 -58t-83.5 -17q-35 0 -46 13t-11 40 q0 8 6 59t15.5 129t21.5 173.5t24.5 192.5t22.5 188t18 161z" />
<glyph unicode="&#xed;" horiz-adv-x="499" d="M92 950l2 35q57 10 100.5 14.5t90.5 4.5q27 0 35 -10.5t8 -26.5q0 -14 -6.5 -68.5t-16.5 -133.5t-22.5 -176t-24.5 -195.5t-23.5 -193t-17.5 -167.5q47 4 92 18.5t84 32.5l17 -27q-51 -41 -101.5 -58t-83.5 -17q-35 0 -46 13t-11 40q0 8 6 59t15.5 129t21.5 173.5 t24.5 192.5t22.5 188t18 161zM229 1120l234 293l47 -45l-256 -268z" />
<glyph unicode="&#xee;" horiz-adv-x="507" d="M-16 1128l286 252h56l223 -250l-21 -24l-237 209l-287 -211zM92 950l2 35q57 10 100.5 14.5t90.5 4.5q27 0 35 -10.5t8 -26.5q0 -14 -6.5 -68.5t-16.5 -133.5t-22.5 -176t-24.5 -195.5t-23.5 -193t-17.5 -167.5q47 4 92 18.5t84 32.5l17 -27q-51 -41 -101.5 -58 t-83.5 -17q-35 0 -46 13t-11 40q0 8 6 59t15.5 129t21.5 173.5t24.5 192.5t22.5 188t18 161z" />
<glyph unicode="&#xef;" horiz-adv-x="460" d="M92 950l2 35q57 10 100.5 14.5t90.5 4.5q27 0 35 -10.5t8 -26.5q0 -14 -6.5 -68.5t-16.5 -133.5t-22.5 -176t-24.5 -195.5t-23.5 -193t-17.5 -167.5q47 4 92 18.5t84 32.5l17 -27q-51 -41 -101.5 -58t-83.5 -17q-35 0 -46 13t-11 40q0 8 6 59t15.5 129t21.5 173.5 t24.5 192.5t22.5 188t18 161zM98 1186q0 23 16.5 40t39.5 17q18 0 30.5 -12t12.5 -31q0 -25 -16.5 -42t-39.5 -17q-18 0 -30.5 12t-12.5 33zM362 1186q0 23 16.5 40t39.5 17q18 0 30.5 -12t12.5 -31q0 -25 -16.5 -42t-38.5 -17q-18 0 -31 12t-13 33z" />
<glyph unicode="&#xf0;" horiz-adv-x="901" d="M80 371q0 82 22.5 177t74.5 178t136 138.5t209 55.5q45 0 89 -11.5t81 -29t65.5 -40t45.5 -44.5q-12 104 -47 191t-88 161l-195 -127l-22 35l194 125q-53 66 -117.5 118t-142.5 97l25 37q172 -94 276 -226l162 105l22 -37l-157 -100q143 -199 143 -480q0 -37 -3 -73.5 t-7 -77.5q-4 -39 -15.5 -95.5t-32 -119t-52 -123t-80 -109.5t-113 -79.5t-150.5 -30.5q-96 0 -158.5 34.5t-99 90t-51 124t-14.5 136.5zM129 381q0 -66 11.5 -128.5t42 -112.5t86 -80.5t143.5 -30.5q82 0 143 34.5t105.5 91t73 127t46 143.5t24.5 140.5t7 116.5v31 q-27 47 -62.5 78.5t-75.5 50t-80 27t-75 8.5q-113 0 -187.5 -52.5t-119.5 -129.5t-63.5 -163t-18.5 -151z" />
<glyph unicode="&#xf1;" horiz-adv-x="1032" d="M70 950l2 35q57 10 100 14.5t90 4.5q23 0 33 -10.5t8 -26.5q-2 -20 -7 -60.5t-11 -91.5t-13.5 -107.5t-13.5 -109.5h4q45 104 100.5 181t114 127t116.5 76t112 26q96 0 131.5 -55.5t35.5 -133.5q0 -25 -2 -67.5t-9 -127.5t-22.5 -226.5t-39.5 -364.5q47 4 92 18.5 t84 32.5l16 -27q-51 -41 -101 -58t-83 -17q-47 0 -53 23.5t-2 64.5q25 205 38 339t21 216t10 120.5t2 53.5q0 70 -23.5 117t-99.5 47q-49 0 -108.5 -29t-121.5 -94.5t-122.5 -170t-109.5 -257.5l-52 -412h-45q14 123 29.5 252t30 252t28 233.5t25.5 200.5zM266 1178 q23 53 64 84.5t84 31.5q31 0 67.5 -11t73.5 -25.5t73 -25.5t66 -11l101 79l20 -14q-23 -45 -57.5 -81t-79.5 -36q-27 0 -63.5 12.5t-75.5 27t-76 26.5t-64 12l-108 -84z" />
<glyph unicode="&#xf2;" horiz-adv-x="913" d="M82 375q0 100 21.5 211.5t72.5 205t138 154t216 60.5q92 0 152.5 -33t95.5 -88.5t49.5 -128t14.5 -150.5q0 -63 -8.5 -134t-27 -140.5t-50 -132t-80.5 -109.5t-116.5 -75.5t-156.5 -28.5q-96 0 -158.5 30.5t-98 84t-50 124t-14.5 150.5zM129 358q0 -68 11.5 -128t43 -104 t87 -70.5t143.5 -26.5q82 0 141 28.5t102 75.5t70 107.5t42 125t20.5 128t5.5 114.5q0 66 -11.5 129.5t-40 113.5t-81 81t-134.5 31q-121 0 -198.5 -59.5t-121.5 -150.5t-61.5 -196.5t-17.5 -198.5zM383 1366l55 45l205 -276l-29 -23z" />
<glyph unicode="&#xf3;" horiz-adv-x="913" d="M82 375q0 100 21.5 211.5t72.5 205t138 154t216 60.5q92 0 152.5 -33t95.5 -88.5t49.5 -128t14.5 -150.5q0 -63 -8.5 -134t-27 -140.5t-50 -132t-80.5 -109.5t-116.5 -75.5t-156.5 -28.5q-96 0 -158.5 30.5t-98 84t-50 124t-14.5 150.5zM129 358q0 -68 11.5 -128t43 -104 t87 -70.5t143.5 -26.5q82 0 141 28.5t102 75.5t70 107.5t42 125t20.5 128t5.5 114.5q0 66 -11.5 129.5t-40 113.5t-81 81t-134.5 31q-121 0 -198.5 -59.5t-121.5 -150.5t-61.5 -196.5t-17.5 -198.5zM481 1120l234 293l47 -45l-256 -268z" />
<glyph unicode="&#xf4;" horiz-adv-x="913" d="M82 375q0 100 21.5 211.5t72.5 205t138 154t216 60.5q92 0 152.5 -33t95.5 -88.5t49.5 -128t14.5 -150.5q0 -63 -8.5 -134t-27 -140.5t-50 -132t-80.5 -109.5t-116.5 -75.5t-156.5 -28.5q-96 0 -158.5 30.5t-98 84t-50 124t-14.5 150.5zM129 358q0 -68 11.5 -128t43 -104 t87 -70.5t143.5 -26.5q82 0 141 28.5t102 75.5t70 107.5t42 125t20.5 128t5.5 114.5q0 66 -11.5 129.5t-40 113.5t-81 81t-134.5 31q-121 0 -198.5 -59.5t-121.5 -150.5t-61.5 -196.5t-17.5 -198.5zM252 1128l287 252h55l223 -250l-20 -24l-238 209l-287 -211z" />
<glyph unicode="&#xf5;" horiz-adv-x="913" d="M82 375q0 100 21.5 211.5t72.5 205t138 154t216 60.5q92 0 152.5 -33t95.5 -88.5t49.5 -128t14.5 -150.5q0 -63 -8.5 -134t-27 -140.5t-50 -132t-80.5 -109.5t-116.5 -75.5t-156.5 -28.5q-96 0 -158.5 30.5t-98 84t-50 124t-14.5 150.5zM129 358q0 -68 11.5 -128t43 -104 t87 -70.5t143.5 -26.5q82 0 141 28.5t102 75.5t70 107.5t42 125t20.5 128t5.5 114.5q0 66 -11.5 129.5t-40 113.5t-81 81t-134.5 31q-121 0 -198.5 -59.5t-121.5 -150.5t-61.5 -196.5t-17.5 -198.5zM291 1151q23 53 63.5 85t83.5 32q31 0 68 -11.5t73.5 -25.5t72.5 -25.5 t67 -11.5l100 80l21 -14q-23 -45 -57.5 -81t-80.5 -36q-27 0 -63.5 12t-75.5 26.5t-75.5 27t-63.5 12.5l-109 -84z" />
<glyph unicode="&#xf6;" horiz-adv-x="913" d="M82 375q0 100 21.5 211.5t72.5 205t138 154t216 60.5q92 0 152.5 -33t95.5 -88.5t49.5 -128t14.5 -150.5q0 -63 -8.5 -134t-27 -140.5t-50 -132t-80.5 -109.5t-116.5 -75.5t-156.5 -28.5q-96 0 -158.5 30.5t-98 84t-50 124t-14.5 150.5zM129 358q0 -68 11.5 -128t43 -104 t87 -70.5t143.5 -26.5q82 0 141 28.5t102 75.5t70 107.5t42 125t20.5 128t5.5 114.5q0 66 -11.5 129.5t-40 113.5t-81 81t-134.5 31q-121 0 -198.5 -59.5t-121.5 -150.5t-61.5 -196.5t-17.5 -198.5zM375 1186q0 23 16 40t39 17q18 0 30.5 -12t12.5 -31q0 -25 -16.5 -42 t-38.5 -17q-18 0 -30.5 12t-12.5 33zM639 1186q0 23 16 40t39 17q18 0 30.5 -12t12.5 -31q0 -25 -16 -42t-39 -17q-18 0 -30.5 12t-12.5 33z" />
<glyph unicode="&#xf7;" d="M158 580l6 51h713l-7 -51h-712zM430 324q0 27 19.5 48t48.5 21q23 0 38 -16.5t15 -38.5q0 -29 -22.5 -48.5t-45.5 -19.5t-38 15.5t-15 38.5zM496 868q0 27 21 47.5t48 20.5q23 0 37 -15.5t14 -37.5q0 -29 -21.5 -49.5t-45.5 -20.5q-23 0 -38 16.5t-15 38.5z" />
<glyph unicode="&#xf8;" horiz-adv-x="907" d="M31 -10l104 129q-31 51 -42 116.5t-11 139.5q0 100 21.5 211.5t72.5 205t138 154t216 60.5q86 0 144.5 -30t93.5 -79l90 109h47l-117 -142q29 -53 41.5 -119.5t12.5 -138.5q0 -63 -8.5 -134t-27 -140.5t-50 -132t-80.5 -109.5t-116.5 -75.5t-156.5 -28.5q-92 0 -151 27.5 t-96 74.5l-82 -98h-43zM129 358q0 -57 7 -108t30 -94l571 702q-29 47 -80 76t-129 29q-121 0 -198.5 -59.5t-121.5 -150.5t-61.5 -196.5t-17.5 -198.5zM184 125q33 -45 87.5 -70.5t142.5 -25.5q82 0 141 28.5t102 75.5t70 107.5t42 125t20.5 128t5.5 114.5q0 57 -7.5 113.5 t-29.5 103.5z" />
<glyph unicode="&#xf9;" horiz-adv-x="1032" d="M70 950l2 35q57 10 100 14.5t90 4.5q23 0 33 -10.5t8 -26.5q-2 -18 -9 -80t-15.5 -142.5t-18.5 -172t-18.5 -171t-13.5 -137t-5 -71.5q0 -78 24.5 -121t102.5 -43q49 0 108.5 28.5t122 94t123 170t109.5 258.5l51 411h45q-23 -170 -41 -343t-37 -329l-32 -286 q47 4 92 18.5t84 32.5l16 -27q-51 -41 -101 -58t-83 -17q-47 0 -53 23.5t-2 64.5q10 92 21 175t20 148h-5q-47 -104 -102 -181t-113.5 -127t-117 -75.5t-109.5 -25.5q-96 0 -134 51t-38 137q0 20 4 72.5t11.5 123t15.5 152.5t16 160t16.5 146.5t14.5 111.5zM414 1366l55 45 l205 -276l-29 -23z" />
<glyph unicode="&#xfa;" horiz-adv-x="1032" d="M70 950l2 35q57 10 100 14.5t90 4.5q23 0 33 -10.5t8 -26.5q-2 -18 -9 -80t-15.5 -142.5t-18.5 -172t-18.5 -171t-13.5 -137t-5 -71.5q0 -78 24.5 -121t102.5 -43q49 0 108.5 28.5t122 94t123 170t109.5 258.5l51 411h45q-23 -170 -41 -343t-37 -329l-32 -286 q47 4 92 18.5t84 32.5l16 -27q-51 -41 -101 -58t-83 -17q-47 0 -53 23.5t-2 64.5q10 92 21 175t20 148h-5q-47 -104 -102 -181t-113.5 -127t-117 -75.5t-109.5 -25.5q-96 0 -134 51t-38 137q0 20 4 72.5t11.5 123t15.5 152.5t16 160t16.5 146.5t14.5 111.5zM502 1120 l233 293l47 -45l-256 -268z" />
<glyph unicode="&#xfb;" horiz-adv-x="1032" d="M70 950l2 35q57 10 100 14.5t90 4.5q23 0 33 -10.5t8 -26.5q-2 -18 -9 -80t-15.5 -142.5t-18.5 -172t-18.5 -171t-13.5 -137t-5 -71.5q0 -78 24.5 -121t102.5 -43q49 0 108.5 28.5t122 94t123 170t109.5 258.5l51 411h45q-23 -170 -41 -343t-37 -329l-32 -286 q47 4 92 18.5t84 32.5l16 -27q-51 -41 -101 -58t-83 -17q-47 0 -53 23.5t-2 64.5q10 92 21 175t20 148h-5q-47 -104 -102 -181t-113.5 -127t-117 -75.5t-109.5 -25.5q-96 0 -134 51t-38 137q0 20 4 72.5t11.5 123t15.5 152.5t16 160t16.5 146.5t14.5 111.5zM305 1128 l287 252h55l223 -250l-20 -24l-238 209l-286 -211z" />
<glyph unicode="&#xfc;" horiz-adv-x="1032" d="M70 950l2 35q57 10 100 14.5t90 4.5q23 0 33 -10.5t8 -26.5q-2 -18 -9 -80t-15.5 -142.5t-18.5 -172t-18.5 -171t-13.5 -137t-5 -71.5q0 -78 24.5 -121t102.5 -43q49 0 108.5 28.5t122 94t123 170t109.5 258.5l51 411h45q-23 -170 -41 -343t-37 -329l-32 -286 q47 4 92 18.5t84 32.5l16 -27q-51 -41 -101 -58t-83 -17q-47 0 -53 23.5t-2 64.5q10 92 21 175t20 148h-5q-47 -104 -102 -181t-113.5 -127t-117 -75.5t-109.5 -25.5q-96 0 -134 51t-38 137q0 20 4 72.5t11.5 123t15.5 152.5t16 160t16.5 146.5t14.5 111.5zM406 1186 q0 23 16 40t39 17q18 0 30.5 -12t12.5 -31q0 -25 -16.5 -42t-38.5 -17q-18 0 -30.5 12t-12.5 33zM670 1186q0 23 16 40t39 17q18 0 30.5 -12t12.5 -31q0 -25 -16.5 -42t-38.5 -17q-18 0 -30.5 12t-12.5 33z" />
<glyph unicode="&#xfd;" horiz-adv-x="925" d="M-246 -385q0 8 4 25l25 8q33 -43 72 -53.5t55 -10.5q123 0 239.5 72t243.5 231l-192 1057l-160 -49l-12 29q39 29 87 57.5t79 28.5q23 0 37 -11.5t18 -40.5l180 -1026h6q66 92 130.5 218t114.5 264.5t82 276.5t32 255l-164 -47l-13 27q51 43 98.5 61.5t65.5 18.5 q31 0 46.5 -13.5t15.5 -48.5q0 -106 -33 -249.5t-88 -294t-128 -292t-153 -239.5q-61 -76 -128.5 -139.5t-140.5 -109.5t-145.5 -71.5t-142.5 -25.5q-61 0 -96 25.5t-35 66.5zM463 1120l233 293l47 -45l-256 -268z" />
<glyph unicode="&#xfe;" horiz-adv-x="980" d="M-68 -436l7 45h149q12 98 28.5 241.5t35 308.5t39 341t39 344t36 314.5t29.5 252.5l-182 12l2 35q57 10 100 14.5t90 4.5q23 0 33 -10.5t8 -26.5q-2 -14 -8 -72.5t-16.5 -142.5t-22.5 -182.5t-22.5 -190.5t-19.5 -166t-13 -108h6q53 135 111.5 218t116 129t111.5 62.5 t101 16.5q100 0 165 -81t65 -253q0 -137 -29 -260t-88.5 -215.5t-148.5 -146.5t-208 -54q-57 0 -121.5 12t-138.5 41l-49 -438h174l-6 -45h-373zM190 96q86 -35 149.5 -48t109.5 -13q125 0 205.5 64.5t128.5 159.5t66.5 202.5t18.5 195.5q0 158 -48 231t-138 73 q-53 0 -111.5 -29t-117 -93.5t-114.5 -172t-108 -263.5q-6 -39 -12 -80.5t-11 -82.5t-9 -79t-9 -65z" />
<glyph unicode="&#xff;" horiz-adv-x="925" d="M-246 -385q0 8 4 25l25 8q33 -43 72 -53.5t55 -10.5q123 0 239.5 72t243.5 231l-192 1057l-160 -49l-12 29q39 29 87 57.5t79 28.5q23 0 37 -11.5t18 -40.5l180 -1026h6q66 92 130.5 218t114.5 264.5t82 276.5t32 255l-164 -47l-13 27q51 43 98.5 61.5t65.5 18.5 q31 0 46.5 -13.5t15.5 -48.5q0 -106 -33 -249.5t-88 -294t-128 -292t-153 -239.5q-61 -76 -128.5 -139.5t-140.5 -109.5t-145.5 -71.5t-142.5 -25.5q-61 0 -96 25.5t-35 66.5zM330 1186q0 23 16 40t39 17q18 0 30.5 -12t12.5 -31q0 -25 -16.5 -42t-38.5 -17q-18 0 -30.5 12 t-12.5 33zM594 1186q0 23 16 40t39 17q18 0 30.5 -12t12.5 -31q0 -25 -16.5 -42t-38.5 -17q-18 0 -30.5 12t-12.5 33z" />
<glyph unicode="&#x131;" horiz-adv-x="460" d="M92 950l2 35q57 10 100.5 14.5t90.5 4.5q27 0 35 -10.5t8 -26.5q0 -14 -6.5 -68.5t-16.5 -133.5t-22.5 -176t-24.5 -195.5t-23.5 -193t-17.5 -167.5q47 4 92 18.5t84 32.5l17 -27q-51 -41 -101.5 -58t-83.5 -17q-35 0 -46 13t-11 40q0 8 6 59t15.5 129t21.5 173.5 t24.5 192.5t22.5 188t18 161z" />
<glyph unicode="&#x152;" horiz-adv-x="1478" d="M129 516q0 164 33 326t107.5 290t195.5 206.5t299 78.5q43 0 83 -5t73 -15h571l-29 -230h-47l23 181h-566l-71 -588q141 4 268 8t268 8l-8 -59h-534l-82 -668h620l23 180h51l-27 -229h-675q-29 -4 -56.5 -9t-58.5 -5q-129 0 -217 36.5t-142.5 105.5t-78 167t-23.5 221z M182 520q0 -240 92.5 -363.5t305.5 -123.5q43 0 79 6l164 1329q-14 2 -30.5 2h-32.5q-115 0 -202 -37t-151.5 -100.5t-107.5 -148.5t-68.5 -179t-37 -193.5t-11.5 -191.5z" />
<glyph unicode="&#x153;" horiz-adv-x="1529" d="M82 375q0 100 21.5 211.5t72.5 205t138 154t216 60.5q82 0 139.5 -28t93.5 -74t54.5 -107.5t22.5 -130.5q25 68 60.5 129t86.5 108t120 75t155 28q68 0 114.5 -19.5t76.5 -50.5t43 -70t13 -78q0 -102 -56 -169.5t-149.5 -109.5t-214 -62.5t-247.5 -28.5q-4 -27 -4 -43.5 v-30.5q0 -53 11 -108.5t41 -101.5t83 -75.5t137 -29.5q147 0 295 67l16 -37q-131 -71 -317 -71q-82 0 -139.5 22.5t-94 61.5t-55 93t-24.5 116q-23 -61 -56 -114.5t-80 -93.5t-109.5 -63.5t-142.5 -23.5q-96 0 -158.5 30.5t-98 84t-50 124t-14.5 150.5zM129 358 q0 -68 11.5 -128t43 -104t87 -70.5t143.5 -26.5q82 0 141 28.5t102 75.5t70 107.5t42 125t20.5 128t5.5 114.5q0 66 -11.5 129.5t-40 113.5t-81 81t-134.5 31q-121 0 -198.5 -59.5t-121.5 -150.5t-61.5 -196.5t-17.5 -198.5zM844 465q289 14 451.5 89t162.5 224 q0 82 -50.5 132.5t-154.5 50.5q-90 0 -161.5 -42t-124 -112t-84 -159t-39.5 -183z" />
<glyph unicode="&#x178;" horiz-adv-x="1026" d="M117 1348l6 49h305l-6 -49h-141l174 -437l82 -209h6l131 199l295 447h-140l7 49h301l-7 -49h-100l-467 -699l-74 -600h168l-4 -49h-387l4 49h168l74 594l-287 705h-108zM449 1563q0 23 16.5 39t36.5 16t31.5 -12.5t11.5 -30.5q0 -25 -15.5 -42t-40.5 -17q-18 0 -29 13 t-11 34zM752 1563q0 23 17.5 39t35.5 16q20 0 32.5 -12.5t12.5 -30.5q0 -25 -16.5 -42t-40.5 -17q-16 0 -28.5 13t-12.5 34z" />
<glyph unicode="&#x192;" d="M25 -229l18 39q35 -10 56.5 -14.5t47.5 -4.5q55 0 93.5 20.5t67 60.5t49 98.5t40.5 133.5q14 55 29.5 136.5t32 171.5t32 179t27.5 159h-192l4 45h198q8 47 19.5 113.5t21.5 111.5q33 162 102.5 258t200.5 96q68 0 123 -20l-12 -39q-41 10 -64.5 12t-58.5 2 q-98 0 -159.5 -84t-86.5 -221q-8 -51 -20 -116.5t-21 -112.5h213l-4 -45h-217q-6 -27 -15 -80.5t-21.5 -118t-24.5 -135t-23.5 -133t-21.5 -109.5t-15 -68q-41 -188 -110.5 -274t-186.5 -86q-23 0 -58.5 4t-63.5 21z" />
<glyph unicode="&#x2c6;" horiz-adv-x="892" d="M217 1128l287 252h55l223 -250l-20 -24l-238 209l-286 -211z" />
<glyph unicode="&#x2c7;" horiz-adv-x="892" d="M268 1356l23 24l237 -211l287 209l19 -24l-285 -250h-55z" />
<glyph unicode="&#x2d8;" horiz-adv-x="892" d="M270 1288l47 27q35 -68 87.5 -112t117.5 -44q51 0 118 33t157 115l22 -19q-86 -100 -164 -140t-141 -40q-86 0 -148.5 53t-95.5 127z" />
<glyph unicode="&#x2d9;" horiz-adv-x="892" d="M465 1149q0 23 17 41t40 18q18 0 30.5 -14t12.5 -35q0 -23 -18.5 -39t-36.5 -16t-31.5 13t-13.5 32z" />
<glyph unicode="&#x2da;" horiz-adv-x="892" d="M381 1237q0 76 50 134.5t136 58.5q68 0 106 -41t38 -101q0 -78 -51.5 -135t-133.5 -57q-37 0 -64.5 13t-46 33.5t-26.5 45t-8 49.5zM424 1237q0 -47 28.5 -73.5t79.5 -26.5q57 0 96.5 37.5t39.5 105.5q0 47 -28 79t-77 32q-61 0 -100 -44t-39 -110z" />
<glyph unicode="&#x2db;" horiz-adv-x="892" d="M420 -305q0 59 48 144t189 190l19 -21q-61 -47 -98 -91t-58.5 -83t-29 -69.5t-7.5 -49.5q0 -51 34 -68.5t81 -17.5q39 0 75 6.5t64 14.5l6 -29q-47 -23 -93 -33t-83 -10q-78 0 -112.5 34t-34.5 83z" />
<glyph unicode="&#x2dc;" horiz-adv-x="892" d="M258 1151q23 53 63.5 85t84.5 32q31 0 67.5 -11.5t73.5 -25.5t72.5 -25.5t66.5 -11.5l100 80l21 -14q-23 -45 -57.5 -81t-79.5 -36q-27 0 -64 12t-75.5 26.5t-75.5 27t-64 12.5l-108 -84z" />
<glyph unicode="&#x2dd;" horiz-adv-x="892" d="M389 1114l236 293l47 -45l-254 -268zM571 1114l236 293l45 -45l-254 -268z" />
<glyph unicode="&#x3a9;" horiz-adv-x="1296" d="M37 0l4 47h305q-61 27 -100 78t-62.5 114.5t-32 137.5t-8.5 147q0 98 11.5 202.5t38 204t71.5 187.5t112.5 154.5t160 105.5t215.5 39q137 0 226 -45t142.5 -120.5t75 -175t21.5 -208.5q0 -115 -18.5 -235.5t-61.5 -231t-113 -204t-170 -150.5h309l-4 -47h-426l6 51 q115 39 196 122t131 194.5t73.5 240.5t23.5 260q0 92 -18.5 182.5t-64.5 161t-126 114.5t-202 44q-172 0 -281 -83t-169 -209t-82.5 -275.5t-22.5 -284.5q0 -86 11 -159.5t38.5 -133t77 -103.5t122.5 -71l-6 -51h-403z" />
<glyph unicode="&#x3c0;" horiz-adv-x="1089" d="M90 948l6 47h1000l-6 -47h-164q-6 -51 -14.5 -122.5t-19.5 -154.5t-22.5 -172t-21.5 -173t-19.5 -160t-13.5 -133q47 4 92 18.5t84 32.5l17 -27q-51 -41 -101.5 -58t-83.5 -17q-35 0 -47 13t-12 40q0 8 6 57t15.5 126t21.5 172t24.5 194.5t24.5 193.5t21 170h-580 l-115 -948h-49l115 948h-158z" />
<glyph unicode="&#x401;" horiz-adv-x="1026" d="M-23 0l5 49h131l159 1299h-122l6 49h837l-28 -230h-47l22 181h-616l-72 -588q141 4 293.5 8t294.5 8l-9 -67l-585 8l-82 -668h670l22 180h49l-26 -229h-902zM442 1563q0 23 17 39t37 16t31.5 -12.5t11.5 -30.5q0 -25 -15.5 -42t-40.5 -17q-18 0 -29.5 13t-11.5 34z M745 1563q0 23 18 39t36 16q20 0 32.5 -12.5t12.5 -30.5q0 -25 -16.5 -42t-41.5 -17q-16 0 -28.5 13t-12.5 34z" />
<glyph unicode="&#x402;" horiz-adv-x="1378" d="M127 1145l31 252h1040l-31 -252h-51l25 203h-488l-71 -594q39 18 87 34.5t98 28.5t100.5 20.5t97.5 8.5q94 0 159.5 -26.5t106.5 -72t58.5 -103.5t17.5 -120q0 -127 -41 -235.5t-102.5 -196.5t-132 -152.5t-132.5 -105.5l-22 37q72 45 140 112.5t121.5 151.5t86 181.5 t32.5 199.5q0 135 -75.5 209t-231.5 74q-90 0 -191.5 -29t-183.5 -65l-81 -656h170l-5 -49h-387l4 49h166l160 1299h-401l-25 -203h-49z" />
<glyph unicode="&#x403;" horiz-adv-x="952" d="M-23 0l5 49h133l159 1299h-124l6 49h833l-28 -230h-48l21 181h-608l-160 -1299h199l-5 -49h-383zM555 1483l236 293l45 -45l-252 -269z" />
<glyph unicode="&#x404;" horiz-adv-x="1060" d="M129 530q0 78 9 173.5t33 193.5t68 192.5t112.5 167t166.5 116.5t232 44q104 0 194 -15.5t139 -35.5l-30 -260h-47l26 223q-49 14 -130 26.5t-152 12.5q-123 0 -217.5 -43t-163 -123t-111.5 -192.5t-61 -249.5l585 16l-8 -67l-584 8q-4 -49 -7 -102.5t-3 -106.5 q0 -96 15.5 -181t58.5 -150.5t122 -103.5t206 -38q27 0 67.5 3t87.5 8t96.5 13.5t90.5 20.5l10 -41q-35 -12 -80 -21.5t-94 -16.5t-98.5 -11t-90.5 -4q-127 0 -211 36.5t-136 107.5t-73.5 171t-21.5 229z" />
<glyph unicode="&#x405;" d="M27 82l28 223h47l-24 -190q84 -41 167 -60.5t169 -19.5q94 0 178 19.5t146.5 62.5t98 109.5t35.5 160.5q0 72 -26.5 121t-72.5 85t-105.5 59.5t-122.5 45.5q-88 29 -159 57.5t-121 67.5t-76.5 91.5t-26.5 127.5q0 98 38 170t100 118t146 67.5t177 21.5q59 0 146 -10 t173 -43l-31 -260h-47l27 221q-74 23 -142.5 32t-140.5 9q-74 0 -143.5 -17.5t-124.5 -56.5t-89 -101.5t-34 -152.5q0 -63 24.5 -107t68.5 -76t105.5 -56.5t137.5 -48.5q55 -18 120.5 -42t122 -63t94.5 -99.5t38 -150.5q0 -115 -43 -192.5t-115 -126.5t-164 -70.5 t-190 -21.5q-104 0 -208 23.5t-181 72.5z" />
<glyph unicode="&#x406;" horiz-adv-x="579" d="M88 0l4 49h123l160 1299h-123l6 49h301l-6 -49h-127l-160 -1299h127l-4 -49h-301z" />
<glyph unicode="&#x407;" horiz-adv-x="579" d="M88 0l4 49h123l160 1299h-123l6 49h301l-6 -49h-127l-160 -1299h127l-4 -49h-301zM233 1563q0 23 17 39t37 16t31.5 -12.5t11.5 -30.5q0 -25 -15.5 -42t-40.5 -17q-18 0 -29.5 13t-11.5 34zM537 1563q0 23 17.5 39t35.5 16q20 0 32.5 -12.5t12.5 -30.5q0 -25 -16.5 -42 t-40.5 -17q-16 0 -28.5 13t-12.5 34z" />
<glyph unicode="&#x408;" horiz-adv-x="602" d="M-131 -328q184 70 275.5 199t117.5 336l139 1141h-165l6 49h376l-6 -49h-159l-140 -1137q-29 -236 -132 -373t-294 -209z" />
<glyph unicode="&#x409;" horiz-adv-x="1775" d="M-35 2q121 33 200 121t130 225t82 319.5t57 403.5l33 277h-131l6 49h850l-6 -49h-148l-67 -562h389q100 0 167.5 -30.5t106.5 -78.5t55.5 -107.5t16.5 -116.5q0 -113 -34 -198t-92 -141.5t-135 -85t-163 -28.5h-584l4 49h123l160 1299h-469l-37 -299 q-27 -211 -57.5 -395.5t-83.5 -327t-139 -237.5t-224 -128zM879 49h417q72 0 136.5 24.5t113.5 74t78 124t29 174.5q0 86 -27 142.5t-70 89.5t-96 46t-104 13h-391z" />
<glyph unicode="&#x40a;" horiz-adv-x="1769" d="M29 0l4 49h123l159 1299h-122l6 49h301l-6 -49h-127l-68 -562h610l70 562h-141l6 49h342l-6 -49h-148l-67 -562h389q100 0 167.5 -30.5t106.5 -78.5t55.5 -107.5t16.5 -116.5q0 -113 -34 -198t-92 -141.5t-135 -85t-163 -28.5h-584l4 49h123l84 686h-610l-86 -686h127 l-4 -49h-301zM872 49h418q72 0 136.5 24.5t113.5 74t78 124t29 174.5q0 86 -27 142.5t-70 89.5t-96 46t-104 13h-392z" />
<glyph unicode="&#x40b;" horiz-adv-x="1470" d="M127 1145l31 252h1042l-31 -252h-51l25 203h-488l-73 -603q109 41 228.5 70t219.5 29t156.5 -30t83 -75t30 -96t-3.5 -96l-59 -498h127l-4 -49h-303l4 49h123l59 471q6 61 4 111.5t-25.5 86.5t-70.5 55.5t-129 19.5q-43 0 -99.5 -7.5t-117 -19.5t-119.5 -30.5t-108 -41.5 l-82 -645h133l-4 -49h-314l4 49h129l160 1299h-403l-25 -203h-49z" />
<glyph unicode="&#x40c;" horiz-adv-x="1085" d="M31 0l4 49h123l159 1301h-122l6 49h301l-6 -49h-127l-160 -1301h127l-4 -49h-301zM360 731l5 23l571 620q29 37 70 37q23 0 49 -5t55 -17l-6 -31l-137 -15l-555 -600l458 -694l142 -14l2 -31q-31 -12 -61.5 -17t-53.5 -5q-29 0 -43 9t-27 27zM639 1487l235 293l46 -45 l-252 -269z" />
<glyph unicode="&#x40e;" horiz-adv-x="1050" d="M102 16l21 52q35 -10 72.5 -17.5t70.5 -7.5q66 0 110 39t87 127l63 129h-26l-262 1010h-113l6 51h309l-6 -51h-139l164 -656l80 -309h6l135 289l309 676h-137l6 51h291l-6 -51h-101l-532 -1160q-45 -98 -104.5 -148t-126.5 -50q-25 0 -67 4t-110 22zM393 1655l49 28 q37 -72 92.5 -115.5t120.5 -43.5q53 0 122 33.5t161 117.5l23 -18q-92 -106 -171 -146.5t-145 -40.5q-88 0 -152.5 55.5t-99.5 129.5z" />
<glyph unicode="&#x40f;" horiz-adv-x="1265" d="M29 0l4 49h123l159 1299h-122l6 49h301l-6 -49h-127l-160 -1299h751l160 1299h-125l6 49h306l-7 -49h-127l-159 -1299h127l-4 -49h-525l-41 -326h-53l41 326h-528z" />
<glyph unicode="&#x410;" horiz-adv-x="1224" d="M-2 0l4 49h109l585 1348h72l256 -1348h131l-4 -49h-320l5 49h135l-68 354h-586l-153 -354h166l-4 -49h-328zM340 453h555l-115 594l-51 292h-6l-127 -292z" />
<glyph unicode="&#x411;" horiz-adv-x="1124" d="M47 0l4 49h123l160 1299h-141l6 49h805l-29 -230h-49l22 181h-561l-68 -562h390q100 0 167.5 -30.5t106.5 -78.5t55.5 -107.5t16.5 -116.5q0 -113 -34 -198t-92.5 -141.5t-135 -85t-162.5 -28.5h-584zM227 49h418q72 0 136.5 24.5t113.5 74t77.5 124t28.5 174.5 q0 86 -26.5 142.5t-69.5 89.5t-96 46t-104 13h-392z" />
<glyph unicode="&#x412;" horiz-adv-x="1128" d="M29 0l4 49h139l160 1299h-129l6 49h536q90 0 155 -22.5t106 -63.5t60 -96.5t19 -122.5q0 -41 -11 -92.5t-39.5 -102.5t-79 -95t-128.5 -71l2 -4q63 -23 105.5 -55.5t67 -74.5t35 -88t10.5 -91q0 -94 -32 -171t-85 -132.5t-126 -85t-155 -29.5h-620zM225 49h412 q86 0 152.5 31t111.5 82t67.5 116.5t22.5 135.5q0 57 -20.5 108t-57 91t-88 63.5t-112.5 23.5h-408zM313 752h375q74 0 136.5 25.5t108.5 71.5t71.5 110.5t25.5 140.5q0 111 -69.5 179.5t-225.5 68.5h-350z" />
<glyph unicode="&#x413;" horiz-adv-x="952" d="M29 0l4 49h133l160 1299h-125l6 49h833l-28 -230h-47l20 181h-608l-160 -1299h199l-4 -49h-383z" />
<glyph unicode="&#x414;" horiz-adv-x="1214" d="M-68 -315l41 364h68q104 59 174 177t117 266.5t73.5 311.5t45.5 312l28 232h-135l6 49h903l-6 -49h-127l-159 -1299h104l-47 -364h-45l39 315h-998l-39 -315h-43zM123 49h784l160 1299h-537l-28 -236q-18 -147 -46 -306t-72 -303.5t-107.5 -264t-153.5 -189.5z" />
<glyph unicode="&#x415;" horiz-adv-x="1026" d="M29 0l4 49h131l160 1299h-123l6 49h837l-28 -230h-47l22 181h-616l-72 -588q141 4 294 8t294 8l-8 -67l-586 8l-82 -668h670l22 180h49l-26 -229h-901z" />
<glyph unicode="&#x416;" horiz-adv-x="1628" d="M-29 4l2 31l146 14l604 676l-404 618l-133 15l-2 31q31 12 60.5 17t52.5 5q39 0 61 -37l416 -637l-4 -22l-612 -697q-20 -18 -37 -27t-43 -9q-23 0 -50.5 5t-56.5 17zM614 0l4 49h123l160 1301h-123l6 49h301l-6 -49h-127l-159 -1301h127l-5 -49h-301zM932 719l2 22 l561 633q31 37 70 37q53 0 106 -22l-6 -31l-137 -15l-547 -614l434 -680l139 -12l5 -33q-33 -12 -63 -17t-54 -5q-27 0 -41.5 9t-26.5 27z" />
<glyph unicode="&#x417;" horiz-adv-x="1034" d="M-6 59l20 43q51 -20 106.5 -33.5t108 -20.5t95.5 -10t69 -3q109 0 200 29.5t155.5 84t100.5 131t36 173.5q0 141 -89 221t-286 80h-158l6 49h160q90 0 165 23.5t129 65.5t85 100.5t31 129.5q0 113 -91.5 180.5t-261.5 67.5q-27 0 -68.5 -4t-90.5 -13.5t-99.5 -24.5 t-93.5 -36l-24 -198h-45l26 229q66 37 173.5 65.5t240.5 28.5q100 0 174 -22.5t121 -62.5t70.5 -93t23.5 -113q0 -72 -25.5 -129t-68.5 -100t-96.5 -71.5t-108.5 -43.5l-4 -8q53 -12 100 -37.5t82 -64.5t55.5 -92.5t20.5 -122.5q0 -113 -44 -200t-118 -147.5t-171 -92 t-204 -31.5q-115 0 -222 19.5t-185 53.5z" />
<glyph unicode="&#x418;" horiz-adv-x="1316" d="M29 0l4 49h133l160 1299h-133l6 49h329l-6 -49h-145l-135 -1112h8l897 1011l12 101h-139l6 49h330l-6 -49h-138l-159 -1299h137l-4 -49h-332l4 49h143l138 1118h-6l-900 -1013l-14 -105h143l-4 -49h-329z" />
<glyph unicode="&#x419;" horiz-adv-x="1316" d="M29 0l4 49h133l160 1299h-133l6 49h329l-6 -49h-145l-135 -1112h8l897 1011l12 101h-139l6 49h330l-6 -49h-138l-159 -1299h137l-4 -49h-332l4 49h143l138 1118h-6l-900 -1013l-14 -105h143l-4 -49h-329zM543 1706l47 27q35 -68 87 -112t118 -44q51 0 117.5 32.5 t156.5 114.5l23 -18q-86 -100 -164.5 -140t-141.5 -40q-86 0 -148.5 53t-94.5 127z" />
<glyph unicode="&#x41a;" horiz-adv-x="1085" d="M31 0l4 49h123l159 1301h-122l6 49h301l-6 -49h-127l-160 -1301h127l-4 -49h-301zM360 731l5 23l571 620q29 37 70 37q23 0 49 -5t55 -17l-6 -31l-137 -15l-555 -600l458 -694l142 -14l2 -31q-31 -12 -61.5 -17t-53.5 -5q-29 0 -43 9t-27 27z" />
<glyph unicode="&#x41b;" horiz-adv-x="1196" d="M-35 0q129 39 209 128t128 225t76 316.5t56 401.5l33 277h-131l6 49h893l-6 -49h-127l-160 -1299h127l-4 -49h-305l4 49h125l160 1299h-533l-37 -299q-25 -211 -54.5 -394.5t-81.5 -326t-139 -237.5t-229 -130z" />
<glyph unicode="&#x41c;" horiz-adv-x="1595" d="M29 0l4 49h121l159 1299h-120l6 49h178l319 -1008l68 -219h6l121 221l565 1006h178l-6 -49h-125l-160 -1299h125l-4 -49h-307l4 49h131l150 1213h-8l-105 -189l-541 -956h-61l-315 991l-50 162h-6l-151 -1221h131l-4 -49h-303z" />
<glyph unicode="&#x41d;" horiz-adv-x="1265" d="M29 0l4 49h123l159 1299h-122l6 49h301l-6 -49h-127l-72 -584h752l71 584h-125l6 49h306l-7 -49h-127l-159 -1299h127l-4 -49h-306l5 49h124l82 666h-751l-82 -666h127l-4 -49h-301z" />
<glyph unicode="&#x41e;" horiz-adv-x="1247" d="M125 514q0 164 30.5 325.5t103.5 289.5t191.5 208t294.5 80q131 0 217.5 -44t137.5 -119.5t70.5 -176t19.5 -213.5q0 -182 -38 -340.5t-113.5 -277.5t-188.5 -188.5t-260 -71.5q-129 0 -218 35.5t-143.5 103.5t-79 166t-24.5 223zM176 518q0 -238 93 -361.5t306 -123.5 q147 0 254 69.5t175.5 184t100.5 262t32 305.5q0 96 -16.5 188.5t-59.5 165t-119 116.5t-197 44q-170 0 -279.5 -80t-174 -205t-90 -274.5t-25.5 -290.5z" />
<glyph unicode="&#x41f;" horiz-adv-x="1265" d="M29 0l4 49h123l159 1299h-129l7 49h1112l-7 -49h-127l-159 -1299h127l-4 -49h-306l5 49h124l160 1299h-751l-160 -1299h127l-4 -49h-301z" />
<glyph unicode="&#x420;" horiz-adv-x="1026" d="M29 0l4 49h125l159 1299h-124l6 49h495q72 0 137.5 -19.5t114.5 -60.5t79 -102.5t30 -147.5q0 -84 -20.5 -165t-72 -146.5t-136.5 -105.5t-214 -40h-331l-70 -561h170l-4 -49h-348zM287 659h334q68 0 135 17.5t122.5 62.5t90.5 122t35 196q0 74 -25 128t-67 91t-97 54.5 t-117 17.5h-327z" />
<glyph unicode="&#x421;" horiz-adv-x="1060" d="M129 530q0 78 9 173.5t33 193.5t68 192.5t112.5 167t166.5 116.5t232 44q104 0 194 -15.5t139 -35.5l-30 -260h-47l26 223q-49 14 -130 26.5t-152 12.5q-150 0 -257.5 -63.5t-177 -177t-102.5 -271.5t-33 -348q0 -96 15.5 -181t58.5 -150.5t122 -103.5t206 -38 q27 0 67.5 3t87.5 8t96.5 13.5t90.5 20.5l10 -41q-35 -12 -80 -21.5t-94 -16.5t-98.5 -11t-90.5 -4q-127 0 -211 36.5t-136 107.5t-73.5 171t-21.5 229z" />
<glyph unicode="&#x422;" horiz-adv-x="995" d="M125 1145l31 252h919l-28 -252h-52l25 203h-383l-160 -1299h172l-4 -49h-389l4 49h166l160 1299h-387l-25 -203h-49z" />
<glyph unicode="&#x423;" horiz-adv-x="1050" d="M102 16l21 52q35 -10 72.5 -17.5t70.5 -7.5q66 0 110 39t87 127l63 129h-26l-262 1010h-113l6 51h309l-6 -51h-139l164 -656l80 -309h6l135 289l309 676h-137l6 51h291l-6 -51h-101l-532 -1160q-45 -98 -104.5 -148t-126.5 -50q-25 0 -67 4t-110 22z" />
<glyph unicode="&#x424;" horiz-adv-x="1495" d="M125 651q0 102 37 207t122 191t220 142t332 62l12 95h-129l6 47h307l-6 -47h-129l-12 -95q158 -6 265 -48t173 -107.5t94.5 -149.5t28.5 -172q0 -117 -48 -222t-138.5 -185t-218.5 -128t-285 -51l-19 -141h129l-4 -49h-305l4 49h127l19 141q-158 6 -268.5 41t-180.5 95.5 t-101.5 142.5t-31.5 182zM176 651q0 -199 131 -300t406 -113l116 968q-170 -6 -293.5 -55t-203.5 -126t-118 -174t-38 -200zM762 238q145 2 263 47t200 116.5t126 166t44 198.5q0 76 -23.5 152.5t-82 138t-159 102.5t-251.5 47z" />
<glyph unicode="&#x425;" horiz-adv-x="1138" d="M-20 0l4 49h122l474 672l-291 627h-125l6 49h326l-7 -49h-145l268 -578l404 578h-168l6 49h344l-6 -49h-119l-438 -627l309 -672h135l-4 -49h-340l4 49h150l-289 625l-438 -625h180l-4 -49h-358z" />
<glyph unicode="&#x426;" horiz-adv-x="1265" d="M29 0l4 49h123l159 1299h-122l6 49h301l-6 -49h-127l-160 -1299h751l160 1299h-125l6 49h306l-7 -49h-127l-159 -1299h155l-43 -364h-53l37 315h-1079z" />
<glyph unicode="&#x427;" horiz-adv-x="1185" d="M143 1348l7 49h301l-7 -49h-122l-56 -455q-8 -61 0 -111.5t37 -86.5t81 -55t134 -19q84 0 196.5 16t231.5 70l78 641h-125l6 49h305l-6 -49h-129l-160 -1299h132l-5 -49h-311l4 49h129l76 606q-70 -29 -137.5 -45t-124.5 -25.5t-102.5 -12.5t-67.5 -3q-102 0 -162.5 30 t-91.5 74t-39 96t-2 97l59 482h-129z" />
<glyph unicode="&#x428;" horiz-adv-x="1755" d="M29 0l4 49h123l159 1299h-122l6 49h301l-6 -49h-127l-160 -1299h602l160 1299h-123l6 49h301l-6 -49h-127l-160 -1299h588l160 1299h-125l6 49h307l-6 -49h-127l-160 -1299h127l-4 -49h-1597z" />
<glyph unicode="&#x429;" horiz-adv-x="1755" d="M29 0l4 49h123l159 1299h-122l6 49h301l-6 -49h-127l-160 -1299h602l160 1299h-123l6 49h301l-6 -49h-127l-160 -1299h588l160 1299h-125l6 49h307l-6 -49h-127l-160 -1299h152l-43 -364h-56l39 315h-1566z" />
<glyph unicode="&#x42a;" horiz-adv-x="1374" d="M125 1139l33 258h633l-7 -49h-147l-68 -562h389q100 0 168 -30.5t107 -78.5t55.5 -107.5t16.5 -116.5q0 -113 -34 -198t-92.5 -141.5t-135 -85t-162.5 -28.5h-584l4 49h123l160 1299h-383l-27 -209h-49zM477 49h418q72 0 136.5 24.5t113.5 74t77.5 124t28.5 174.5 q0 86 -26.5 142.5t-69.5 89.5t-96 46t-105 13h-391z" />
<glyph unicode="&#x42b;" horiz-adv-x="1511" d="M47 0l4 49h123l160 1299h-141l6 49h342l-6 -49h-148l-68 -562h390q100 0 167.5 -30.5t106.5 -78.5t55.5 -107.5t16.5 -116.5q0 -113 -34 -198t-92.5 -141.5t-135 -85t-162.5 -28.5h-584zM227 49h418q72 0 136.5 24.5t113.5 74t77.5 124t28.5 174.5q0 86 -26.5 142.5 t-69.5 89.5t-96 46t-104 13h-392zM1079 0l4 49h123l160 1299h-123l6 49h301l-6 -49h-127l-160 -1299h127l-4 -49h-301z" />
<glyph unicode="&#x42c;" horiz-adv-x="1128" d="M45 0l4 49h123l160 1299h-142l7 49h342l-7 -49h-147l-68 -562h390q100 0 167.5 -30.5t106.5 -78.5t55.5 -107.5t16.5 -116.5q0 -113 -34 -198t-92.5 -141.5t-135 -85t-162.5 -28.5h-584zM225 49h418q72 0 136.5 24.5t113.5 74t77.5 124t28.5 174.5q0 86 -26.5 142.5 t-69.5 89.5t-96 46t-105 13h-391z" />
<glyph unicode="&#x42d;" horiz-adv-x="1056" d="M16 39l19 45q102 -35 190 -43t142 -8q156 0 260 65.5t170.5 167t99.5 222t43 229.5l-588 -8l8 67l584 -16q6 63 6 125q0 111 -24.5 200t-74.5 152t-129 97t-187 34q-72 0 -151 -9t-132 -26l-27 -223h-49l31 260q55 20 148.5 33.5t187.5 13.5q141 0 230 -49t140.5 -128 t69.5 -178t18 -202q0 -174 -38.5 -332.5t-116.5 -278.5t-197 -191.5t-278 -71.5q-117 0 -205 15t-150 38z" />
<glyph unicode="&#x42e;" horiz-adv-x="1679" d="M29 0l4 49h123l159 1299h-122l6 49h301l-6 -49h-127l-72 -584h317q18 129 59.5 247.5t112 209t174 143.5t248.5 53q123 0 203 -42t127 -113.5t66.5 -167t19.5 -203.5q0 -178 -34 -342t-106.5 -289t-184 -199.5t-265.5 -74.5q-127 0 -211 35.5t-136 103.5t-73.5 165 t-21.5 220q0 47 4 98t10 105h-315l-82 -664h127l-4 -49h-301zM643 522q0 -240 86 -364.5t295 -124.5q150 0 254 73.5t168.5 191.5t93.5 266.5t29 297.5q0 94 -14.5 186.5t-54.5 163t-111.5 114.5t-188.5 44q-168 0 -274.5 -79t-169 -201.5t-87 -273t-26.5 -294.5z" />
<glyph unicode="&#x42f;" horiz-adv-x="1140" d="M-20 8l6 33h145l367 616q-80 12 -131.5 44t-81 76t-41 96.5t-11.5 103.5q0 117 39 196.5t101.5 130t142.5 72t162 21.5h504l-6 -49h-125l-160 -1299h139l-4 -49h-348l4 49h156l75 602h-364l-367 -618q-12 -23 -27.5 -35t-43.5 -12q-16 0 -57.5 5t-73.5 17zM285 977 q0 -84 25.5 -137.5t67.5 -84t93 -43t104 -12.5h343l79 648h-335q-72 0 -140.5 -20.5t-121 -65.5t-84 -115t-31.5 -170z" />
<glyph unicode="&#x430;" horiz-adv-x="991" d="M82 319q0 137 28.5 260t88 215.5t147.5 146.5t209 54q57 0 126 -11t146 -42l25 53h29q-18 -123 -39 -257t-39.5 -262t-31.5 -241.5t-19 -193.5q47 6 92 25.5t84 48.5l22 -25q-53 -53 -109.5 -79.5t-95.5 -26.5q-27 0 -36 11t-9 34q0 14 3.5 53t9.5 91t14 110.5t18 113.5 h-6q-47 -125 -102 -204.5t-112.5 -126t-113 -63.5t-100.5 -17q-100 0 -164.5 80.5t-64.5 252.5zM133 332q0 -158 48 -230.5t138 -72.5q53 0 114 28.5t120 95t114.5 173t100.5 260.5q12 78 24.5 157.5t26.5 153.5q-86 35 -153.5 46t-112.5 11q-125 0 -206 -64.5t-129 -159.5 t-66.5 -202.5t-18.5 -195.5z" />
<glyph unicode="&#x431;" horiz-adv-x="935" d="M82 330q0 47 6 111.5t15.5 136t22.5 144.5t26 136q18 90 44.5 179t67.5 166t100.5 134.5t145.5 85.5q33 10 75 16.5t89 10.5t96 8t96 10l8 -43q-72 -12 -126 -15t-111 -7q-100 -10 -173 -50t-127 -117t-91 -192.5t-68 -277.5q-4 -23 -11 -58.5t-11 -58.5l8 -2 q49 100 107.5 161.5t114.5 93.5t106.5 42t85.5 10q57 0 110 -18t93 -59t63.5 -104.5t23.5 -154.5q0 -96 -22.5 -207.5t-76.5 -206.5t-144 -158.5t-224 -63.5q-92 0 -153.5 25.5t-98 71.5t-52 109.5t-15.5 141.5zM127 342q-2 -66 9 -124t42 -102t83 -70t136 -26 q98 0 177 45.5t134.5 125t85 189t29.5 238.5q0 80 -20.5 135.5t-55 90.5t-83 51t-105.5 16q-33 0 -83 -15t-107.5 -56t-115.5 -117t-108 -195q-6 -39 -11 -85t-7 -101z" />
<glyph unicode="&#x432;" horiz-adv-x="905" d="M74 49l65 555q8 78 27.5 151.5t60.5 131t110 92.5t177 35q76 0 126 -22.5t81 -55.5t43 -71t12 -68q0 -96 -43 -150.5t-110 -83.5l2 -4q88 -16 132 -75.5t44 -133.5q0 -92 -31 -160.5t-84 -113.5t-122.5 -67.5t-145.5 -22.5q-82 0 -175 13t-165 44zM123 72 q61 -23 127.5 -35t167.5 -12q55 0 114.5 15t108.5 52t81 97.5t32 150.5t-54.5 138t-177.5 48h-182l4 45h90q135 0 215 57.5t80 155.5q0 76 -55.5 130.5t-167.5 54.5q-92 0 -152.5 -35t-96.5 -87t-51.5 -113.5t-21.5 -117.5z" />
<glyph unicode="&#x433;" horiz-adv-x="770" d="M68 203q2 66 29.5 118t71.5 93t100.5 72.5t115.5 58.5q61 27 115.5 56.5t95.5 62t65.5 69.5t24.5 80q0 47 -19.5 77t-49 45t-66.5 20.5t-72 5.5q-74 0 -140.5 -21.5t-143.5 -56.5l-19 37q70 39 152 63.5t168 24.5q49 0 92 -11.5t75.5 -33t52 -56.5t19.5 -80 q0 -53 -23.5 -97t-68.5 -84t-112.5 -77t-155.5 -77q-49 -23 -96.5 -52.5t-84 -64.5t-59 -78t-22.5 -94q0 -49 19.5 -82t52 -53.5t75.5 -28.5t92 -8q88 0 171 27.5t149 64.5l20 -37q-94 -53 -179 -76.5t-165 -23.5q-59 0 -110.5 12t-89 37.5t-59 67t-21.5 100.5z" />
<glyph unicode="&#x434;" horiz-adv-x="968" d="M82 383q0 94 26.5 199.5t82 193.5t141.5 146.5t207 58.5q80 0 164.5 -27.5t148.5 -70.5h8q-2 111 -18.5 210t-55 173.5t-104.5 119t-164 44.5q-49 0 -106.5 -8.5t-147.5 -35.5l-12 41q72 27 137.5 38.5t124.5 11.5q76 0 147.5 -29t125 -94.5t86 -171t32.5 -258.5 q0 -27 -2 -79t-9 -120t-20.5 -146.5t-33.5 -160.5q-16 -61 -46 -137t-81 -141.5t-123 -109.5t-170 -44q-102 0 -168 31.5t-103.5 87t-52 127t-14.5 151.5zM131 358q0 -57 11.5 -115.5t43 -106.5t89 -77.5t149.5 -29.5q86 0 150.5 42t111.5 109.5t77 152.5t49 174t28.5 173 t15.5 147q-86 59 -165 84t-159 25q-98 0 -172.5 -48t-126 -129t-77 -185.5t-25.5 -215.5z" />
<glyph unicode="&#x435;" horiz-adv-x="823" d="M82 360q0 92 22.5 205t77 210t145.5 164t228 67q68 0 115 -19.5t76.5 -50.5t43 -70t13.5 -78q0 -102 -56.5 -169.5t-149.5 -109.5t-214 -62.5t-248 -28.5q-4 -27 -4 -43.5v-30.5q0 -53 11.5 -108.5t41 -101.5t82.5 -75.5t137 -29.5q147 0 295 67l17 -37 q-132 -71 -318 -71q-94 0 -155.5 29.5t-96 81t-49 119t-14.5 142.5zM137 465q289 14 452 89t163 224q0 82 -50.5 132.5t-154.5 50.5q-90 0 -162 -42t-124 -112t-84 -159t-40 -183z" />
<glyph unicode="&#x436;" horiz-adv-x="1335" d="M6 102l27 21q25 -25 56.5 -50.5t78.5 -41.5q51 33 166 171t268 349q-31 88 -76 159.5t-95 123t-103.5 79t-102.5 27.5q-25 0 -51.5 -4t-60.5 -18l-21 22q23 31 52.5 50.5t76.5 19.5q57 0 122 -42t123 -108.5t105 -146.5t70 -156l-4 -25q-35 -49 -76 -105t-81 -109.5 t-76.5 -102.5t-67.5 -84q-47 -53 -77 -85t-49.5 -47t-32.5 -19.5t-27 -4.5q-37 0 -74 37t-70 90zM557 950l2 35q57 10 97 14.5t77 4.5q29 0 36 -10.5t7 -26.5q0 -10 -4 -47t-11 -92.5t-16.5 -127t-19.5 -149.5q-8 -68 -17.5 -143.5t-17.5 -149.5t-16 -141.5t-15 -116.5h-49 l115 938zM758 543l2 22q45 84 105.5 165t127 143.5t132 100.5t120.5 38q47 0 72.5 -18.5t38.5 -47.5l-25 -22q-31 14 -57.5 18t-50.5 4q-92 0 -204 -101.5t-218 -289.5q37 -78 88 -163t100 -159.5t89 -128t59 -65.5q51 16 82.5 36.5t62.5 45.5l23 -21q-41 -53 -84 -85.5 t-74 -32.5q-12 0 -22.5 3t-26 17t-38 41t-56.5 76q-29 41 -61 93t-63.5 108.5t-63.5 112.5t-58 110z" />
<glyph unicode="&#x437;" horiz-adv-x="778" d="M10 39l19 39q59 -23 125.5 -37t138.5 -14q70 0 132 19.5t109.5 55t75 88t27.5 117.5q0 100 -76 157.5t-213 57.5h-129l4 43h119q76 0 135.5 19.5t99 50.5t61 69.5t21.5 79.5q0 88 -68.5 133.5t-178.5 45.5q-47 0 -109.5 -10.5t-128.5 -34.5l-22 -197h-31q-4 41 -8 89 t-4 73q0 43 13 55t32 20q61 25 127.5 37.5t128.5 12.5q129 0 213 -55.5t84 -159.5q0 -86 -58.5 -152t-152.5 -92v-4q78 -18 133 -76.5t55 -157.5q0 -68 -28.5 -127t-80 -103t-125 -69.5t-161.5 -25.5q-55 0 -130 11t-149 42z" />
<glyph unicode="&#x438;" horiz-adv-x="1032" d="M70 950l2 35q57 10 100 14.5t90 4.5q23 0 33 -10.5t8 -26.5q-2 -18 -9 -80t-15.5 -142.5t-18.5 -172t-18.5 -171t-13.5 -137t-5 -71.5q0 -78 24.5 -121t102.5 -43q49 0 108.5 28.5t122 94t123 170t109.5 258.5l51 411h45q-23 -170 -41 -343t-37 -329l-32 -286 q47 4 92 18.5t84 32.5l16 -27q-51 -41 -101 -58t-83 -17q-47 0 -53 23.5t-2 64.5q10 92 21 175t20 148h-5q-47 -104 -102 -181t-113.5 -127t-117 -75.5t-109.5 -25.5q-96 0 -134 51t-38 137q0 20 4 72.5t11.5 123t15.5 152.5t16 160t16.5 146.5t14.5 111.5z" />
<glyph unicode="&#x439;" horiz-adv-x="1032" d="M70 950l2 35q57 10 100 14.5t90 4.5q23 0 33 -10.5t8 -26.5q-2 -18 -9 -80t-15.5 -142.5t-18.5 -172t-18.5 -171t-13.5 -137t-5 -71.5q0 -78 24.5 -121t102.5 -43q49 0 108.5 28.5t122 94t123 170t109.5 258.5l51 411h45q-23 -170 -41 -343t-37 -329l-32 -286 q47 4 92 18.5t84 32.5l16 -27q-51 -41 -101 -58t-83 -17q-47 0 -53 23.5t-2 64.5q10 92 21 175t20 148h-5q-47 -104 -102 -181t-113.5 -127t-117 -75.5t-109.5 -25.5q-96 0 -134 51t-38 137q0 20 4 72.5t11.5 123t15.5 152.5t16 160t16.5 146.5t14.5 111.5zM319 1300l48 27 q37 -72 92 -118t123 -46q55 0 124.5 31t165.5 125l21 -16q-92 -109 -173 -150t-149 -41q-86 0 -151.5 55.5t-100.5 132.5z" />
<glyph unicode="&#x43a;" horiz-adv-x="884" d="M70 950l2 35q57 10 100 14.5t90 4.5q29 0 36 -10.5t7 -26.5q0 -10 -4 -47l-10 -92.5t-14.5 -127t-18.5 -149.5l-70 -551h-49l115 938zM283 541l2 24q45 84 109.5 165t134 143.5t138.5 100.5t124 38q90 0 108 -74l-25 -23q-31 14 -57 18.5t-51 4.5q-92 0 -213 -98.5 t-227 -284.5q37 -78 91 -163t107.5 -157.5t97.5 -126t62 -65.5q51 16 88 42t68 50l22 -20q-39 -51 -86 -92t-90 -41q-14 0 -26.5 5t-29 22.5t-40 48t-60.5 81.5q-59 84 -125.5 190.5t-121.5 211.5z" />
<glyph unicode="&#x43b;" horiz-adv-x="931" d="M20 0l535 989l37 17l14 -7l121 -954q41 4 79 20.5t71 34.5l18 -26q-55 -47 -97 -65.5t-69 -18.5t-37 9t-14 30q-4 33 -15.5 123t-26.5 213.5t-32.5 267t-32.5 282.5h-8l-477 -913l-59 -10z" />
<glyph unicode="&#x43c;" horiz-adv-x="1226" d="M20 -2q41 115 89.5 251t97.5 271t97 259t87 214l45 13l6 -5q8 -119 24.5 -245.5t35 -244.5t37 -217t30.5 -163h6q43 100 93.5 218t101.5 233.5t98 222t86 188.5l35 13l15 -7q2 -246 6 -485.5t18 -468.5q41 4 79 20.5t71 34.5l18 -26q-55 -47 -97 -65.5t-69 -18.5t-37 9 t-14 30q-4 23 -6 76t-5 127.5t-4 164.5t-1 189v167t4 165h-6q-47 -111 -91.5 -211.5t-88.5 -200.5t-90 -208t-97 -232l-39 -13l-14 4q-14 76 -34 176.5t-38 214t-34.5 233.5t-26.5 232l-11 -2q-41 -111 -75.5 -209t-71.5 -203.5t-77 -225t-89 -273.5l-57 -6z" />
<glyph unicode="&#x43d;" horiz-adv-x="1062" d="M72 950l2 35q57 10 100 14.5t90 4.5q29 0 36 -10.5t7 -26.5q0 -10 -4 -47l-10 -92.5t-14.5 -127t-18.5 -149.5h580l57 444h49q-8 -68 -23.5 -191.5t-33 -265t-34.5 -277.5t-26 -228q47 4 92.5 18.5t84.5 32.5l16 -27q-51 -41 -101.5 -58t-82.5 -17q-35 0 -46.5 13 t-11.5 40q0 6 4 47t11.5 105.5t17.5 145.5t21 169h-580l-64 -502h-49l115 938z" />
<glyph unicode="&#x43e;" horiz-adv-x="913" d="M82 375q0 100 21.5 211.5t72.5 205t138 154t216 60.5q92 0 152.5 -33t95.5 -88.5t49.5 -128t14.5 -150.5q0 -63 -8.5 -134t-27 -140.5t-50 -132t-80.5 -109.5t-116.5 -75.5t-156.5 -28.5q-96 0 -158.5 30.5t-98 84t-50 124t-14.5 150.5zM129 358q0 -68 11.5 -128t43 -104 t87 -70.5t143.5 -26.5q82 0 141 28.5t102 75.5t70 107.5t42 125t20.5 128t5.5 114.5q0 66 -11.5 129.5t-40 113.5t-81 81t-134.5 31q-121 0 -198.5 -59.5t-121.5 -150.5t-61.5 -196.5t-17.5 -198.5z" />
<glyph unicode="&#x43f;" horiz-adv-x="1032" d="M70 950l2 35q57 10 100 14.5t90 4.5q23 0 33 -10.5t8 -26.5q-2 -20 -7 -60.5t-11 -91.5t-13.5 -107.5t-13.5 -109.5h4q45 104 100.5 181t114 127t116.5 76t112 26q96 0 131.5 -55.5t35.5 -133.5q0 -25 -2 -67.5t-9 -127.5t-22.5 -226.5t-39.5 -364.5q47 4 92 18.5 t84 32.5l16 -27q-51 -41 -101 -58t-83 -17q-47 0 -53 23.5t-2 64.5q25 205 38 339t21 216t10 120.5t2 53.5q0 70 -23.5 117t-99.5 47q-49 0 -108.5 -29t-121.5 -94.5t-122.5 -170t-109.5 -257.5l-52 -412h-45q14 123 29.5 252t30 252t28 233.5t25.5 200.5z" />
<glyph unicode="&#x440;" horiz-adv-x="980" d="M-68 -436l7 45h149q18 147 38.5 314t42 340t43 345t40.5 330l-182 12l2 35q57 10 100 14.5t90 4.5q23 0 33 -10.5t8 -26.5q-2 -20 -7 -61.5t-12.5 -93.5t-14.5 -109.5t-13 -110.5h6q47 125 102.5 205t113 126t111.5 63.5t101 17.5q100 0 165 -81t65 -253q0 -137 -29 -260 t-88.5 -215.5t-148.5 -146.5t-208 -54q-57 0 -121.5 12t-138.5 41l-49 -438h174l-6 -45h-373zM190 96q86 -35 149.5 -48t109.5 -13q125 0 205.5 64.5t128.5 159.5t66.5 202.5t18.5 195.5q0 158 -48 231t-138 73q-53 0 -111.5 -29t-117 -93.5t-114.5 -172t-108 -263.5 q-6 -39 -12 -80.5t-11 -82.5t-9 -79t-9 -65z" />
<glyph unicode="&#x441;" horiz-adv-x="829" d="M82 342q0 51 7 120.5t27.5 143.5t55.5 145.5t88 128t128 91.5t177 35q63 0 124 -9.5t93 -25.5q18 -8 23.5 -18.5t1.5 -26.5q-2 -14 -12.5 -71.5t-26.5 -115.5h-29l9 193q-53 18 -104.5 23.5t-90.5 5.5q-106 0 -186 -52.5t-132.5 -139.5t-79 -199.5t-26.5 -233.5 q0 -55 11.5 -109.5t41 -97.5t80.5 -70.5t129 -27.5q72 0 154 16t149 47l17 -35q-59 -33 -144.5 -52t-171.5 -19t-145.5 25.5t-96 72.5t-54 111.5t-17.5 144.5z" />
<glyph unicode="&#x442;" horiz-adv-x="1589" d="M70 950l2 35q57 10 100 14.5t90 4.5q23 0 33 -10.5t8 -26.5q-2 -20 -7 -60.5t-11 -91.5t-13.5 -107.5t-13.5 -109.5h4q92 209 205 309.5t217 100.5q96 0 132 -55.5t36 -133.5q0 -29 -2 -76t-12 -145h2q92 209 204.5 309.5t217.5 100.5q96 0 132 -55.5t36 -133.5 q0 -25 -2.5 -67.5t-9.5 -127.5t-22.5 -226.5t-39.5 -364.5q47 4 92 18.5t84 32.5l16 -27q-51 -41 -101 -58t-83 -17q-47 0 -53 23.5t-2 64.5q25 205 38 339t21 216t10 120.5t2 53.5q0 70 -23.5 117t-99.5 47q-49 0 -104 -29t-113.5 -94.5t-115 -170t-105.5 -257.5l-16 -144 l-31 -268h-51q6 43 14 111.5t17.5 147.5t18.5 163t16.5 157.5t11.5 132t4 87.5q0 70 -23.5 117t-99.5 47q-49 0 -105.5 -29t-115 -94.5t-115.5 -170t-106 -257.5l-52 -412h-45q14 123 29.5 252t30 252t28 233.5t25.5 200.5z" />
<glyph unicode="&#x443;" horiz-adv-x="925" d="M-246 -385q0 8 4 25l25 8q33 -43 72 -53.5t55 -10.5q123 0 239.5 72t243.5 231l-192 1057l-160 -49l-12 29q39 29 87 57.5t79 28.5q23 0 37 -11.5t18 -40.5l180 -1026h6q66 92 130.5 218t114.5 264.5t82 276.5t32 255l-164 -47l-13 27q51 43 98.5 61.5t65.5 18.5 q31 0 46.5 -13.5t15.5 -48.5q0 -106 -33 -249.5t-88 -294t-128 -292t-153 -239.5q-61 -76 -128.5 -139.5t-140.5 -109.5t-145.5 -71.5t-142.5 -25.5q-61 0 -96 25.5t-35 66.5z" />
<glyph unicode="&#x444;" horiz-adv-x="1204" d="M82 395q0 119 31.5 225.5t100.5 188.5t177.5 133t259.5 59h2q14 131 27.5 239t19.5 171l-184 12l2 35q57 10 100.5 14.5t90.5 4.5q25 0 34 -10.5t9 -26.5q0 -8 -4.5 -46t-10.5 -96.5t-15 -134.5t-20 -162q119 -4 203 -34.5t135.5 -86t75 -130t23.5 -164.5 q0 -117 -32 -223.5t-99.5 -187.5t-174 -132t-258.5 -57l-45 -359h150l-6 -45h-348l6 45h149l45 359q-129 6 -215 38.5t-136 86t-71.5 126t-21.5 158.5zM125 381q0 -74 19.5 -136.5t66.5 -108.5t125 -73.5t194 -33.5l115 929q-143 -8 -242.5 -57t-161 -127t-89 -179 t-27.5 -214zM580 29q160 8 260 65.5t156.5 138t77 176t20.5 181.5q0 76 -17.5 141.5t-62.5 114.5t-123 79.5t-197 35.5z" />
<glyph unicode="&#x445;" horiz-adv-x="851" d="M41 8v6l360 490l-172 442l-174 -55l-12 29q37 31 90 58.5t84 27.5q23 0 36 -6.5t26 -38.5l159 -414l314 459l4 2l47 -31l2 -4l-352 -471l190 -461q43 16 88 40.5t78 51.5l22 -20q-49 -61 -101 -95t-81 -34q-31 0 -40 13t-15 30l-176 434l-324 -479l-8 -2z" />
<glyph unicode="&#x446;" horiz-adv-x="1032" d="M70 950l2 35q57 10 100 14.5t90 4.5q23 0 33 -10.5t8 -26.5q-2 -18 -9 -80t-15.5 -142.5t-18.5 -172t-18.5 -171t-13.5 -137t-5 -71.5q0 -78 24.5 -121t102.5 -43q49 0 108.5 28.5t122 94t123 170t109.5 258.5l51 411h45q-23 -170 -41 -343t-37 -329l-32 -286 q94 6 180 55l25 -20q-18 -55 -34 -104.5t-31 -96.5t-30.5 -96.5t-31.5 -106.5h-46l-6 10q29 94 58.5 180.5t64.5 174.5l-4 2q-35 -29 -79 -39t-58 -10q-47 0 -53 23.5t-2 64.5q10 92 21 175t20 148h-5q-47 -104 -102 -181t-113.5 -127t-117 -75.5t-109.5 -25.5 q-96 0 -134 51t-38 137q0 20 4 72.5t11.5 123t15.5 152.5t16 160t16.5 146.5t14.5 111.5z" />
<glyph unicode="&#x447;" horiz-adv-x="974" d="M41 950l2 35q57 10 100 14.5t90 4.5q23 0 33 -10.5t8 -26.5q-4 -29 -10 -86.5t-14 -119t-13.5 -115.5t-5.5 -75q0 -78 25 -121.5t102 -43.5q53 0 117 32.5t124 91t111.5 139.5t80.5 177l20 145h45q-14 -117 -27.5 -231.5t-27 -231t-28.5 -239.5t-32 -256q47 4 92.5 18.5 t84.5 32.5l16 -27q-51 -41 -101.5 -59t-82.5 -18q-43 0 -51.5 20t-4.5 43l80 645h-4q-41 -70 -90 -129t-102.5 -103t-111 -69t-112.5 -25q-96 0 -134 51.5t-38 137.5q0 61 12.5 158.5t28.5 228.5z" />
<glyph unicode="&#x448;" horiz-adv-x="1589" d="M70 950l2 35q57 10 100 14.5t90 4.5q23 0 33 -10.5t8 -26.5q-4 -23 -13 -102t-20 -181q-14 -133 -22 -222t-13.5 -145.5t-6.5 -84t-1 -39.5q0 -35 5.5 -65t18.5 -52.5t36.5 -34.5t62.5 -12q49 0 104.5 28.5t114 94t114.5 170t105 258.5l17 143l31 268h51 q-6 -43 -14.5 -111.5t-17.5 -147.5t-18.5 -163t-16.5 -157.5t-11 -132t-4 -86.5q0 -35 5 -65t18.5 -52.5t37 -34.5t62.5 -12q49 0 105.5 28.5t114.5 94t115.5 170t106.5 258.5l51 411h45q-23 -170 -42 -343t-38 -329l-32 -286q47 4 93 18.5t85 32.5l16 -27q-51 -41 -101 -58 t-83 -17q-47 0 -53 23.5t-2 64.5q10 92 20 173t21 150h-4q-92 -209 -205 -309t-217 -100q-96 0 -132 55t-36 133q0 29 2 76t12 145h-2q-92 -209 -204.5 -309t-217.5 -100q-51 0 -84 14t-51 39.5t-25.5 60.5t-7.5 74q0 29 4 86t10.5 130t14.5 154t16 155.5t15.5 138 t13.5 102.5z" />
<glyph unicode="&#x449;" horiz-adv-x="1589" d="M70 950l2 35q57 10 100 14.5t90 4.5q23 0 33 -10.5t8 -26.5q-4 -23 -13 -102t-20 -181q-14 -133 -22 -222t-13.5 -145.5t-6.5 -84t-1 -39.5q0 -35 5.5 -65t18.5 -52.5t36.5 -34.5t62.5 -12q49 0 104.5 28.5t114 94t114.5 170t105 258.5l17 143l31 268h51 q-6 -43 -14.5 -111.5t-17.5 -147.5t-18.5 -163t-16.5 -157.5t-11 -132t-4 -86.5q0 -35 5 -65t18.5 -52.5t37 -34.5t62.5 -12q49 0 105.5 28.5t114.5 94t115.5 170t106.5 258.5l51 411h45q-23 -170 -41 -343t-36 -329q-6 -59 -15.5 -131.5t-17.5 -154.5q94 6 180 55l25 -20 q-18 -55 -34 -104.5t-31 -96.5t-30.5 -96.5t-31.5 -106.5h-45l-7 10q29 94 58.5 180.5t64.5 174.5l-4 2q-35 -29 -79 -39t-58 -10q-47 0 -53 23.5t-2 64.5q10 92 21 175t20 148h-4q-92 -209 -205 -309t-217 -100q-96 0 -132 55t-36 133q0 29 2 76t12 145h-2 q-92 -209 -204.5 -309t-217.5 -100q-51 0 -84 14t-51 39.5t-25.5 60.5t-7.5 74q0 29 4 86t10.5 130t14.5 154t16 155.5t15.5 138t13.5 102.5z" />
<glyph unicode="&#x44a;" horiz-adv-x="999" d="M20 762q18 82 29.5 128t25 68.5t32 27.5t49.5 5q33 0 73.5 -2t85.5 -3t89.5 -3t80.5 -2h50l14 -37q-33 -31 -75 -91t-82 -131t-71.5 -139.5t-39.5 -113.5h4q104 141 213.5 213t206.5 72q106 0 163.5 -64.5t57.5 -185.5q0 -55 -20.5 -142.5t-72 -171.5t-138.5 -144 t-220 -60q-80 0 -132 23.5t-83 60t-43 84t-12 96.5q0 90 21.5 181t60.5 179t89 172t109 158l-346 -10l-86 -174zM252 231q0 -72 26.5 -112.5t64.5 -61t80 -25.5t71 -5q92 0 163.5 45t120.5 115.5t75 153.5t26 161q0 100 -45.5 154.5t-133.5 54.5q-45 0 -100 -23.5 t-113.5 -68t-116 -109t-108.5 -145.5q-8 -35 -9 -71t-1 -63z" />
<glyph unicode="&#x44b;" horiz-adv-x="1282" d="M70 950l2 35q57 10 100 14.5t90 4.5q43 0 43 -37q0 -8 -3 -39t-8 -76t-11.5 -98.5t-13.5 -106.5t-13 -100t-10 -78h4q55 80 112.5 135t111.5 88t103.5 47.5t86.5 14.5q104 0 163.5 -63.5t59.5 -186.5q0 -57 -20.5 -145.5t-71 -171.5t-136.5 -142t-217 -59q-57 0 -137 12 t-151 45l-4 6l104 889zM199 76q70 -27 141.5 -37t112.5 -10q98 0 169.5 45t120 114.5t72 153.5t23.5 160q0 98 -45.5 153.5t-137.5 55.5q-31 0 -81 -17.5t-108 -58.5t-118.5 -109.5t-114.5 -171.5zM999 35q0 8 6.5 62.5t17.5 137t23.5 185t25.5 206t24.5 201t19.5 168.5h49 q-4 -43 -13 -113.5t-19.5 -156.5t-22.5 -182.5t-23.5 -188.5t-21.5 -176t-16 -145q47 4 92 18.5t84 32.5l16 -27q-51 -41 -101 -58t-83 -17q-35 0 -46.5 13t-11.5 40z" />
<glyph unicode="&#x44c;" horiz-adv-x="923" d="M70 950l2 35q57 10 100 14.5t90 4.5q43 0 43 -37q0 -8 -3 -39t-8 -76t-11.5 -98.5t-13.5 -106.5t-13 -100t-10 -78h4q55 80 112.5 135t111.5 88t103.5 47.5t86.5 14.5q104 0 163.5 -63.5t59.5 -186.5q0 -57 -20.5 -145.5t-71 -171.5t-136.5 -142t-217 -59q-57 0 -137 12 t-151 45l-4 6l104 889zM199 76q70 -27 141.5 -37t112.5 -10q98 0 169.5 45t120 114.5t72 153.5t23.5 160q0 98 -45.5 153.5t-137.5 55.5q-31 0 -81 -17.5t-108 -58.5t-118.5 -109.5t-114.5 -171.5z" />
<glyph unicode="&#x44d;" horiz-adv-x="798" d="M10 51l23 39q51 -27 121.5 -43t156.5 -16t149.5 36.5t108.5 99t73 145.5t38 175l-447 -2l5 56l448 -11q2 20 3 39t1 37q0 72 -14 136.5t-51 113.5t-101.5 78t-163.5 29q-33 0 -78.5 -5.5t-84.5 -17.5l-39 -192h-29q-2 41 -3 77.5t1 71.5q2 43 11 57.5t34 24.5 q37 14 94.5 22.5t122.5 6.5q104 -2 172 -39t107 -93.5t54 -127t15 -140.5q0 -117 -23.5 -228.5t-75.5 -199.5t-135 -141t-200 -53q-78 0 -154.5 16t-138.5 49z" />
<glyph unicode="&#x44e;" horiz-adv-x="1253" d="M72 950l2 35q57 10 100 14.5t90 4.5q29 0 36 -10.5t7 -26.5q0 -10 -4 -47l-10 -92.5t-15.5 -127t-19.5 -149.5h188q16 86 47 168t81.5 145.5t122 102.5t169.5 39q94 0 154.5 -34t96.5 -90.5t50.5 -129t14.5 -148.5q0 -88 -18.5 -195.5t-66.5 -201.5t-133 -157.5 t-216 -63.5q-92 0 -154 29.5t-97.5 80.5t-51 119t-15.5 145q0 35 3 71t7 71h-188l-62 -502h-49l115 938zM477 348q0 -63 12.5 -120.5t44 -100.5t86 -68.5t138.5 -25.5q80 0 139 29.5t100 77.5t68 109.5t41 124t19 120t5 100.5q0 66 -10 132.5t-38.5 118.5t-80 85t-135.5 33 q-80 0 -139 -30t-103 -79t-72 -113.5t-45.5 -132t-23.5 -135t-6 -125.5z" />
<glyph unicode="&#x44f;" horiz-adv-x="894" d="M41 0l385 449q-154 18 -231.5 85.5t-77.5 167.5q0 80 29.5 138.5t79.5 96.5t117 55.5t138 17.5q31 0 67 -3t75 -7.5t75.5 -12.5t69.5 -16q-10 -90 -25.5 -221.5t-31 -266.5t-29.5 -257t-20 -193q47 4 92 18.5t84 32.5l16 -27q-51 -41 -101.5 -58t-82.5 -17 q-35 0 -46.5 13t-11.5 40q0 6 5.5 53t14.5 121t20.5 167t22.5 190.5t22.5 192.5t21.5 175q-27 8 -60.5 14t-68.5 11.5t-68 7.5t-55 2q-53 0 -107.5 -13.5t-97.5 -44t-70.5 -80t-27.5 -122.5q0 -59 22.5 -98.5t65.5 -66t103.5 -41t133.5 -22.5l7 -16q-98 -117 -190.5 -232.5 t-188.5 -232.5l-72 -8z" />
<glyph unicode="&#x451;" horiz-adv-x="823" d="M82 360q0 92 22.5 205t77 210t145.5 164t228 67q68 0 115 -19.5t76.5 -50.5t43 -70t13.5 -78q0 -102 -56.5 -169.5t-149.5 -109.5t-214 -62.5t-248 -28.5q-4 -27 -4 -43.5v-30.5q0 -53 11.5 -108.5t41 -101.5t82.5 -75.5t137 -29.5q147 0 295 67l17 -37 q-132 -71 -318 -71q-94 0 -155.5 29.5t-96 81t-49 119t-14.5 142.5zM137 465q289 14 452 89t163 224q0 82 -50.5 132.5t-154.5 50.5q-90 0 -162 -42t-124 -112t-84 -159t-40 -183zM373 1200q0 23 16 40t39 17q18 0 30.5 -12t12.5 -31q0 -25 -16.5 -42t-38.5 -17 q-18 0 -30.5 12.5t-12.5 32.5zM637 1200q0 23 16 40t39 17q18 0 30.5 -12t12.5 -31q0 -25 -16.5 -42t-38.5 -17q-18 0 -30.5 12.5t-12.5 32.5z" />
<glyph unicode="&#x452;" horiz-adv-x="872" d="M20 1395l3 35q57 10 100 14t90 4q41 0 41 -33q0 -10 -7 -64.5t-18 -146.5h367l-6 -45h-365l-69 -569h4q45 104 101 182t114.5 130t117 79t111.5 27q55 0 94 -28t64.5 -77t38 -115.5t12.5 -142.5q0 -174 -26.5 -313t-72.5 -236.5t-110.5 -149.5t-140.5 -52q-37 0 -81 15 t-79 56l23 27q35 -29 71.5 -43.5t71.5 -14.5q74 0 129 63.5t92 164t56.5 225.5t19.5 250q0 70 -10.5 129t-29.5 103t-51 69t-75 25q-49 0 -108.5 -29t-122 -94.5t-123 -170t-109.5 -257.5l-51 -412h-45l135 1159h-153l6 45h155l21 178z" />
<glyph unicode="&#x453;" horiz-adv-x="770" d="M68 203q2 66 29.5 118t71.5 93t100.5 72.5t115.5 58.5q61 27 115.5 56.5t95.5 62t65.5 69.5t24.5 80q0 47 -19.5 77t-49 45t-66.5 20.5t-72 5.5q-74 0 -140.5 -21.5t-143.5 -56.5l-19 37q70 39 152 63.5t168 24.5q49 0 92 -11.5t75.5 -33t52 -56.5t19.5 -80 q0 -53 -23.5 -97t-68.5 -84t-112.5 -77t-155.5 -77q-49 -23 -96.5 -52.5t-84 -64.5t-59 -78t-22.5 -94q0 -49 19.5 -82t52 -53.5t75.5 -28.5t92 -8q88 0 171 27.5t149 64.5l20 -37q-94 -53 -179 -76.5t-165 -23.5q-59 0 -110.5 12t-89 37.5t-59 67t-21.5 100.5zM432 1182 l234 293l47 -45l-256 -269z" />
<glyph unicode="&#x454;" horiz-adv-x="827" d="M82 342q0 51 7 120.5t27.5 143.5t55.5 145.5t88 128t128 91.5t177 35q63 0 124 -9.5t93 -25.5q18 -8 23.5 -18.5t1.5 -26.5q-2 -14 -12.5 -71.5t-26.5 -115.5h-29l9 193q-53 18 -104.5 23.5t-90.5 5.5q-84 0 -151.5 -33t-119 -91.5t-85 -136t-50.5 -168.5l394 7l-6 -52 l-396 2q-4 -39 -7 -76.5t-3 -76.5q0 -55 11.5 -109.5t41 -97.5t80.5 -70.5t129 -27.5q72 0 154 16t149 47l17 -35q-59 -33 -144.5 -52t-171.5 -19t-145.5 25.5t-96 72.5t-54 111.5t-17.5 144.5z" />
<glyph unicode="&#x455;" horiz-adv-x="794" d="M63 76q2 14 12.5 72.5t26.5 115.5h29l-8 -194q59 -23 112.5 -32t92.5 -9q63 0 120.5 14t101.5 43t70.5 73t26.5 105q0 45 -18.5 79t-50 59.5t-72.5 44t-86 36.5q-66 25 -117 48.5t-86 51t-53.5 63.5t-18.5 85q0 76 29 128t76 85t106.5 47.5t120.5 14.5q63 0 119.5 -9.5 t89.5 -25.5q18 -8 23.5 -18.5t1.5 -26.5q-2 -14 -12.5 -71.5t-26.5 -115.5h-29l8 193q-53 18 -98 23.5t-84 5.5q-53 0 -102.5 -13.5t-87 -40t-60 -69.5t-22.5 -101q0 -41 15 -70.5t44 -52t67.5 -41t88.5 -36.5q49 -18 99 -39t91 -50.5t67.5 -70.5t26.5 -103 q0 -78 -31.5 -132t-84 -89t-117.5 -51t-131 -16q-78 0 -144.5 14t-99.5 31q-18 8 -23.5 18t-1.5 27z" />
<glyph unicode="&#x456;" horiz-adv-x="460" d="M92 950l2 35q57 10 100.5 14.5t90.5 4.5q29 0 36 -10.5t7 -26.5q0 -14 -6.5 -68.5t-16.5 -133.5t-22.5 -176t-24.5 -195.5t-23.5 -193t-17.5 -167.5q47 4 92 18.5t84 32.5l17 -27q-51 -41 -101.5 -58t-83.5 -17q-35 0 -46 13t-11 40q0 8 6 59t15.5 129t21.5 173.5 t24.5 192.5t22.5 188t18 161zM272 1241q0 23 17 39t33 16q23 0 35 -12t12 -31q0 -23 -14.5 -40t-39.5 -17q-16 0 -29.5 13.5t-13.5 31.5z" />
<glyph unicode="&#x457;" horiz-adv-x="460" d="M92 950l2 35q57 10 100.5 14.5t90.5 4.5q27 0 35 -10.5t8 -26.5q0 -14 -6.5 -68.5t-16.5 -133.5t-22.5 -176t-24.5 -195.5t-23.5 -193t-17.5 -167.5q47 4 92 18.5t84 32.5l17 -27q-51 -41 -101.5 -58t-83.5 -17q-35 0 -46 13t-11 40q0 8 6 59t15.5 129t21.5 173.5 t24.5 192.5t22.5 188t18 161zM106 1186q0 23 16.5 40t39.5 17q18 0 30.5 -12t12.5 -31q0 -25 -16.5 -42t-38.5 -17q-18 0 -31 12t-13 33zM371 1186q0 23 16 40t39 17q18 0 30.5 -12t12.5 -31q0 -25 -16.5 -42t-38.5 -17q-18 0 -30.5 12t-12.5 33z" />
<glyph unicode="&#x458;" horiz-adv-x="436" d="M-115 -399q78 27 128 61.5t80 78.5t44.5 97t22.5 115q20 174 34.5 289.5t24.5 195.5t16.5 134.5t12.5 106.5t12 110.5t16 148.5l-184 12l2 35q57 10 100.5 14.5t90.5 4.5q43 0 43 -33q0 -12 -5.5 -66.5t-19.5 -169t-36.5 -298t-57.5 -455.5q-10 -80 -26.5 -143.5 t-50.5 -116t-89 -91.5t-143 -69zM272 1241q0 23 17 39t33 16q23 0 35 -12t12 -31q0 -23 -14.5 -40t-39.5 -17q-16 0 -29.5 13.5t-13.5 31.5z" />
<glyph unicode="&#x459;" horiz-adv-x="1316" d="M20 0q59 111 126 234.5t134.5 252.5t134 258t128.5 248l45 17l8 -6q10 -143 16 -260t13 -234q45 49 98 93t107.5 77t108.5 52.5t101 19.5q86 0 145.5 -64.5t59.5 -195.5q0 -78 -25.5 -168.5t-81 -165t-144.5 -124.5t-216 -48q-72 0 -119 10q-41 8 -49 27.5t-10 35.5 l-43 861h-6q-59 -117 -115.5 -227.5t-113 -222.5t-116 -227.5t-122.5 -242.5l-59 -8zM629 451q6 -113 10 -205t12 -199q43 -10 82 -13t76 -3q80 0 150.5 33.5t124 95t84 146.5t30.5 188q0 98 -42 154.5t-130 56.5q-43 0 -93 -20.5t-102.5 -54.5t-103.5 -81t-98 -98z" />
<glyph unicode="&#x45a;" horiz-adv-x="1437" d="M72 950l2 35q57 10 100 14.5t90 4.5q29 0 36 -10.5t7 -26.5q0 -20 -13 -131t-34 -269h459q23 188 33 288.5t16 139.5h49q-4 -43 -11 -111.5t-15.5 -142t-15.5 -140t-13 -103.5h4q55 70 111.5 119t109.5 79.5t101.5 44t85.5 13.5q104 0 163.5 -63.5t59.5 -186.5 q0 -57 -20.5 -145.5t-71 -171.5t-136.5 -142t-217 -59q-57 0 -137 12t-151 45l-5 6q16 141 29.5 257t24.5 212h-459l-64 -518h-49l115 938zM709 76q70 -27 141.5 -37t112.5 -10q98 0 169.5 45t119.5 114.5t72 153.5t24 160q0 98 -45.5 153.5t-137.5 55.5q-27 0 -72.5 -14.5 t-103 -50.5t-120 -97.5t-119.5 -153.5z" />
<glyph unicode="&#x45b;" horiz-adv-x="931" d="M20 1395l3 35q57 10 100 14t90 4q23 0 33 -10.5t8 -26.5l-25 -207h367l-6 -45h-365l-67 -561h4q45 104 100 181t113.5 127t117 76t111.5 26q96 0 132 -55.5t36 -133.5q0 -25 -2 -67.5t-9 -127.5t-22.5 -226.5t-40.5 -364.5q47 4 92.5 18.5t83.5 32.5l17 -27 q-51 -41 -101.5 -58t-82.5 -17q-47 0 -53.5 23.5t-2.5 64.5q25 205 38 339t21.5 216t10.5 120.5t2 53.5q0 70 -23.5 117t-99.5 47q-49 0 -108.5 -29t-122 -94.5t-123 -170t-109.5 -257.5l-51 -412h-45l135 1159h-153l6 45h153q6 55 12.5 100.5t10.5 77.5z" />
<glyph unicode="&#x45c;" horiz-adv-x="884" d="M70 950l2 35q57 10 100 14.5t90 4.5q29 0 36 -10.5t7 -26.5q0 -10 -4 -47l-10 -92.5t-14.5 -127t-18.5 -149.5l-70 -551h-49l115 938zM283 541l2 24q45 84 109.5 165t134 143.5t138.5 100.5t124 38q90 0 108 -74l-25 -23q-31 14 -57 18.5t-51 4.5q-92 0 -213 -98.5 t-227 -284.5q37 -78 91 -163t107.5 -157.5t97.5 -126t62 -65.5q51 16 88 42t68 50l22 -20q-39 -51 -86 -92t-90 -41q-14 0 -26.5 5t-29 22.5t-40 48t-60.5 81.5q-59 84 -125.5 190.5t-121.5 211.5zM442 1120l234 293l47 -45l-256 -268z" />
<glyph unicode="&#x45e;" horiz-adv-x="925" d="M-246 -385q0 8 4 25l25 8q33 -43 72 -53.5t55 -10.5q123 0 239.5 72t243.5 231l-192 1057l-160 -49l-12 29q39 29 87 57.5t79 28.5q23 0 37 -11.5t18 -40.5l180 -1026h6q66 92 130.5 218t114.5 264.5t82 276.5t32 255l-164 -47l-13 27q51 43 98.5 61.5t65.5 18.5 q31 0 46.5 -13.5t15.5 -48.5q0 -106 -33 -249.5t-88 -294t-128 -292t-153 -239.5q-61 -76 -128.5 -139.5t-140.5 -109.5t-145.5 -71.5t-142.5 -25.5q-61 0 -96 25.5t-35 66.5zM242 1288l47 27q35 -68 87 -112t118 -44q51 0 117.5 33t156.5 115l23 -19q-86 -100 -164.5 -140 t-141.5 -40q-86 0 -148.5 53t-94.5 127z" />
<glyph unicode="&#x45f;" horiz-adv-x="1032" d="M70 950l2 35q57 10 100 14.5t90 4.5q23 0 33 -10.5t8 -26.5q-2 -18 -9 -80t-15.5 -142.5t-18.5 -172t-18.5 -171t-13.5 -137t-5 -71.5q0 -78 24.5 -121t102.5 -43q49 0 108.5 28.5t122 94t123 170t109.5 258.5l51 411h45q-23 -170 -41 -343t-37 -329l-32 -286 q47 4 92 18.5t84 32.5l16 -27q-51 -41 -101 -58t-83 -17q-47 0 -53 23.5t-2 64.5q10 92 21 175t20 148h-5q-47 -104 -102 -181t-113.5 -127t-117 -75.5t-109.5 -25.5q-96 0 -134 51t-38 137q0 20 4 72.5t11.5 123t15.5 152.5t16 160t16.5 146.5t14.5 111.5zM547 -379 q16 98 39.5 201.5t50.5 195.5l41 -6q-12 -57 -21.5 -104t-17.5 -92t-17.5 -93.5t-19.5 -105.5l-49 -6z" />
<glyph unicode="&#x490;" horiz-adv-x="952" d="M29 0l4 49h133l160 1299h-125l6 49h797l30 254h47l-37 -303h-667l-160 -1299h199l-4 -49h-383z" />
<glyph unicode="&#x491;" horiz-adv-x="751" d="M115 0l114 948h-98l6 47h615l39 215h28v-93t-4 -101q-4 -43 -20.5 -56.5t-46.5 -11.5h-472l-114 -948h-47z" />
<glyph unicode="&#x4d9;" horiz-adv-x="823" d="M41 207q0 102 56.5 169.5t149.5 109.5t214 62.5t248 29.5q4 27 4 43v30q0 53 -11.5 108.5t-41 101.5t-83 76t-137.5 30q-147 0 -295 -68l-16 37q131 72 317 72q94 0 156 -30t96.5 -81t49 -118.5t14.5 -143.5q0 -92 -22.5 -205t-77 -210t-145.5 -163.5t-228 -66.5 q-68 0 -115 19.5t-76.5 50t-43 69.5t-13.5 78zM92 217q0 -82 50.5 -132t154.5 -50q90 0 161.5 42t124 111.5t83 158.5t41.5 183q-289 -16 -452 -89.5t-163 -223.5z" />
<glyph unicode="&#x2000;" horiz-adv-x="890" />
<glyph unicode="&#x2001;" horiz-adv-x="1780" />
<glyph unicode="&#x2002;" horiz-adv-x="890" />
<glyph unicode="&#x2003;" horiz-adv-x="1780" />
<glyph unicode="&#x2004;" horiz-adv-x="593" />
<glyph unicode="&#x2005;" horiz-adv-x="445" />
<glyph unicode="&#x2006;" horiz-adv-x="296" />
<glyph unicode="&#x2007;" horiz-adv-x="296" />
<glyph unicode="&#x2008;" horiz-adv-x="222" />
<glyph unicode="&#x2009;" horiz-adv-x="356" />
<glyph unicode="&#x200a;" horiz-adv-x="98" />
<glyph unicode="&#x2010;" horiz-adv-x="634" d="M109 485l6 56h436l-6 -56h-436z" />
<glyph unicode="&#x2011;" horiz-adv-x="634" d="M109 485l6 56h436l-6 -56h-436z" />
<glyph unicode="&#x2012;" horiz-adv-x="634" d="M109 485l6 56h436l-6 -56h-436z" />
<glyph unicode="&#x2013;" d="M57 487l6 58h902l-7 -58h-901z" />
<glyph unicode="&#x2014;" horiz-adv-x="1986" d="M55 487l6 58h1883l-7 -58h-1882z" />
<glyph unicode="&#x2018;" horiz-adv-x="370" d="M231 1225q0 47 33 113.5t90 111.5l13 -16q-35 -43 -50.5 -83t-19.5 -75q23 0 34 -12.5t11 -30.5q0 -29 -16.5 -48.5t-42.5 -19.5q-51 0 -52 60z" />
<glyph unicode="&#x2019;" horiz-adv-x="370" d="M225 1184q35 43 51.5 82.5t20.5 74.5q-45 0 -45 45q0 27 17.5 46.5t41.5 19.5q53 0 54 -59q0 -45 -34 -112t-91 -114z" />
<glyph unicode="&#x201a;" horiz-adv-x="231" d="M-12 -162q35 43 50 83t19 75q-20 0 -32.5 13.5t-12.5 33.5q0 27 18.5 45t41.5 18q53 0 53 -59q0 -47 -33 -112.5t-90 -112.5z" />
<glyph unicode="&#x201c;" horiz-adv-x="499" d="M231 1225q0 47 33 113.5t90 111.5l13 -16q-35 -43 -50.5 -83t-19.5 -75q23 0 34 -12.5t11 -30.5q0 -29 -16.5 -48.5t-42.5 -19.5q-51 0 -52 60zM383 1225q0 45 33 112.5t88 112.5l14 -16q-35 -43 -50 -83t-19 -75q20 0 32.5 -12.5t12.5 -30.5q0 -29 -17.5 -48.5 t-42.5 -19.5q-51 0 -51 60z" />
<glyph unicode="&#x201d;" horiz-adv-x="499" d="M225 1184q35 43 51.5 82.5t20.5 74.5q-45 0 -45 45q0 27 17.5 46.5t41.5 19.5q53 0 54 -59q0 -45 -34 -112t-91 -114zM377 1184q35 43 51.5 82.5t20.5 74.5q-20 0 -33 12.5t-13 30.5q0 29 16.5 48.5t43.5 19.5q23 0 38 -14.5t15 -44.5q0 -45 -33.5 -113t-93.5 -113z" />
<glyph unicode="&#x201e;" horiz-adv-x="395" d="M-12 -162q35 43 50 83t19 75q-20 0 -32.5 13.5t-12.5 33.5q0 27 18.5 45t41.5 18q53 0 53 -59q0 -47 -33 -112.5t-90 -112.5zM143 -162q35 43 50.5 83t19.5 75q-23 0 -34 13.5t-11 33.5q0 27 17.5 45t41.5 18q23 0 38.5 -14t15.5 -45q0 -47 -34 -112.5t-89 -112.5z" />
<glyph unicode="&#x2020;" horiz-adv-x="894" d="M139 932l6 45h332l51 418h50l-52 -418h330l-6 -45h-330l-127 -1043h-49l127 1043h-332z" />
<glyph unicode="&#x2021;" horiz-adv-x="894" d="M59 301l4 45h336l72 586h-332l6 45h332l51 418h50l-52 -418h330l-6 -45h-330l-71 -586h325l-4 -45h-326l-51 -412h-49l51 412h-336z" />
<glyph unicode="&#x2022;" horiz-adv-x="512" d="M127 547q0 57 36 94t91 37q59 0 95 -37t36 -94t-36 -94t-95 -37q-55 0 -91 36.5t-36 94.5z" />
<glyph unicode="&#x2026;" horiz-adv-x="960" d="M39 47q0 25 17 44.5t44 19.5q18 0 32.5 -14.5t14.5 -35.5q0 -25 -19 -44t-42 -19t-35 14.5t-12 34.5zM358 49q0 23 19.5 42.5t42.5 19.5q20 0 33.5 -14.5t13.5 -35.5q0 -25 -19.5 -44t-41.5 -19q-20 0 -34 14.5t-14 36.5zM686 49q0 23 19.5 42.5t42.5 19.5 q20 0 33.5 -14.5t13.5 -35.5q0 -25 -19.5 -44t-42.5 -19q-20 0 -33.5 14.5t-13.5 36.5z" />
<glyph unicode="&#x202f;" horiz-adv-x="356" />
<glyph unicode="&#x2030;" horiz-adv-x="2279" d="M131 817q0 31 3 84t15.5 113.5t36 123t63.5 112.5t99.5 82t143.5 32q76 0 124 -26.5t74.5 -68.5t35.5 -94.5t9 -105.5q0 -70 -13 -161t-51 -173t-106.5 -139t-177.5 -57q-78 0 -127 22.5t-77.5 60t-40 89t-11.5 106.5zM178 821q0 -51 10.5 -95t35 -76t66.5 -50t105 -18 q92 0 149.5 52t90.5 127t44 157.5t11 144.5q0 45 -8 91t-29.5 83t-62 60.5t-103.5 23.5q-76 0 -129 -32t-86.5 -82t-53 -109.5t-28 -114.5t-10.5 -99t-2 -63zM440 -47l734 1472h40l-729 -1472h-45zM924 270q0 31 3 84.5t15 113.5t35.5 122.5t63.5 113t99.5 82t143.5 31.5 q76 0 124 -26.5t74.5 -68.5t36 -94.5t9.5 -105.5q0 -70 -13.5 -161t-51.5 -173t-106.5 -139t-176.5 -57q-78 0 -127 22.5t-78 60.5t-40 89t-11 106zM971 274q0 -51 10 -95t34.5 -75.5t66.5 -50t106 -18.5q92 0 149.5 52t90 127t44 158t11.5 144q0 45 -8.5 91t-30 83 t-61.5 60.5t-103 23.5q-76 0 -129 -31.5t-87 -82t-53.5 -109.5t-27.5 -114.5t-10 -99.5t-2 -63zM1645 270q0 31 3 84.5t15 113.5t35.5 122.5t63.5 113t99.5 82t143.5 31.5q76 0 124 -26.5t74.5 -68.5t36 -94.5t9.5 -105.5q0 -70 -13.5 -161t-51.5 -173t-106.5 -139 t-176.5 -57q-78 0 -127.5 22.5t-78 60.5t-39.5 89t-11 106zM1692 274q0 -51 10 -95t34.5 -75.5t66.5 -50t106 -18.5q92 0 149.5 52t90 127t44 158t11.5 144q0 45 -8.5 91t-30 83t-61.5 60.5t-103 23.5q-76 0 -129 -31.5t-87 -82t-53.5 -109.5t-27.5 -114.5t-10 -99.5t-2 -63 z" />
<glyph unicode="&#x2039;" horiz-adv-x="581" d="M127 334l6 63l303 287l23 -22l-269 -297l197 -295l-29 -25z" />
<glyph unicode="&#x203a;" horiz-adv-x="581" d="M80 70l268 295l-194 297l30 22l230 -287l-6 -63l-306 -289z" />
<glyph unicode="&#x2044;" horiz-adv-x="212" d="M-262 -47l733 1472h41l-729 -1472h-45z" />
<glyph unicode="&#x205f;" horiz-adv-x="445" />
<glyph unicode="&#x20ac;" d="M57 573l6 48h797l-6 -48h-661q-2 -27 -3.5 -52t-1.5 -50q0 -88 18.5 -168t63.5 -139.5t122 -95t196 -35.5q47 0 121.5 6t154.5 31l27 223h47l-31 -258q-66 -23 -143.5 -36t-185.5 -13q-231 0 -336 132t-105 365q0 23 1 45.5t3 44.5h-84zM78 750l6 43h88q12 102 53 204.5 t111 185.5t170 134t233 51q98 0 182.5 -15.5t131.5 -33.5l-31 -250h-47l24 213q-23 8 -53.5 15.5t-66 12.5t-73.5 8t-71 3q-106 0 -193 -38t-152.5 -107.5t-108.5 -167t-60 -215.5h660l-7 -43h-796z" />
<glyph unicode="&#x2122;" horiz-adv-x="1341" d="M160 1262v135h434v-135h-35v92h-164v-514h82v-35h-205v35h82v514h-153v-92h-41zM659 803v37h66v512h-66v45h109l215 -457l221 457h109v-45h-70v-512h70v-37h-178v37h69v469l-205 -410h-41l-194 410v-469h72v-37h-177z" />
<glyph unicode="&#x2202;" horiz-adv-x="1073" d="M121 338q0 123 37 222t98 170t142 107.5t171 34.5q51 0 104.5 -14t102.5 -38.5t93 -57.5t75 -70q6 51 7 89t1 83q0 276 -102 422t-307 146q-29 0 -55.5 -1t-53.5 -6l-2 48q33 6 62.5 6h54.5q123 0 210 -49.5t140 -132.5t77.5 -193.5t24.5 -233.5q0 -215 -44 -380.5 t-117.5 -279.5t-173 -172t-209.5 -58q-150 0 -243 90t-93 268zM170 352q0 -168 78 -246.5t219 -78.5q102 0 185 58t143.5 147.5t95.5 196t41 204.5q-90 106 -193.5 148t-183.5 42q-84 0 -153.5 -37.5t-122 -102.5t-81 -151t-28.5 -180z" />
<glyph unicode="&#x220f;" horiz-adv-x="1265" d="M6 -180l6 49h123l180 1479h-122l6 49h1106l-7 -49h-127l-180 -1479h127l-6 -49h-305l6 49h125l180 1479h-751l-181 -1479h127l-6 -49h-301z" />
<glyph unicode="&#x2211;" horiz-adv-x="980" d="M4 -180l6 55l477 772l-288 694l6 56h831l-28 -246h-47l22 197h-729l289 -684l-4 -31l-476 -764h768l27 225h51l-32 -274h-873z" />
<glyph unicode="&#x221a;" horiz-adv-x="1011" d="M82 772l168 88q16 -88 29.5 -156.5t25.5 -134t26.5 -138.5t30.5 -167q10 -53 19.5 -105.5t17.5 -105.5h7q43 98 88 211q25 55 68.5 165t99 248t116 288.5t114.5 289t98 249t69 167.5h47q-35 -78 -89 -210t-117.5 -291.5t-133.5 -333.5t-133.5 -334t-117.5 -292t-87 -210 h-63q-23 117 -40.5 212t-34 184t-33.5 184.5t-40 212.5l-127 -66z" />
<glyph unicode="&#x221e;" horiz-adv-x="1556" d="M141 504q0 57 21.5 106t59.5 86t90.5 58.5t113.5 21.5q51 0 101.5 -20.5t99.5 -55t95 -78.5t89 -90q45 45 90 89.5t92 79t100.5 55t114.5 20.5q59 0 109.5 -19.5t86.5 -54t56.5 -83t20.5 -105.5q0 -61 -23.5 -111.5t-63.5 -87t-94.5 -57t-113.5 -20.5q-41 0 -81 10 t-84 35.5t-97.5 70.5t-118.5 113q-41 -41 -85 -82t-93 -73.5t-102.5 -53t-112.5 -20.5q-55 0 -104.5 21.5t-86.5 58t-58.5 85t-21.5 101.5zM180 506q0 -49 18.5 -90t50.5 -72t76 -48t95 -17q47 0 97 21.5t97.5 54t90.5 70.5t77 73q-39 41 -79.5 84t-87 76.5t-95.5 55 t-104 21.5q-49 0 -92 -18.5t-75 -50t-50.5 -73.5t-18.5 -87zM838 500q55 -55 97 -97.5t81 -70t80 -40.5t92 -13q53 0 98 19t79 52t53.5 75t19.5 87q0 55 -20.5 97t-54.5 70t-78 42t-89 14q-49 0 -98 -23.5t-95.5 -58.5t-89.5 -75.5t-75 -77.5z" />
<glyph unicode="&#x222b;" horiz-adv-x="634" d="M-70 -305l13 33q29 -10 62.5 -14.5t62.5 -4.5q98 0 139 67.5t57 198.5q20 162 26.5 318t10.5 307.5t10 302t25 303.5q18 147 82.5 236.5t187.5 89.5q35 0 54.5 -2t60.5 -12l-12 -37q-29 6 -52.5 9t-48.5 3q-59 0 -100 -23.5t-66.5 -63.5t-41 -92t-21.5 -108 q-20 -168 -26.5 -315.5t-9.5 -291.5t-9 -294.5t-27 -324.5q-18 -156 -73.5 -231t-165.5 -75q-37 0 -68 5.5t-70 15.5z" />
<glyph unicode="&#x2248;" d="M137 440q37 61 65.5 87t67.5 26q45 0 114 -11.5t141.5 -24.5t138 -24.5t102.5 -11.5l90 74l21 -14q-35 -61 -60.5 -84t-60.5 -23q-51 0 -119 11.5t-137.5 24.5t-134 24.5t-109.5 11.5l-94 -82zM168 686q37 61 65.5 87t67.5 26q45 0 113.5 -11.5t140.5 -24.5t137.5 -24.5 t102.5 -11.5l92 74l20 -15q-35 -61 -60.5 -83.5t-60.5 -22.5q-51 0 -118.5 11t-137 24.5t-134 25t-109.5 11.5l-94 -82z" />
<glyph unicode="&#x2260;" d="M127 301l170 148h-156l6 49h207l271 233h-449l6 51h502l197 168l28 -35l-155 -133h141l-6 -51h-195l-270 -233h436l-6 -49h-487l-215 -185z" />
<glyph unicode="&#x2264;" d="M129 346l6 49h713l-6 -49h-713zM193 817l8 60l741 278l-8 -57l-680 -250l618 -252l-6 -59z" />
<glyph unicode="&#x2265;" d="M131 346l6 49h713l-6 -49h-713zM156 537l6 59l680 252l-619 250l8 57l672 -278l-8 -60z" />
<glyph unicode="&#x25ca;" horiz-adv-x="1024" d="M100 690l383 705h60l379 -705l-379 -690h-60zM160 690l354 -647l350 647l-350 662z" />
<glyph unicode="&#x25fc;" horiz-adv-x="1003" d="M0 0v1004h1004v-1004h-1004z" />
</font>
</defs>
</svg>
